<?xml version="1.0" standalone="yes"?>
<svg xmlns="http://www.w3.org/2000/svg" width="765" height="765">
<path style="fill:#ff9741; stroke:none;" d="M372 1.42438C342.283 5.32623 313.302 6.22479 284 14.1512C191.802 39.092 111.204 98.2393 60.0532 179C-49.6297 352.177 1.46146 588.183 172 701.667C206.154 724.394 244.307 741.68 284 752.116C332.853 764.96 383.956 768.299 434 761.718C626.337 736.427 773.456 562.006 764.961 368C757.895 206.633 648.079 63.8083 493 17.2801C456.162 6.22778 410.588 -3.64233 372 1.42438z"/>
<path style="fill:#ff7f62; stroke:none;" d="M333 4L334 5L333 4z"/>
<path style="fill:#ffb02d; stroke:none;" d="M457 8L458 9L457 8M299 10L300 11L299 10M475 12L476 13L475 12M493 17L494 18L493 17M269 18L270 19L269 18z"/>
<path style="fill:#ff7f62; stroke:none;" d="M254 23L255 24L254 23z"/>
<path style="fill:#ffb02d; stroke:none;" d="M246 26L247 27L246 26z"/>
<path style="fill:#ff7f62; stroke:none;" d="M527 29L528 30L527 29z"/>
<path style="fill:#ffb02d; stroke:none;" d="M236 30L237 31L236 30M229 33L230 34L229 33z"/>
<path style="fill:#ff7f62; stroke:none;" d="M541 35L542 36L541 35z"/>
<path style="fill:#ffb02d; stroke:none;" d="M220 37L221 38L220 37M214 40L215 41L214 40z"/>
<path style="fill:#ff7f62; stroke:none;" d="M206 44L207 45L206 44z"/>
<path style="fill:#ffb02d; stroke:none;" d="M204 45L205 46L204 45M565 47L566 48L565 47M574 52L575 53L574 52z"/>
<path style="fill:#ff7f62; stroke:none;" d="M188 54L189 55L188 54z"/>
<path style="fill:#ffb02d; stroke:none;" d="M579 55L580 56L579 55M183 57L184 58L183 57M584 58L585 59L584 58M172 64L173 65L172 64z"/>
<path style="fill:#ff7f62; stroke:none;" d="M169 66L170 67L169 66z"/>
<path style="fill:#ffb02d; stroke:none;" d="M602 70L603 71L602 70M159 73L160 74L159 73M609 75L610 76L609 75z"/>
<path style="fill:#ff7f62; stroke:none;" d="M155 76L156 77L155 76M613 78L614 79L613 78z"/>
<path style="fill:#ffb02d; stroke:none;" d="M151 79L152 80L151 79z"/>
<path style="fill:#ff7f62; stroke:none;" d="M617 81L618 82L617 81z"/>
<path style="fill:#ffb02d; stroke:none;" d="M147 82L148 83L147 82z"/>
<path style="fill:#ff7f62; stroke:none;" d="M622 85L623 86L622 85z"/>
<path style="fill:#ffb02d; stroke:none;" d="M142 86L143 87L142 86M370 90L371 91L370 90M136 91L137 92L136 91z"/>
<path style="fill:#fffefe; stroke:none;" d="M370 91C371.252 120.075 379.756 145.508 367.573 174C355.524 202.178 331.558 217.513 309 236.438C288.208 253.883 268.797 274.71 256.258 299C241.748 327.109 233.381 359.279 233.004 391C232.841 404.676 233.157 418.377 234.09 432C234.562 438.901 236.486 446.166 235 453C228.448 444.504 225.028 433.092 221.667 423C213.042 397.104 208.948 370.133 207.09 343C206.282 331.215 209.108 317.303 206 306L204 306C160.03 400 157.753 515.125 235 591.999C249.163 606.094 266.74 618.845 285 627.136C351.916 657.517 436.397 659.907 501 621.396C517.277 611.693 531.339 598.691 543.195 584C547.698 578.421 553.573 572.169 555 565C498.745 586.825 443.666 609.919 383 588.308C325.95 567.985 278.349 496.565 324.297 442C366.614 391.748 448.103 410.301 461.715 476C466.491 499.056 462.513 522.013 448.101 541C442.358 548.566 432.155 554.8 428 563C439.081 567.15 451.487 565.933 463 565.089C499.86 562.387 531.422 544.882 554.399 516C603.199 454.656 606.719 363.304 558.87 300C547.686 285.203 534.061 272.372 519 261.579C512.742 257.095 505.7 251.39 498 250C502.676 277.173 516.607 300.447 502.627 328C481.414 369.808 421.512 371.978 399.971 329C387.029 303.179 394.88 273.415 417 255.468C423.032 250.574 439.256 247.706 442.262 240.892C446.177 232.014 443.937 219.275 443.075 210C439.87 175.536 422.458 144.886 400.271 119C392.871 110.367 381.157 94.1317 370 91z"/>
<path style="fill:#ffb02d; stroke:none;" d="M373 91L374 92L373 91M374 92L375 93L374 92M375 93L376 94L375 93M376 94L377 95L376 94M377 95L378 96L377 95M370.333 96.6667L370.667 97.3333L370.333 96.6667M378 96L379 97L378 96M379 97L380 98L379 97M128 98L129 99L128 98M380 98L381 99L380 98M381 99L382 100L381 99M382 100L383 101L382 100M371 101L371 104L372 104L371 101M383 101L384 102L383 101M384 102L385 103L384 102M385 103L386 104L385 103M386 104L387 105L386 104M387 105L388 106L387 105M388 106L389 107L388 106z"/>
<path style="fill:#ff7f62; stroke:none;" d="M646 106L647 107L646 106z"/>
<path style="fill:#ffb02d; stroke:none;" d="M372 107L372 110L373 110L372 107M389 107L390 108L389 107M647 107L648 108L647 107M390 108L391 109L390 108M391 109L392 110L391 109M392 110L393 111L392 110M393 111L394 112L393 111M394 112L395 113L394 112M373 114L373 118L374 118L373 114M399 118L400 119L399 118z"/>
<path style="fill:#ff7f62; stroke:none;" d="M658 118L659 119L658 118z"/>
<path style="fill:#ffb02d; stroke:none;" d="M400 119L401 120L400 119z"/>
<path style="fill:#ff7f62; stroke:none;" d="M659 119L660 120L659 119z"/>
<path style="fill:#ffb02d; stroke:none;" d="M401 120L402 121L401 120M660 120L661 121L660 120M402 121L403 122L402 121M374 124L374 134L375 134L374 124M405 125L406 126L405 125M406 126L407 127L406 126z"/>
<path style="fill:#ff7f62; stroke:none;" d="M98 128L99 129L98 128z"/>
<path style="fill:#ffb02d; stroke:none;" d="M408 129L409 130L408 129M409 130L410 131L409 130M410 131L411 132L410 131M670 131L671 132L670 131M411 133L412 134L411 133M412 134L413 135L412 134M91 136L92 137L91 136M374 136L374 146L375 146L374 136M414 137L415 138L414 137M676 138L677 139L676 138M416 140L417 141L416 140M417 141L418 142L417 141M86 142L87 143L86 142M418 143L419 144L418 143M680 143L681 144L680 143M419 144L420 145L419 144M420 146L421 147L420 146M82 147L83 148L82 147z"/>
<path style="fill:#ff7f62; stroke:none;" d="M684 148L685 149L684 148z"/>
<path style="fill:#ffb02d; stroke:none;" d="M422 149L423 150L422 149M79 151L80 152L79 151M373 151L373 154L374 154L373 151M423 151L424 152L423 151M425 154L426 155L425 154z"/>
<path style="fill:#ff7f62; stroke:none;" d="M76 155L77 156L76 155z"/>
<path style="fill:#ffb02d; stroke:none;" d="M426 156L427 157L426 156M372.333 157.667L372.667 158.333L372.333 157.667M427 158L428 159L427 158M73 159L74 160L73 159M428 160L429 161L428 160M693 160L694 161L693 160M371.333 161.667L371.667 162.333L371.333 161.667M429 162L430 163L429 162M430 164L431 165L430 164M370.333 165.667L370.667 166.333L370.333 165.667M431 166L432 167L431 166M369.333 168.667L369.667 169.333L369.333 168.667M432 168L433 169L432 168z"/>
<path style="fill:#ff7f62; stroke:none;" d="M66 169L67 170L66 169z"/>
<path style="fill:#ffb02d; stroke:none;" d="M700 170L701 171L700 170M368 171L369 172L368 171M433 171L434 172L433 171M64 172L65 173L64 172M434 173L435 174L434 173M367 174L368 175L367 174M62 175L63 176L62 175M366 176L367 177L366 176M435 176L436 177L435 176M365 178L366 179L365 178M436 179L437 180L436 179M364 180L365 181L364 180M437.333 181.667L437.667 182.333L437.333 181.667M363 182L364 183L363 182z"/>
<path style="fill:#ff7f62; stroke:none;" d="M57 183L58 184L57 183z"/>
<path style="fill:#ffb02d; stroke:none;" d="M362 184L363 185L362 184M438 185L439 186L438 185M361 186L362 187L361 186z"/>
<path style="fill:#ff7f62; stroke:none;" d="M54 188L55 189L54 188z"/>
<path style="fill:#ffb02d; stroke:none;" d="M439.333 188.667L439.667 189.333L439.333 188.667M359 189L360 190L359 189M357 192L358 193L357 192M440.333 192.667L440.667 193.333L440.333 192.667M50 195L51 196L50 195M355 195L356 196L355 195M354 196L355 197L354 196M441 196L441 199L442 199L441 196M353 197L354 198L353 197M349 202L350 203L349 202M442 202L442 205L443 205L442 202M348 203L349 204L348 203M45 204L46 205L45 204M347 204L348 205L347 204M346 205L347 206L346 205M44 206L45 207L44 206M345 206L346 207L345 206M344 207L345 208L344 207M343 208L344 209L343 208M342 209L343 210L342 209M341 210L342 211L341 210M443 210L443 214L444 214L443 210M340 211L341 212L340 211M335 215L336 216L335 215M334 216L335 217L334 216M333 217L334 218L333 217M332 218L333 219L332 218M37 220L38 221L37 220M329 220L330 221L329 220M328 221L329 222L328 221M327 222L328 223L327 222M324 224L325 225L324 224M323 225L324 226L323 225M731 226L732 227L731 226M320 227L321 228L320 227M319 228L320 229L319 228M316 230L317 231L316 230M315 231L316 232L315 231M312 233L313 234L312 233M311 234L312 235L311 234M443 234L443 238L444 238L443 234M310 235L311 236L310 235M735 235L736 236L735 235M306 238L307 239L306 238M305 239L306 240L305 239M304 240L305 241L304 240M737 240L738 241L737 240M303 241L304 242L303 241M442 241L443 242L442 241M302 242L303 243L302 242M441 243L442 244L441 243M439 244L440 245L439 244M436 245L437 246L436 245M739 245L740 246L739 245M26 246L27 247L26 246M433 246L434 247L433 246M430 247L431 248L430 247M428 248L429 249L428 248M426 249L427 250L426 249M499 249L500 250L499 249M424 250L425 251L424 250M501 250L502 251L501 250M422 251L423 252L422 251M503 251L504 252L503 251M420 252L421 253L420 252M419 253L420 254L419 253M498 253L499 254L498 253M506 253L507 254L506 253M742 253L743 254L742 253M23 254L24 255L23 254M508 254L509 255L508 254M416 255L417 256L416 255M499.333 255.667L499.667 256.333L499.333 255.667M509 255L510 256L509 255M415 256L416 257L415 256M511 256L512 257L511 256z"/>
<path style="fill:#ff7f62; stroke:none;" d="M743 256L744 257L743 256z"/>
<path style="fill:#ffb02d; stroke:none;" d="M500.333 258.667L500.667 259.333L500.333 258.667M514 258L515 259L514 258M517 260L518 261L517 260M501 261L502 262L501 261M518 261L519 262L518 261M282 262L283 263L282 262M281 263L282 264L281 263M521 263L522 264L521 263M280 264L281 265L280 264M502 264L503 265L502 264M279 265L280 266L279 265M406 265L407 266L406 265M746 265L747 266L746 265M278 266L279 267L278 266M405 266L406 267L405 266M525 266L526 267L525 266M503.333 267.667L503.667 268.333L503.333 267.667M526 267L527 268L526 267z"/>
<path style="fill:#ff7f62; stroke:none;" d="M747 268L748 269L747 268z"/>
<path style="fill:#ffb02d; stroke:none;" d="M18 269L19 270L18 269M403 269L404 270L403 269M529 269L530 270L529 269M275 270L276 271L275 270M530 270L531 271L530 270M274 271L275 272L274 271M504 271L505 272L504 271M531 271L532 272L531 271M401 272L402 273L401 272M400 274L401 275L400 274M505.333 274.667L505.667 275.333L505.333 274.667M535 274L536 275L535 274M271 275L272 276L271 275M536 275L537 276L536 275M270 276L271 277L270 276M399 276L400 277L399 276M537 276L538 277L537 276M538 277L539 278L538 277M398 278L399 279L398 278M506.333 278.667L506.667 279.333L506.333 278.667M539 278L540 279L539 278M750 278L751 279L750 278z"/>
<path style="fill:#ff7f62; stroke:none;" d="M15 279L16 280L15 279z"/>
<path style="fill:#ffb02d; stroke:none;" d="M268 279L269 280L268 279M540 279L541 280L540 279M541 280L542 281L541 280M397 281L398 282L397 281M542 281L543 282L542 281M266 282L267 283L266 282M543 282L544 283L543 282M265 283L266 284L265 283M507 283L507 286L508 286L507 283M544 283L545 284L544 283M396 284L397 285L396 284M545 284L546 285L545 284M264 285L265 286L264 285M546 285L547 286L546 285M263 286L264 287L263 286M547 286L548 287L547 286M395 287L396 288L395 287M548 287L549 288L548 287M262 288L263 289L262 288M549 288L550 289L549 288M508 290L508 294L509 294L508 290M260 291L261 292L260 291M394.333 291.667L394.667 292.333L394.333 291.667M259 293L260 294L259 293M553 293L554 294L553 293M554 294L555 295L554 294M555 295L556 296L555 295M257 296L258 297L257 296M256 298L257 299L256 298M557 298L558 299L557 298M10 299L11 300L10 299M393 299L393 305L394 305L393 299M558 299L559 300L558 299M255 300L256 301L255 300M254 302L255 303L254 302M560 302L561 303L560 302M561 303L562 304L561 303M253 304L254 305L253 304M204.667 305.333L205.333 305.667L204.667 305.333M203 306L204 307L203 306M206 306L207 307L206 306M252 306L253 307L252 306M508 306L508 309L509 309L508 306M563 306L564 307L563 306z"/>
<path style="fill:#ff7f62; stroke:none;" d="M757 307L758 308L757 307z"/>
<path style="fill:#ffb02d; stroke:none;" d="M251 308L252 309L251 308M202 309L203 310L202 309M565 309L566 310L565 309M250 310L251 311L250 310M201 311L202 312L201 311M394 311L394 314L395 314L394 311M566 311L567 312L566 311M206 312L206 318L207 318L206 312M758 312L759 313L758 312M249 313L250 314L249 313M507.333 313.667L507.667 314.333L507.333 313.667M200 314L201 315L200 314M568 314L569 315L568 314M248 315L249 316L248 315M199 316L200 317L199 316M395.333 316.667L395.667 317.333L395.333 316.667M569 316L570 317L569 316M247 317L248 318L247 317M506.333 317.667L506.667 318.333L506.333 317.667M198 318L199 319L198 318M571 319L572 320L571 319M246 320L247 321L246 320M396 320L397 321L396 320M505.333 320.667L505.667 321.333L505.333 320.667M197 321L198 322L197 321M572 321L573 322L572 321M196 323L197 324L196 323M245 323L246 324L245 323M397 323L398 324L397 323M504 323L505 324L504 323M573 323L574 324L573 323M760 324L761 325L760 324M244 325L245 326L244 325M574 325L575 326L574 325z"/>
<path style="fill:#ff7f62; stroke:none;" d="M5 326L6 327L5 326z"/>
<path style="fill:#ffb02d; stroke:none;" d="M195 326L196 327L195 326M503 326L504 327L503 326M243 328L244 329L243 328M399 328L400 329L399 328M502 328L503 329L502 328M194 329L195 330L194 329M400 330L401 331L400 330M501 330L502 331L501 330M576 330L577 331L576 330M193.333 331.667L193.667 332.333L193.333 331.667M242.333 331.667L242.667 332.333L242.333 331.667M761 331L762 332L761 331M577 332L578 333L577 332z"/>
<path style="fill:#ff7f62; stroke:none;" d="M4 333L5 334L4 333z"/>
<path style="fill:#ffb02d; stroke:none;" d="M402 333L403 334L402 333M499 333L500 334L499 333M192 334L193 335L192 334M578 334L579 335L578 334M241 335L242 336L241 335M403 335L404 336L403 335M404 336L405 337L404 336M497 336L498 337L497 336M191 337L192 338L191 337M579 337L580 338L579 337M240.333 338.667L240.667 339.333L240.333 338.667M406 339L407 340L406 339M495 339L496 340L495 339M580.333 339.667L580.667 340.333L580.333 339.667M762 339L763 340L762 339M190 340L191 341L190 340M207 340L207 347L208 347L207 340M407 340L408 341L407 340M494 340L495 341L494 340M408 341L409 342L408 341M493 341L494 342L493 341M239.333 342.667L239.667 343.333L239.333 342.667M492 342L493 343L492 342M581 342L582 343L581 342M189 343L190 344L189 343M491 343L492 344L491 343M490 344L491 345L490 344M582 345L583 346L582 345M188 346L189 347L188 346M238.333 346.667L238.667 347.333L238.333 346.667M488 346L489 347L488 346M414 347L415 348L414 347M487 347L488 348L487 347M415 348L416 349L415 348M486 348L487 349L486 348M583 348L584 349L583 348M187 349L188 350L187 349M763 349L764 350L763 349M418 350L419 351L418 350M483 350L484 351L483 350M237.333 351.667L237.667 352.333L237.333 351.667M419 351L420 352L419 351M584 351L585 352L584 351M186.333 352.667L186.667 353.333L186.333 352.667M421 352L422 353L421 352M480 352L481 353L480 352M478 353L479 354L478 353M424 354L425 355L424 354M477 354L478 355L477 354M585 354L586 355L585 354M185.333 355.667L185.667 356.333L185.333 355.667M426 355L427 356L426 355M475 355L476 356L475 355M208 356L208 360L209 360L208 356M236.333 356.667L236.667 357.333L236.333 356.667M429 356L430 357L429 356M472 356L473 357L472 356M431 357L432 358L431 357M470 357L471 358L470 357M586.333 357.667L586.667 358.333L586.333 357.667M434 358L435 359L434 358M467 358L468 359L467 358M184 359L185 360L184 359M437.667 359.333L438.333 359.667L437.667 359.333M463.667 359.333L464.333 359.667L463.667 359.333M442 360L442 361L446 361L442 360M456 360L456 361L460 361L456 360M587.333 361.667L587.667 362.333L587.333 361.667M235 362L235 365L236 365L235 362M183 363L184 364L183 363M764 363L765 364L764 363M209 365L209 369L210 369L209 365M588.333 365.667L588.667 366.333L588.333 365.667M182.333 366.667L182.667 367.333L182.333 366.667M234 369L234 373L235 373L234 369M589.333 369.667L589.667 370.333L589.333 369.667M181.333 370.667L181.667 371.333L181.333 370.667M1 371L2 372L1 371M210 373L210 376L211 376L210 373M180.333 374.667L180.667 375.333L180.333 374.667M590.333 374.667L590.667 375.333L590.333 374.667M179.333 379.667L179.667 380.333L179.333 379.667M233 379L233 385L234 385L233 379M211 380L211 383L212 383L211 380M591.333 380.667L591.667 381.333L591.333 380.667M178.333 384.667L178.667 385.333L178.333 384.667M212.333 386.667L212.667 387.333L212.333 386.667M592 387L592 390L593 390L592 387M177.333 389.667L177.667 390.333L177.333 389.667M213.333 391.667L213.667 392.333L213.333 391.667z"/>
<path style="fill:#ff7f62; stroke:none;" d="M1 394L2 395L1 394z"/>
<path style="fill:#ffb02d; stroke:none;" d="M176 394L176 397L177 397L176 394M214.333 396.667L214.667 397.333L214.333 396.667M593 398L593 417L594 417L593 398M215.333 400.667L215.667 401.333L215.333 400.667M175.333 401.667L175.667 402.333L175.333 401.667z"/>
<path style="fill:#ff7f62; stroke:none;" d="M764 402L765 403L764 402z"/>
<path style="fill:#ffb02d; stroke:none;" d="M216 405L217 406L216 405M174 408L174 412L175 412L174 408M217.333 408.667L217.667 409.333L217.333 408.667M218 412L219 413L218 412M376 412L376 413L380 413L376 412M389 412L389 413L394 413L389 412M2 413L3 414L2 413M369 413L369 414L372 414L369 413M398.667 413.333L399.333 413.667L398.667 413.333M365.667 414.333L366.333 414.667L365.667 414.333M402.667 414.333L403.333 414.667L402.667 414.333M219.333 415.667L219.667 416.333L219.333 415.667M362 415L363 416L362 415M406 415L407 416L406 415M359 416L360 417L359 416M409 416L410 417L409 416M763 416L764 417L763 416M233 417L233 426L234 426L233 417M356 417L357 418L356 417M412 417L413 418L412 417M173 418L173 423L174 423L173 418M354 418L355 419L354 418M414.667 418.333L415.333 418.667L414.667 418.333M220 419L221 420L220 419M352 419L353 420L352 419M417 419L418 420L417 419M350 420L351 421L350 420M419 420L420 421L419 420M348 421L349 422L348 421M421 421L422 422L421 421M221 422L222 423L221 422M346 422L347 423L346 422M423 422L424 423L423 422M425 423L426 424L425 423M343 424L344 425L343 424M426 424L427 425L426 424M592 424L592 428L593 428L592 424M222 425L223 426L222 425M341 425L342 426L341 425M428 425L429 426L428 425M340 426L341 427L340 426M431 427L432 428L431 427M223 428L224 429L223 428M337 428L338 429L337 428M336 429L337 430L336 429M224.333 430.667L224.667 431.333L224.333 430.667M435 430L436 431L435 430M436 431L437 432L436 431M437 432L438 433L437 432M591 432L591 435L592 435L591 432M225 433L226 434L225 433M330 434L331 435L330 434M439 434L440 435L439 434M234 435L234 440L235 440L234 435M226 436L227 437L226 436M442 437L443 438L442 437M227 438L228 439L227 438M443 438L444 439L443 438M590.333 438.667L590.667 439.333L590.333 438.667M444 439L445 440L444 439M445 440L446 441L445 440M228 441L229 442L228 441M324 441L325 442L324 441M323 442L324 443L323 442M229 443L230 444L229 443M447 443L448 444L447 443M589.333 443.667L589.667 444.333L589.333 443.667M448 444L449 445L448 444M230 445L231 446L230 445M321 445L322 446L321 445M235 446L235 452L236 452L235 446M320 446L321 447L320 446M449 446L450 447L449 446M231 447L232 448L231 447M450 447L451 448L450 447M588.333 447.667L588.667 448.333L588.333 447.667M319 448L320 449L319 448M451 449L452 450L451 449M232 450L233 451L232 450M317 451L318 452L317 451M452 451L453 452L452 451M587 451L588 452L587 451M234 452L235 453L234 452M316 453L317 454L316 453M586.333 454.667L586.667 455.333L586.333 454.667M315 455L316 456L315 455M173 457L173 463L174 463L173 457M314 457L315 458L314 457M455 457L456 458L455 457M585.333 457.667L585.667 458.333L585.333 457.667M313 459L314 460L313 459M456 459L457 460L456 459M312 461L313 462L312 461M457 461L458 462L457 461M584 461L585 462L584 461M583 463L584 464L583 463M311 464L312 465L311 464M458 464L459 465L458 464M582 466L583 467L582 466M310 467L311 468L310 467M459 467L460 468L459 467M174 469L174 472L175 472L174 469M581 469L582 470L581 469M309.333 470.667L309.667 471.333L309.333 470.667M460 471L461 472L460 471M580 471L581 472L580 471z"/>
<path style="fill:#ff7f62; stroke:none;" d="M754 472L755 473L754 472z"/>
<path style="fill:#ffb02d; stroke:none;" d="M579 473L580 474L579 473M308.333 474.667L308.667 475.333L308.333 474.667M461.333 474.667L461.667 475.333L461.333 474.667M175 476L175 479L176 479L175 476M578 476L579 477L578 476M753 476L754 477L753 476M577 478L578 479L577 478M13 479L14 480L13 479M307.333 479.667L307.667 480.333L307.333 479.667M462.333 480.667L462.667 481.333L462.333 480.667M576 480L577 481L576 480z"/>
<path style="fill:#ff7f62; stroke:none;" d="M752 480L753 481L752 480z"/>
<path style="fill:#ffb02d; stroke:none;" d="M575 482L576 483L575 482M176.333 483.667L176.667 484.333L176.333 483.667M574 484L575 485L574 484M306 485L306 491L307 491L306 485M573 486L574 487L573 486M463 487L463 503L464 503L463 487M177.333 488.667L177.667 489.333L177.333 488.667M572 488L573 489L572 488M570 491L571 492L570 491M17 493L18 494L17 493M178.333 493.667L178.667 494.333L178.333 493.667M569 493L570 494L569 493z"/>
<path style="fill:#ff7f62; stroke:none;" d="M748 494L749 495L748 494z"/>
<path style="fill:#ffb02d; stroke:none;" d="M568 495L569 496L568 495M179.333 497.667L179.667 498.333L179.333 497.667M306 498L306 503L307 503L306 498M566 498L567 499L566 498M180 501L181 502L180 501M564 501L565 502L564 501M563 503L564 504L563 503M562 504L563 505L562 504M181 505L182 506L181 505M561 506L562 507L561 506M307.333 507.667L307.667 508.333L307.333 507.667M462 507L462 510L463 510L462 507M560 507L561 508L560 507M182 508L183 509L182 508M558 510L559 511L558 510M183 511L184 512L183 511M308.333 512.667L308.667 513.333L308.333 512.667M461 513L462 514L461 513M556 513L557 514L556 513M184 514L185 515L184 514M555 514L556 515L555 514M554 515L555 516L554 515z"/>
<path style="fill:#ff7f62; stroke:none;" d="M741 515L742 516L741 515z"/>
<path style="fill:#ffb02d; stroke:none;" d="M309.333 516.667L309.667 517.333L309.333 516.667M460.333 516.667L460.667 517.333L460.333 516.667M185 517L186 518L185 517M552 518L553 519L552 518M310 519L311 520L310 519M551 519L552 520L551 519M186 520L187 521L186 520M459 520L460 521L459 520M550 520L551 521L550 520z"/>
<path style="fill:#ff7f62; stroke:none;" d="M27 522L28 523L27 522z"/>
<path style="fill:#ffb02d; stroke:none;" d="M187 522L188 523L187 522M311 522L312 523L311 522M458 522L459 523L458 522M188 525L189 526L188 525M312 525L313 526L312 525M457 525L458 526L457 525M546 525L547 526L546 525M545 526L546 527L545 526z"/>
<path style="fill:#ff7f62; stroke:none;" d="M29 527L30 528L29 527z"/>
<path style="fill:#ffb02d; stroke:none;" d="M189 527L190 528L189 527M313 527L314 528L313 527M456 527L457 528L456 527M544 527L545 528L544 527M543 528L544 529L543 528M190 529L191 530L190 529M314 529L315 530L314 529M455 529L456 530L455 529M542 529L543 530L542 529M541 530L542 531L541 530M191 531L192 532L191 531M315 531L316 532L315 531M454 531L455 532L454 531M540 531L541 532L540 531M539 532L540 533L539 532M316 533L317 534L316 533M453 533L454 534L453 533M452 534L453 535L452 534M317 535L318 536L317 535M451 536L452 537L451 536M533 537L534 538L533 537M319 538L320 539L319 538M532 538L533 539L532 538M449 539L450 540L449 539M448 540L449 541L448 540M35 541L36 542L35 541M196 541L197 542L196 541M321 541L322 542L321 541M528 541L529 542L528 541M197 543L198 544L197 543M446 543L447 544L446 543M525 543L526 544L525 543M323 544L324 545L323 544M445 544L446 545L445 544M524 544L525 545L524 544M198 545L199 546L198 545M324 545L325 546L324 545M522 545L523 546L522 545M521 546L522 547L521 546M728 546L729 547L728 546M199 547L200 548L199 547M519 547L520 548L519 547M200 548L201 549L200 548M727 548L728 549L727 548M327 549L328 550L327 549M516 549L517 550L516 549M201 550L202 551L201 550M328 550L329 551L328 550M440 550L441 551L440 550M514 550L515 551L514 550z"/>
<path style="fill:#ff7f62; stroke:none;" d="M726 550L727 551L726 550z"/>
<path style="fill:#ffb02d; stroke:none;" d="M329 551L330 552L329 551M439 551L440 552L439 551M512 551L513 552L512 551M438 552L439 553L438 552M510 552L511 553L510 552z"/>
<path style="fill:#ff7f62; stroke:none;" d="M725 552L726 553L725 552z"/>
<path style="fill:#ffb02d; stroke:none;" d="M203 553L204 554L203 553M437 553L438 554L437 553M508 553L509 554L508 553M436 554L437 555L436 554M506 554L507 555L506 554M724 554L725 555L724 554M504 555L505 556L504 555M205 556L206 557L205 556M501 556L502 557L501 556M432 557L433 558L432 557M499 557L500 558L499 557M206 558L207 559L206 558M431 558L432 559L431 558M496 558L497 559L496 558z"/>
<path style="fill:#ff7f62; stroke:none;" d="M722 558L723 559L722 558z"/>
<path style="fill:#ffb02d; stroke:none;" d="M207 559L208 560L207 559M493 559L494 560L493 559M490 560L491 561L490 560M721 560L722 561L721 560M486.667 561.333L487.333 561.667L486.667 561.333M209 562L210 563L209 562M482 562L483 563L482 562M46 563L47 564L46 563M428 563L429 564L428 563M477.667 563.333L478.333 563.667L477.667 563.333M342 564L343 565L342 564M430 564L430 565L433 565L430 564M470 564L470 565L473 565L470 564M47 565L48 566L47 565M343 565L344 566L343 565M438 565L438 566L442 566L438 565M459 565L459 566L465 566L459 565M553 565L554 566L553 565M555.333 565.667L555.667 566.333L555.333 565.667M212 566L213 567L212 566M344 566L345 567L344 566M551 566L552 567L551 566M548 567L549 568L548 567M546 568L547 569L546 568M554 568L555 569L554 568M348 569L349 570L348 569M544 569L545 570L544 569M215 570L216 571L215 570M349 570L350 571L349 570M542 570L543 571L542 570M216 571L217 572L216 571M540 571L541 572L540 571M552 571L553 572L552 571M715 571L716 572L715 571M352 572L353 573L352 572M537 572L538 573L537 572M551 572L552 573L551 572M535 573L536 574L535 573M355 574L356 575L355 574M533 574L534 575L533 574M219 575L220 576L219 575M531 575L532 576L531 575M549 575L550 576L549 575M220 576L221 577L220 576M358 576L359 577L358 576M528 576L529 577L528 576M221 577L222 578L221 577M526 577L527 578L526 577M361 578L362 579L361 578M523 578L524 579L523 578M547 578L548 579L547 578z"/>
<path style="fill:#ff7f62; stroke:none;" d="M55 579L56 580L55 579z"/>
<path style="fill:#ffb02d; stroke:none;" d="M363 579L364 580L363 579M521 579L522 580L521 579M546 579L547 580L546 579M365 580L366 581L365 580M518 580L519 581L518 580M367 581L368 582L367 581M515 581L516 582L515 581M225 582L226 583L225 582M369 582L370 583L369 582M512.667 582.333L513.333 582.667L512.667 582.333M544 582L545 583L544 582M226 583L227 584L226 583M371 583L372 584L371 583M510 583L511 584L510 583M543 583L544 584L543 583M227 584L228 585L227 584M373 584L374 585L373 584M507 584L508 585L507 584M542 584L543 585L542 584M228 585L229 586L228 585M375 585L376 586L375 585M504 585L505 586L504 585M229 586L230 587L229 586M378 586L379 587L378 586M500.667 586.333L501.333 586.667L500.667 586.333M706 586L707 587L706 586z"/>
<path style="fill:#ff7f62; stroke:none;" d="M60 587L61 588L60 587z"/>
<path style="fill:#ffb02d; stroke:none;" d="M230 587L231 588L230 587M380 587L381 588L380 587M497.667 587.333L498.333 587.667L497.667 587.333M231 588L232 589L231 588M383 588L384 589L383 588M494 588L495 589L494 588M539 588L540 589L539 588M232 589L233 590L232 589M386 589L387 590L386 589M490.667 589.333L491.333 589.667L490.667 589.333M538 589L539 590L538 589M233 590L234 591L233 590M389 590L390 591L389 590M486.667 590.333L487.333 590.667L486.667 590.333M537 590L538 591L537 590M234 591L235 592L234 591M392 591L393 592L392 591M482.667 591.333L483.333 591.667L482.667 591.333M536 591L537 592L536 591M235 592L236 593L235 592M396 592L397 593L396 592M477.667 592.333L478.333 592.667L477.667 592.333M236 593L237 594L236 593M400.667 593.333L401.333 593.667L400.667 593.333M472.667 593.333L473.333 593.667L472.667 593.333M237 594L238 595L237 594M405.667 594.333L406.333 594.667L405.667 594.333M466.667 594.333L467.333 594.667L466.667 594.333M411 595L411 596L414 596L411 595M459 595L459 596L462 596L459 595M420 596L420 597L425 597L420 596M447 596L447 597L453 597L447 596M243 599L244 600L243 599M244 600L245 601L244 600M245 601L246 602L245 601z"/>
<path style="fill:#ff7f62; stroke:none;" d="M70 602L71 603L70 602z"/>
<path style="fill:#ffb02d; stroke:none;" d="M524 603L525 604L524 603M249 604L250 605L249 604M523 604L524 605L523 604M694 604L695 605L694 604M250 605L251 606L250 605M522 605L523 606L522 605M521 606L522 607L521 606M254 608L255 609L254 608M691 608L692 609L691 608z"/>
<path style="fill:#ff7f62; stroke:none;" d="M75 609L76 610L75 609z"/>
<path style="fill:#ffb02d; stroke:none;" d="M517 609L518 610L517 609M257 610L258 611L257 610M516 610L517 611L516 610M258 611L259 612L258 611M260 612L261 613L260 612z"/>
<path style="fill:#ff7f62; stroke:none;" d="M78 613L79 614L78 613z"/>
<path style="fill:#ffb02d; stroke:none;" d="M261 613L262 614L261 613M512 613L513 614L512 613M511 614L512 615L511 614M264 615L265 616L264 615M509 615L510 616L509 615M266 616L267 617L266 616M508 616L509 617L508 616M685 616L686 617L685 616M81 617L82 618L81 617M267 617L268 618L267 617M269 618L270 619L269 618M505 618L506 619L505 618M271 619L272 620L271 619M502 620L503 621L502 620M274 621L275 622L274 621M500 621L501 622L500 621M85 622L86 623L85 622M276 622L277 623L276 622M278 623L279 624L278 623M497 623L498 624L497 623M495 624L496 625L495 624M493 625L494 626L493 625M491 626L492 627L491 626z"/>
<path style="fill:#ff7f62; stroke:none;" d="M677 626L678 627L677 626z"/>
<path style="fill:#ffb02d; stroke:none;" d="M489 627L490 628L489 627M288 628L289 629L288 628M487 628L488 629L487 628M290 629L291 630L290 629M485 629L486 630L485 629M292 630L293 631L292 630M483 630L484 631L483 630M294 631L295 632L294 631M481 631L482 632L481 631M297 632L298 633L297 632M478 632L479 633L478 632M672 632L673 633L672 632M299 633L300 634L299 633M476 633L477 634L476 633M302 634L303 635L302 634M473 634L474 635L473 634M96 635L97 636L96 635M304 635L305 636L304 635M471 635L472 636L471 635M307 636L308 637L307 636M468 636L469 637L468 636M310 637L311 638L310 637M465 637L466 638L465 637M313 638L314 639L313 638M461.667 638.333L462.333 638.667L461.667 638.333M316 639L317 640L316 639M458 639L459 640L458 639M319.667 640.333L320.333 640.667L319.667 640.333M454.667 640.333L455.333 640.667L454.667 640.333M323 641L324 642L323 641M450.667 641.333L451.333 641.667L450.667 641.333M664 641L665 642L664 641M327 642L328 643L327 642M446.667 642.333L447.333 642.667L446.667 642.333M663 642L664 643L663 642M330.667 643.333L331.333 643.667L330.667 643.333M442.667 643.333L443.333 643.667L442.667 643.333M335.667 644.333L336.333 644.667L335.667 644.333M438.667 644.333L439.333 644.667L438.667 644.333M340.667 645.333L341.333 645.667L340.667 645.333M433.667 645.333L434.333 645.667L433.667 645.333z"/>
<path style="fill:#ff7f62; stroke:none;" d="M106 646L107 647L106 646z"/>
<path style="fill:#ffb02d; stroke:none;" d="M345.667 646.333L346.333 646.667L345.667 646.333M428.667 646.333L429.333 646.667L428.667 646.333M107 647L108 648L107 647M351 647L351 648L354 648L351 647M422.667 647.333L423.333 647.667L422.667 647.333M108 648L109 649L108 648M358 648L358 649L361 649L358 648M415 648L415 649L418 649L415 648M366 649L366 650L371 650L366 649M407 649L407 650L410 650L407 649M110 650L111 651L110 650M378 650L378 651L399 651L378 650M115 655L116 656L115 655M116 656L117 657L116 656M117 657L118 658L117 657M118 658L119 659L118 658M119 659L120 660L119 659M120 660L121 661L120 660z"/>
<path style="fill:#ff7f62; stroke:none;" d="M642 663L643 664L642 663z"/>
<path style="fill:#ffb02d; stroke:none;" d="M641 664L642 665L641 664z"/>
<path style="fill:#ff7f62; stroke:none;" d="M130 669L131 670L130 669z"/>
<path style="fill:#ffb02d; stroke:none;" d="M131 670L132 671L131 670z"/>
<path style="fill:#ff7f62; stroke:none;" d="M632 672L633 673L632 672z"/>
<path style="fill:#ffb02d; stroke:none;" d="M138 676L139 677L138 676z"/>
<path style="fill:#ff7f62; stroke:none;" d="M626 677L627 678L626 677z"/>
<path style="fill:#ffb02d; stroke:none;" d="M143 680L144 681L143 680M621 681L622 682L621 681M148 684L149 685L148 684M616 685L617 686L616 685M612 688L613 689L612 688M160 693L161 694L160 693M604 694L605 695L604 694z"/>
<path style="fill:#ff7f62; stroke:none;" d="M586 706L587 707L586 706M181 707L182 708L181 707z"/>
<path style="fill:#ffb02d; stroke:none;" d="M571 715L572 716L571 715z"/>
<path style="fill:#ff7f62; stroke:none;" d="M198 717L199 718L198 717z"/>
<path style="fill:#ffb02d; stroke:none;" d="M560 721L561 722L560 721M558 722L559 723L558 722z"/>
<path style="fill:#ff7f62; stroke:none;" d="M552 725L553 726L552 725M550 726L551 727L550 726M548 727L549 728L548 727z"/>
<path style="fill:#ffb02d; stroke:none;" d="M546 728L547 729L546 728M226 731L227 732L226 731M535 733L536 734L535 733z"/>
<path style="fill:#ff7f62; stroke:none;" d="M240 737L241 738L240 737M515 741L516 742L515 741M256 743L257 744L256 743z"/>
<path style="fill:#ffb02d; stroke:none;" d="M265 746L266 747L265 746M268 747L269 748L268 747M494 748L495 749L494 748M278 750L279 751L278 750z"/>
<path style="fill:#ff7f62; stroke:none;" d="M480 752L481 753L480 752z"/>
<path style="fill:#ffb02d; stroke:none;" d="M472 754L473 755L472 754M307 757L308 758L307 757z"/>
<path style="fill:#ff7f62; stroke:none;" d="M331 761L332 762L331 761M339 762L340 763L339 762z"/>
<path style="fill:#ffb02d; stroke:none;" d="M349 763L350 764L349 763z"/>
</svg>
