<?xml version="1.0" standalone="yes"?>
<svg xmlns="http://www.w3.org/2000/svg" width="1954" height="1954">
<path style="fill:#010101; stroke:none;" d="M0 0L0 1954L943 1954L943 1953C890.192 1953 836.763 1945.35 785 1935C638.332 1905.67 499.306 1842.19 381 1750.65C250.062 1649.34 149.54 1517.52 81.6944 1367C21.8789 1234.3 -8.04388 1079.36 1.91049 934C8.70953 834.715 24.61 737.943 59.0532 644C167.624 347.877 418.343 116.566 723 34.1512C1105.64 -69.3586 1526.4 76.2004 1762.12 396C1829.7 487.69 1880.99 589.905 1913.72 699C1937.07 776.833 1953 860.589 1953 942L1954 942L1954 0L0 0z"/>
<path style="fill:#016fc9; stroke:none;" d="M937 1.42444C912.64 4.62256 887.535 4.5376 863 7.16589C815.528 12.2513 768.07 21.6885 722 34.1512C512.44 90.8411 325.127 218.357 194.895 392C17.0556 629.119 -42.3465 941.869 32.8843 1228C58.9343 1327.08 101.243 1421.91 156.692 1508C228.538 1619.55 323.562 1714.35 433 1788.97C520.996 1848.97 621.04 1894.04 724 1921.12C848.769 1953.92 979.177 1962.53 1107 1945.72C1428.5 1903.44 1715.43 1696.06 1856.74 1404C1916.78 1279.91 1947.95 1145.28 1953.96 1008C1965.87 736.069 1851.13 460.576 1655 273.039C1541.62 164.628 1404.11 85.3147 1254 40.28C1179.01 17.7805 1101.06 5.37903 1023 1.96069C995.234 0.744751 964.658 -2.20667 937 1.42444z"/>
<path style="fill:#0101ff; stroke:none;" d="M1136 13L1137 14L1136 13M812 14L813 15L812 14M1169 19L1170 20L1169 19M1174 20L1175 21L1174 20M1188 23L1189 24L1188 23M1197 25L1198 26L1197 25M1233 34L1234 35L1233 34M1254 40L1255 41L1254 40M1264 43L1265 44L1264 43M1289 51L1290 52L1289 51M1309 58L1310 59L1309 58M1325 64L1326 65L1325 64M1338 69L1339 70L1338 69M594 78L595 79L594 78M1369 82L1370 83L1369 82M578 85L579 86L578 85M532 107L533 108L532 107M1437 115L1438 116L1437 115M515 116L516 117L515 116M1448 121L1449 122L1448 121M504 122L505 123L504 122M483 134L484 135L483 134M1481 140L1482 141L1481 140M419 175L420 176L419 175M409 182L410 183L409 182z"/>
<path style="fill:#569fdb; stroke:none;" d="M1100.67 190.333L1101.33 190.667L1100.67 190.333z"/>
<path style="fill:#ffffff; stroke:none;" d="M1052 692C1060.79 698.245 1066.9 708.882 1072.4 718C1087.76 743.471 1096 770.239 1096 800C1096 811.417 1095.97 822.64 1094.83 834C1094.18 840.554 1092.62 847.969 1096.23 853.985C1102.7 864.776 1124.46 871.308 1135 878.333C1158.94 894.295 1180.36 913.762 1198.58 936C1283.72 1039.92 1281.18 1187.47 1198.79 1292C1146.7 1358.08 1071.69 1390.42 989 1394.04C971.672 1394.8 954.391 1395 937 1395C932.954 1395 919.877 1392.8 922.052 1400.02C926.122 1413.52 938.738 1427.65 946.86 1439C968.691 1469.52 992.945 1498.04 1020 1524.04C1055.15 1557.82 1091.98 1589.74 1134 1614.8C1149.77 1624.2 1169.35 1636.99 1188 1638.83C1202.23 1640.23 1217.06 1631.91 1230 1627.05C1267.59 1612.94 1303.04 1593.68 1337 1572.42C1490.26 1476.47 1590.71 1307.12 1607.83 1128C1631.63 878.896 1490.58 634.793 1263 530.309C1203.33 502.914 1140.81 487.962 1076 479.424C1058.94 477.176 1041.18 476.436 1024 476.015C1018.22 475.873 1007.81 477.414 1003.95 471.861C1000.42 466.788 1006.99 457.493 1009.25 453C1018.16 435.298 1027.49 417.8 1036.24 400C1059.1 353.5 1076.72 304.054 1089.88 254C1095.15 233.978 1102.11 211.753 1103 191C1096.25 192.064 1092.61 198.98 1088.6 204C1079.27 215.68 1070.05 227.437 1060.58 239C1024.42 283.105 985.547 324.931 945 364.996C865.429 443.621 775.488 511.797 686 578.626C659.298 598.567 632.14 617.949 605 637.291C588.481 649.063 569.78 659.762 556.174 675C542.676 690.116 534.593 710.235 525.219 728C510.015 756.814 494.577 785.618 478.576 814C445.222 873.16 412.048 932.444 375.95 990C367.57 1003.36 359.217 1016.73 350.692 1030C348.737 1033.04 342.147 1041.42 346.604 1044.81C350.126 1047.48 358.179 1044.03 362 1043.21C377.037 1039.96 392.065 1036.31 407 1032.63C466.911 1017.84 527.13 1004.34 587 989.373C698.925 961.392 810.845 932.428 924 909.8C948.969 904.807 973.943 899.942 999 895.424C1019.89 891.657 1040.41 888.409 1053.84 870C1081.31 832.345 1077.57 772.888 1066.27 730C1062.86 717.087 1054.29 704.87 1052 692z"/>
<path style="fill:#569fdb; stroke:none;" d="M1096 194L1097 195L1096 194M1095 195L1096 196L1095 195M1094 196L1095 197L1094 196M1102.33 196.667L1102.67 197.333L1102.33 196.667z"/>
<path style="fill:#0101ff; stroke:none;" d="M386 199L387 200L386 199z"/>
<path style="fill:#569fdb; stroke:none;" d="M1092 199L1093 200L1092 199M1091 200L1092 201L1091 200M1090 201L1091 202L1090 201M1101 201L1101 204L1102 204L1101 201M1088 204L1089 205L1088 204M1087 205L1088 206L1087 205M1086 206L1087 207L1086 206M1100 206L1100 209L1101 209L1100 206z"/>
<path style="fill:#0101ff; stroke:none;" d="M373 209L374 210L373 209z"/>
<path style="fill:#569fdb; stroke:none;" d="M1084 209L1085 210L1084 209M1083 210L1084 211L1083 210M1099 211L1099 214L1100 214L1099 211M1081 213L1082 214L1081 213M1080 214L1081 215L1080 214z"/>
<path style="fill:#0101ff; stroke:none;" d="M1587 214L1588 215L1587 214z"/>
<path style="fill:#569fdb; stroke:none;" d="M1079 215L1080 216L1079 215M1098 216L1098 219L1099 219L1098 216M1077 218L1078 219L1077 218M1076 219L1077 220L1076 219M1075 220L1076 221L1075 220M1097 221L1097 224L1098 224L1097 221M1073 223L1074 224L1073 223M1072 224L1073 225L1072 224M1071 225L1072 226L1071 225M1096.33 226.667L1096.67 227.333L1096.33 226.667M1069 228L1070 229L1069 228M1068 229L1069 230L1068 229M1067 230L1068 231L1067 230M1095.33 231.667L1095.67 232.333L1095.33 231.667z"/>
<path style="fill:#0101ff; stroke:none;" d="M345 232L346 233L345 232z"/>
<path style="fill:#569fdb; stroke:none;" d="M1064 234L1065 235L1064 234M1063 235L1064 236L1063 235M1094.33 235.667L1094.67 236.333L1094.33 235.667M1062 236L1063 237L1062 236M1060 239L1061 240L1060 239M1093.33 239.667L1093.67 240.333L1093.33 239.667M1059 240L1060 241L1059 240M1058 241L1059 242L1058 241M1057 242L1058 243L1057 242M1092.33 244.667L1092.67 245.333L1092.33 244.667z"/>
<path style="fill:#0101ff; stroke:none;" d="M330 245L331 246L330 245z"/>
<path style="fill:#569fdb; stroke:none;" d="M1055 245L1056 246L1055 245M1054 246L1055 247L1054 246M1053 247L1054 248L1053 247M1091 248L1092 249L1091 248M1050 251L1051 252L1050 251M1090.33 251.667L1090.67 252.333L1090.33 251.667M1049 252L1050 253L1049 252z"/>
<path style="fill:#0101ff; stroke:none;" d="M321 253L322 254L321 253z"/>
<path style="fill:#569fdb; stroke:none;" d="M1048 253L1049 254L1048 253M1047 254L1048 255L1047 254M1089.33 255.667L1089.67 256.333L1089.33 255.667M1044 258L1045 259L1044 258M1043 259L1044 260L1043 259M1088.33 259.667L1088.67 260.333L1088.33 259.667M1042 260L1043 261L1042 260M1087.33 263.667L1087.67 264.333L1087.33 263.667M1039 264L1040 265L1039 264M1038 265L1039 266L1038 265M1037 266L1038 267L1037 266M1086.33 266.667L1086.67 267.333L1086.33 266.667M1036 267L1037 268L1036 267z"/>
<path style="fill:#0101ff; stroke:none;" d="M1649 268L1650 269L1649 268z"/>
<path style="fill:#569fdb; stroke:none;" d="M1085.33 270.667L1085.67 271.333L1085.33 270.667M1032 272L1033 273L1032 272M1031 273L1032 274L1031 273M1030 274L1031 275L1030 274M1084 274L1085 275L1084 274M1029 275L1030 276L1029 275M1083.33 277.667L1083.67 278.333L1083.33 277.667M1025 280L1026 281L1025 280M1082.33 280.667L1082.67 281.333L1082.33 280.667M1024 281L1025 282L1024 281M1023 282L1024 283L1023 282M1022 283L1023 284L1022 283M1021 284L1022 285L1021 284M1081 284L1082 285L1081 284M1080.33 287.667L1080.67 288.333L1080.33 287.667M1017 289L1018 290L1017 289M1016 290L1017 291L1016 290M1079.33 290.667L1079.67 291.333L1079.33 290.667M1015 291L1016 292L1015 291M1014 292L1015 293L1014 292M1013 293L1014 294L1013 293M1078.33 293.667L1078.67 294.333L1078.33 293.667M1077.33 296.667L1077.67 297.333L1077.33 296.667M1008 299L1009 300L1008 299M1076.33 299.667L1076.67 300.333L1076.33 299.667M1007 300L1008 301L1007 300M1006 301L1007 302L1006 301M1005 302L1006 303L1005 302M1004 303L1005 304L1004 303M1075 303L1076 304L1075 303M1003 304L1004 305L1003 304M1002 305L1003 306L1002 305M1074.33 305.667L1074.67 306.333L1074.33 305.667z"/>
<path style="fill:#0101ff; stroke:none;" d="M265 308L266 309L265 308z"/>
<path style="fill:#569fdb; stroke:none;" d="M1073.33 308.667L1073.67 309.333L1073.33 308.667M1072.33 311.667L1072.67 312.333L1072.33 311.667M996 312L997 313L996 312M995 313L996 314L995 313M994 314L995 315L994 314M1071.33 314.667L1071.67 315.333L1071.33 314.667M993 315L994 316L993 315M992 316L993 317L992 316M991 317L992 318L991 317M1070 317L1071 318L1070 317M990 318L991 319L990 318M989 319L990 320L989 319M988 320L989 321L988 320M1069 320L1070 321L1069 320M1068 323L1069 324L1068 323M1067.33 325.667L1067.67 326.333L1067.33 325.667M1066 328L1067 329L1066 328z"/>
<path style="fill:#0101ff; stroke:none;" d="M245 330L246 331L245 330z"/>
<path style="fill:#569fdb; stroke:none;" d="M978 331L979 332L978 331M1065 331L1066 332L1065 331M977 332L978 333L977 332M976 333L977 334L976 333M1064.33 333.667L1064.67 334.333L1064.33 333.667M975 334L976 335L975 334M974 335L975 336L974 335M973 336L974 337L973 336M1063 336L1064 337L1063 336M972 337L973 338L972 337M971 338L972 339L971 338M1062.33 338.667L1062.67 339.333L1062.33 338.667M970 339L971 340L970 339M969 340L970 341L969 340M968 341L969 342L968 341M1061 341L1062 342L1061 341M967 342L968 343L967 342M966 343L967 344L966 343M965 344L966 345L965 344M1060 344L1061 345L1060 344z"/>
<path style="fill:#0101ff; stroke:none;" d="M232 345L233 346L232 345z"/>
<path style="fill:#569fdb; stroke:none;" d="M964 345L965 346L964 345M963 346L964 347L963 346M1059 346L1060 347L1059 346M962 347L963 348L962 347M961 348L962 349L961 348M960 349L961 350L960 349M1058 349L1059 350L1058 349M959 350L960 351L959 350M958 351L959 352L958 351M1057 351L1058 352L1057 351M957 352L958 353L957 352M956 353L957 354L956 353M1056.33 353.667L1056.67 354.333L1056.33 353.667M955 354L956 355L955 354M954 355L955 356L954 355M953 356L954 357L953 356M1055 356L1056 357L1055 356M952 357L953 358L952 357M951 358L952 359L951 358M1054.33 358.667L1054.67 359.333L1054.33 358.667M950 359L951 360L950 359M949 360L950 361L949 360M948 361L949 362L948 361M1053 361L1054 362L1053 361M947 362L948 363L947 362M946 363L947 364L946 363M1052 363L1053 364L1052 363M945 364L946 365L945 364M944 365L945 366L944 365M1051.33 365.667L1051.67 366.333L1051.33 365.667M943 366L944 367L943 366M942 367L943 368L942 367M941 368L942 369L941 368M1050 368L1051 369L1050 368M940 369L941 370L940 369M939 370L940 371L939 370M1049 370L1050 371L1049 370M1048.33 372.667L1048.67 373.333L1048.33 372.667z"/>
<path style="fill:#0101ff; stroke:none;" d="M1744 372L1745 373L1744 372M209 373L210 374L209 373z"/>
<path style="fill:#569fdb; stroke:none;" d="M1047 375L1048 376L1047 375M1046 377L1047 378L1046 377M1045 379L1046 380L1045 379M927 381L928 382L927 381M1044.33 381.667L1044.67 382.333L1044.33 381.667M926 382L927 383L926 382M925 383L926 384L925 383M924 384L925 385L924 384M1043 384L1044 385L1043 384M923 385L924 386L923 385z"/>
<path style="fill:#0101ff; stroke:none;" d="M1754 385L1755 386L1754 385M199 386L200 387L199 386z"/>
<path style="fill:#569fdb; stroke:none;" d="M922 386L923 387L922 386M1042 386L1043 387L1042 386M921 387L922 388L921 387M920 388L921 389L920 388M1041 388L1042 389L1041 388M919 389L920 390L919 389M1040 390L1041 391L1040 390M1039.33 392.667L1039.67 393.333L1039.33 392.667M912 395L913 396L912 395M1038 395L1039 396L1038 395M911 396L912 397L911 396M910 397L911 398L910 397M1037 397L1038 398L1037 397z"/>
<path style="fill:#0101ff; stroke:none;" d="M190 398L191 399L190 398z"/>
<path style="fill:#569fdb; stroke:none;" d="M909 398L910 399L909 398M908 399L909 400L908 399M1036 399L1037 400L1036 399M907 400L908 401L907 400M906 401L907 402L906 401M1035 401L1036 402L1035 401M1034 403L1035 404L1034 403M901 405L902 406L901 405M1033 405L1034 406L1033 405M900 406L901 407L900 406M899 407L900 408L899 407M1032 407L1033 408L1032 407M898 408L899 409L898 408z"/>
<path style="fill:#0101ff; stroke:none;" d="M182 409L183 410L182 409z"/>
<path style="fill:#569fdb; stroke:none;" d="M897 409L898 410L897 409M1031 409L1032 410L1031 409M896 410L897 411L896 410M1030 411L1031 412L1030 411M1029 413L1030 414L1029 413M891 414L892 415L891 414M890 415L891 416L890 415M1028 415L1029 416L1028 415M889 416L890 417L889 416M888 417L889 418L888 417M1027 417L1028 418L1027 417M887 418L888 419L887 418M1026 419L1027 420L1026 419M883 421L884 422L883 421M1025 421L1026 422L1025 421M882 422L883 423L882 422M881 423L882 424L881 423M1024 423L1025 424L1024 423M880 424L881 425L880 424M879 425L880 426L879 425M1023 425L1024 426L1023 425M1022 427L1023 428L1022 427M875 428L876 429L875 428M874 429L875 430L874 429M1021 429L1022 430L1021 429M873 430L874 431L873 430M872 431L873 432L872 431M1020 431L1021 432L1020 431M1019 433L1020 434L1019 433M868 434L869 435L868 434M867 435L868 436L867 435M1018 435L1019 436L1018 435M866 436L867 437L866 436M865 437L866 438L865 437M1017 437L1018 438L1017 437M1016 439L1017 440L1016 439M861 440L862 441L861 440M860 441L861 442L860 441M1015 441L1016 442L1015 441M859 442L860 443L859 442M858 443L859 444L858 443M1014 443L1015 444L1014 443z"/>
<path style="fill:#0101ff; stroke:none;" d="M1795 443L1796 444L1795 443z"/>
<path style="fill:#569fdb; stroke:none;" d="M1013 445L1014 446L1013 445M854 446L855 447L854 446M1012 446L1013 447L1012 446z"/>
<path style="fill:#0101ff; stroke:none;" d="M1797 446L1798 447L1797 446z"/>
<path style="fill:#569fdb; stroke:none;" d="M853 447L854 448L853 447M852 448L853 449L852 448M1011 448L1012 449L1011 448M1010 450L1011 451L1010 450M848 451L849 452L848 451M847 452L848 453L847 452M1009 452L1010 453L1009 452M846 453L847 454L846 453M1008 454L1009 455L1008 454M842 456L843 457L842 456M1007 456L1008 457L1007 456M841 457L842 458L841 457z"/>
<path style="fill:#0101ff; stroke:none;" d="M1804 457L1805 458L1804 457z"/>
<path style="fill:#569fdb; stroke:none;" d="M840 458L841 459L840 458M1006 458L1007 459L1006 458M1005 460L1006 461L1005 460M836 461L837 462L836 461M835 462L836 463L835 462M1004 462L1005 463L1004 462M834 463L835 464L834 463M1003 465L1004 466L1003 465z"/>
<path style="fill:#0101ff; stroke:none;" d="M1809 465L1810 466L1809 465z"/>
<path style="fill:#569fdb; stroke:none;" d="M830 466L831 467L830 466M829 467L830 468L829 467M828 468L829 469L828 468M1002 469L1003 470L1002 469M825 470L826 471L825 470M824 471L825 472L824 471M823 472L824 473L823 472M1003 472L1004 473L1003 472M1004 473L1005 474L1004 473M1006.67 474.333L1007.33 474.667L1006.67 474.333M819 475L820 476L819 475M1011 475L1011 476L1016 476L1011 475M818 476L819 477L818 476M1029 476L1029 477L1043 477L1029 476M817 477L818 478L817 477M1052 477L1052 478L1059 478L1052 477M1065 478L1065 479L1071 479L1065 478M814 479L815 480L814 479M1076 479L1076 480L1080 480L1076 479M813 480L814 481L813 480M1085 480L1085 481L1089 481L1085 480M812 481L813 482L812 481M1093 481L1093 482L1097 482L1093 481M1100 482L1100 483L1103 483L1100 482M809 483L810 484L809 483M1107 483L1107 484L1110 484L1107 483M808 484L809 485L808 484M1113 484L1113 485L1116 485L1113 484M807 485L808 486L807 485M1119.67 485.333L1120.33 485.667L1119.67 485.333z"/>
<path style="fill:#0101ff; stroke:none;" d="M1821 485L1822 486L1821 485z"/>
<path style="fill:#569fdb; stroke:none;" d="M1124 486L1124 487L1127 487L1124 486M804 487L805 488L804 487M1129 487L1129 488L1132 488L1129 487M803 488L804 489L803 488M1134 488L1134 489L1137 489L1134 488M802 489L803 490L802 489M1139.67 489.333L1140.33 489.667L1139.67 489.333M1144.67 490.333L1145.33 490.667L1144.67 490.333M799 491L800 492L799 491M1148.67 491.333L1149.33 491.667L1148.67 491.333M798 492L799 493L798 492M1152.67 492.333L1153.33 492.667L1152.67 492.333M797 493L798 494L797 493M1156 493L1156 494L1159 494L1156 493M1161.67 494.333L1162.33 494.667L1161.67 494.333M794 495L795 496L794 495M1164.67 495.333L1165.33 495.667L1164.67 495.333M793 496L794 497L793 496M1168.67 496.333L1169.33 496.667L1168.67 496.333M792 497L793 498L792 497M1172.67 497.333L1173.33 497.667L1172.67 497.333M1175.67 498.333L1176.33 498.667L1175.67 498.333M789 499L790 500L789 499M1179.67 499.333L1180.33 499.667L1179.67 499.333z"/>
<path style="fill:#0101ff; stroke:none;" d="M1829 499L1830 500L1829 499z"/>
<path style="fill:#569fdb; stroke:none;" d="M788 500L789 501L788 500M1183 500L1184 501L1183 500M787 501L788 502L787 501M1186 501L1187 502L1186 501M1189.67 502.333L1190.33 502.667L1189.67 502.333M784 503L785 504L784 503M1192.67 503.333L1193.33 503.667L1192.67 503.333z"/>
<path style="fill:#0101ff; stroke:none;" d="M122 504L123 505L122 504z"/>
<path style="fill:#569fdb; stroke:none;" d="M783 504L784 505L783 504M1196 504L1197 505L1196 504M782 505L783 506L782 505M1199 505L1200 506L1199 505M1202 506L1203 507L1202 506M779 507L780 508L779 507M1205 507L1206 508L1205 507M778 508L779 509L778 508M1208 508L1209 509L1208 508M1211 509L1212 510L1211 509M775 510L776 511L775 510M1213.67 510.333L1214.33 510.667L1213.67 510.333M774 511L775 512L774 511M1216.67 511.333L1217.33 511.667L1216.67 511.333M773 512L774 513L773 512M1219 512L1220 513L1219 512M1222 513L1223 514L1222 513M770 514L771 515L770 514M1224.67 514.333L1225.33 514.667L1224.67 514.333M769 515L770 516L769 515M1227 515L1228 516L1227 515M768 516L769 517L768 516M1229.67 516.333L1230.33 516.667L1229.67 516.333M1232 517L1233 518L1232 517M765 518L766 519L765 518M1235 518L1236 519L1235 518M764 519L765 520L764 519M1237 519L1238 520L1237 519M1240 520L1241 521L1240 520M761 521L762 522L761 521M1242 521L1243 522L1242 521z"/>
<path style="fill:#0101ff; stroke:none;" d="M1841 521L1842 522L1841 521z"/>
<path style="fill:#569fdb; stroke:none;" d="M760 522L761 523L760 522M1244.67 522.333L1245.33 522.667L1244.67 522.333M1247 523L1248 524L1247 523M1249 524L1250 525L1249 524M756 525L757 526L756 525M1251.67 525.333L1252.33 525.667L1251.67 525.333M755 526L756 527L755 526M1254 526L1255 527L1254 526M1256 527L1257 528L1256 527M752 528L753 529L752 528M1258 528L1259 529L1258 528M751 529L752 530L751 529M1261 529L1262 530L1261 529M1263 530L1264 531L1263 530M748 531L749 532L748 531M1265 531L1266 532L1265 531z"/>
<path style="fill:#0101ff; stroke:none;" d="M107 532L108 533L107 532z"/>
<path style="fill:#569fdb; stroke:none;" d="M747 532L748 533L747 532M1267 532L1268 533L1267 532M746 533L747 534L746 533M1269 533L1270 534L1269 533M744 534L745 535L744 534M1271 534L1272 535L1271 534M743 535L744 536L743 535M1273 535L1274 536L1273 535M742 536L743 537L742 536M1275 536L1276 537L1275 536M1277 537L1278 538L1277 537M739 538L740 539L739 538M1279 538L1280 539L1279 538M738 539L739 540L738 539M1281 539L1282 540L1281 539M1283 540L1284 541L1283 540M735 541L736 542L735 541M1285 541L1286 542L1285 541M734 542L735 543L734 542M1287 542L1288 543L1287 542M1289 543L1290 544L1289 543M731 544L732 545L731 544M1291 544L1292 545L1291 544M730 545L731 546L730 545M1293 545L1294 546L1293 545M1295 546L1296 547L1295 546M727 547L728 548L727 547M1297 547L1298 548L1297 547M726 548L727 549L726 548M1299 548L1300 549L1299 548M725 549L726 550L725 549M723 550L724 551L723 550M1302 550L1303 551L1302 550M722 551L723 552L722 551M1304 551L1305 552L1304 551M1306 552L1307 553L1306 552M719 553L720 554L719 553M1308 553L1309 554L1308 553M718 554L719 555L718 554M1309 554L1310 555L1309 554M1311 555L1312 556L1311 555M715 556L716 557L715 556M1313 556L1314 557L1313 556M714 557L715 558L714 557M1315 557L1316 558L1315 557M1316 558L1317 559L1316 558M711 559L712 560L711 559M1318 559L1319 560L1318 559M710 560L711 561L710 560M1320 560L1321 561L1320 560M1321 561L1322 562L1321 561M707 562L708 563L707 562M1323 562L1324 563L1323 562M706 563L707 564L706 563M1325 563L1326 564L1325 563M1326 564L1327 565L1326 564M703 565L704 566L703 565M1328 565L1329 566L1328 565M702 566L703 567L702 566M1331 567L1332 568L1331 567M699 568L700 569L699 568M1333 568L1334 569L1333 568M698 569L699 570L698 569M1334 569L1335 570L1334 569M1336 570L1337 571L1336 570M695 571L696 572L695 571M1337 571L1338 572L1337 571M694 572L695 573L694 572M1339 572L1340 573L1339 572M691 574L692 575L691 574M1342 574L1343 575L1342 574M690 575L691 576L690 575M1345 576L1346 577L1345 576M687 577L688 578L687 577z"/>
<path style="fill:#0101ff; stroke:none;" d="M85 578L86 579L85 578z"/>
<path style="fill:#569fdb; stroke:none;" d="M686 578L687 579L686 578M1348 578L1349 579L1348 578M683 580L684 581L683 580M1351 580L1352 581L1351 580M682 581L683 582L682 581M1352 581L1353 582L1352 581M680 582L681 583L680 582M1354 582L1355 583L1354 582M679 583L680 584L679 583M1355 583L1356 584L1355 583z"/>
<path style="fill:#0101ff; stroke:none;" d="M1871 583L1872 584L1871 583z"/>
<path style="fill:#569fdb; stroke:none;" d="M1357 584L1358 585L1357 584M676 585L677 586L676 585M1358 585L1359 586L1358 585M675 586L676 587L675 586M1361 587L1362 588L1361 587M672 588L673 589L672 588M1362 588L1363 589L1362 588M671 589L672 590L671 589M1364 589L1365 590L1364 589M1365 590L1366 591L1365 590M668 591L669 592L668 591M667 592L668 593L667 592M1368 592L1369 593L1368 592M665 593L666 594L665 593M1369 593L1370 594L1369 593z"/>
<path style="fill:#0101ff; stroke:none;" d="M78 594L79 595L78 594z"/>
<path style="fill:#569fdb; stroke:none;" d="M664 594L665 595L664 594M1372 595L1373 596L1372 595M661 596L662 597L661 596M1373 596L1374 597L1373 596M660 597L661 598L660 597M1376 598L1377 599L1376 598M657 599L658 600L657 599M1377 599L1378 600L1377 599M656 600L657 601L656 600M654 601L655 602L654 601M653 602L654 603L653 602M1381 602L1382 603L1381 602M1382 603L1383 604L1382 603M650 604L651 605L650 604M649 605L650 606L649 605M1385 605L1386 606L1385 605M1386 606L1387 607L1386 606M646 607L647 608L646 607M1387 607L1388 608L1387 607M645 608L646 609L645 608M643 609L644 610L643 609M1390 609L1391 610L1390 609z"/>
<path style="fill:#0101ff; stroke:none;" d="M1882 609L1883 610L1882 609z"/>
<path style="fill:#569fdb; stroke:none;" d="M642 610L643 611L642 610M1391 610L1392 611L1391 610M1392 611L1393 612L1392 611M639 612L640 613L639 612M638 613L639 614L638 613M636 614L637 615L636 614M1396 614L1397 615L1396 614M635 615L636 616L635 615M1397 615L1398 616L1397 615M1398 616L1399 617L1398 616M632 617L633 618L632 617M631 618L632 619L631 618M1402 619L1403 620L1402 619M628 620L629 621L628 620M1403 620L1404 621L1403 620M1404 621L1405 622L1404 621M625 622L626 623L625 622M1405 622L1406 623L1405 622M624 623L625 624L624 623M621 625L622 626L621 625M620 626L621 627L620 626M1410 626L1411 627L1410 626M618 627L619 628L618 627M1411 627L1412 628L1411 627M617 628L618 629L617 628M1412 628L1413 629L1412 628M1413 629L1414 630L1413 629M614 630L615 631L614 630M1414 630L1415 631L1414 630M613 631L614 632L613 631M1415 631L1416 632L1415 631M611 632L612 633L611 632M610 633L611 634L610 633M607 635L608 636L607 635M606 636L607 637L606 636M1421 636L1422 637L1421 636M604 637L605 638L604 637M1422 637L1423 638L1422 637M603 638L604 639L603 638M1423 638L1424 639L1423 638M1424 639L1425 640L1424 639M600 640L601 641L600 640M1425 640L1426 641L1425 640M599 641L600 642L599 641M1426 641L1427 642L1426 641z"/>
<path style="fill:#0101ff; stroke:none;" d="M59 642L60 643L59 642z"/>
<path style="fill:#569fdb; stroke:none;" d="M597 642L598 643L597 642M1427 642L1428 643L1427 642M596 643L597 644L596 643M1428 643L1429 644L1428 643M1429 644L1430 645L1429 644M593 645L594 646L593 645M1430 645L1431 646L1430 645M1431 646L1432 647L1431 646M590 647L591 648L590 647M1432 647L1433 648L1432 647M589 648L590 649L589 648M1433 648L1434 649L1433 648M1434 649L1435 650L1434 649M586 650L587 651L586 650M1435 650L1436 651L1435 650M1436 651L1437 652L1436 651M583 652L584 653L583 652M1437 652L1438 653L1437 652M582 653L583 654L582 653M1438 653L1439 654L1438 653M580 654L581 655L580 654M1439 654L1440 655L1439 654z"/>
<path style="fill:#0101ff; stroke:none;" d="M1899 654L1900 655L1899 654z"/>
<path style="fill:#569fdb; stroke:none;" d="M579 655L580 656L579 655M1440 655L1441 656L1440 655M1441 656L1442 657L1441 656M576 657L577 658L576 657M1442 657L1443 658L1442 657M575 658L576 659L575 658M1443 658L1444 659L1443 658M573 659L574 660L573 659M1444 659L1445 660L1444 659M572 660L573 661L572 660M1445 660L1446 661L1445 660M1446 661L1447 662L1446 661M569 662L570 663L569 662M759 662L760 663L759 662z"/>
<path style="fill:#016fc9; stroke:none;" d="M759.995 662.866C755.094 663.392 749.891 667.989 746 670.721C736.104 677.668 726.446 685.055 717 692.6C678.648 723.236 643.964 758.297 612.586 796C602.232 808.441 592.057 821.026 582.374 834C577.048 841.137 572.706 849.003 585 849.91C647.69 854.535 727.446 824.933 759.138 768C773.065 742.98 772.569 715.442 769.286 688C768.589 682.181 769.323 661.867 759.995 662.866z"/>
<path style="fill:#569fdb; stroke:none;" d="M762.667 662.333L763.333 662.667L762.667 662.333M1447 662L1448 663L1447 662M568 663L569 664L568 663M757 663L758 664L757 663M764 663L765 664L764 663M1448 663L1449 664L1448 663M567 664L568 665L567 664M755 664L756 665L755 664M1449 664L1450 665L1449 664M753 665L754 666L753 665M1450 665L1451 666L1450 665M564 666L565 667L564 666M752 666L753 667L752 666M563 667L564 668L563 667M750 667L751 668L750 667M766.333 667.667L766.667 668.333L766.333 667.667M562 668L563 669L562 668M749 668L750 669L749 668M561 669L562 670L561 669M560 670L561 671L560 670M746 670L747 671L746 670z"/>
<path style="fill:#0101ff; stroke:none;" d="M49 671L50 672L49 671z"/>
<path style="fill:#569fdb; stroke:none;" d="M559 671L560 672L559 671M767.333 671.667L767.667 672.333L767.333 671.667M1455 671L1456 672L1455 671M558 672L559 673L558 672M743 672L744 673L743 672M1456 672L1457 673L1456 672M557 673L558 674L557 673M742 673L743 674L742 673M1457 673L1458 674L1457 673M556 674L557 675L556 674M1458 674L1459 675L1458 674M555 675L556 676L555 675M739 675L740 676L739 675M1459 675L1460 676L1459 675M738 676L739 677L738 676M768 676L768 680L769 680L768 676M1460 676L1461 677L1460 676M736 677L737 678L736 677M553 678L554 679L553 678M735 678L736 679L735 678M552 679L553 680L552 679M551 680L552 681L551 680M732 680L733 681L732 680M1463 680L1464 681L1463 680M731 681L732 682L731 681M1464 681L1465 682L1464 681M550 682L551 683L550 682M730 682L731 683L730 682M1465 682L1466 683L1465 682M549 683L550 684L549 683M728 683L729 684L728 683M1466 683L1467 684L1466 683M727 684L728 685L727 684M1467 684L1468 685L1467 684z"/>
<path style="fill:#0101ff; stroke:none;" d="M1909 684L1910 685L1909 684z"/>
<path style="fill:#569fdb; stroke:none;" d="M726 685L727 686L726 685M769 685L769 690L770 690L769 685M547 686L548 687L547 686M724 686L725 687L724 686M723 687L724 688L723 687M546 688L547 689L546 688M722 688L723 689L722 688M1470 688L1471 689L1470 688M545 689L546 690L545 689M1471 689L1472 690L1471 689M719 690L720 691L719 690M1472 690L1473 691L1472 690M544 691L545 692L544 691M718 691L719 692L718 691M717 692L718 693L717 692M1052 692L1052 696L1053 696L1054 692L1052 692z"/>
<path style="fill:#0101ff; stroke:none;" d="M42 693L43 694L42 693z"/>
<path style="fill:#569fdb; stroke:none;" d="M543 693L544 694L543 693M1054 693L1055 694L1054 693M714 694L715 695L714 694M770 694L770 699L771 699L770 694M1055 694L1056 695L1055 694M1475 694L1476 695L1475 694M542 695L543 696L542 695M713 695L714 696L713 695M1056 695L1057 696L1056 695M1476 695L1477 696L1476 695M712 696L713 697L712 696M1057 696L1058 697L1057 696M1477 696L1478 697L1477 696M541 697L542 698L541 697M1053 697L1054 698L1053 697M1058 697L1059 698L1058 697M708 699L709 700L708 699M1054 699L1055 700L1054 699M1479 699L1480 700L1479 699M539 700L540 701L539 700M707 700L708 701L707 700M1060 700L1061 701L1060 700M1480 700L1481 701L1480 700M706 701L707 702L706 701M1055 701L1056 702L1055 701M1061 701L1062 702L1061 701M1481 701L1482 702L1481 701M538 702L539 703L538 702M1056 703L1057 704L1056 703M537 704L538 705L537 704M702 704L703 705L702 704M771 704L771 708L772 708L771 704M1063 704L1064 705L1063 704M1483 704L1484 705L1483 704M701 705L702 706L701 705M1057 705L1058 706L1057 705M1064 705L1065 706L1064 705M1484 705L1485 706L1484 705M536 706L537 707L536 706M700 706L701 707L700 706M1058 707L1059 708L1058 707M1065 707L1066 708L1065 707M535 708L536 709L535 708M1066 708L1067 709L1066 708M1486 708L1487 709L1486 708M1059.33 709.667L1059.67 710.333L1059.33 709.667M1487 709L1488 710L1487 709z"/>
<path style="fill:#0101ff; stroke:none;" d="M37 710L38 711L37 710z"/>
<path style="fill:#569fdb; stroke:none;" d="M534 710L535 711L534 710M695 710L696 711L695 710M1067 710L1068 711L1067 710M1488 710L1489 711L1488 710M694 711L695 712L694 711M1068 711L1069 712L1068 711M533 712L534 713L533 712M693 712L694 713L693 712M1060 712L1061 713L1060 712M692 713L693 714L692 713M1069 713L1070 714L1069 713M1490 713L1491 714L1490 713M532 714L533 715L532 714M1061.33 714.667L1061.67 715.333L1061.33 714.667M1070 714L1071 715L1070 714M1491 714L1492 715L1491 714M531 715L532 716L531 715M1071 716L1072 717L1071 716M530 717L531 718L530 717M1062 717L1063 718L1062 717M1493 717L1494 718L1493 717M686 718L687 719L686 718M1494 718L1495 719L1494 718M529 719L530 720L529 719M685 719L686 720L685 719M1073 719L1074 720L1073 719M684 720L685 721L684 720M1063 720L1064 721L1063 720M1495 720L1496 721L1495 720M528 721L529 722L528 721M683 721L684 722L683 721M771 721L771 728L772 728L771 721M1074 721L1075 722L1074 721M1496 721L1497 722L1496 721M682 722L683 723L682 722M527 723L528 724L527 723M681 723L682 724L681 723M1064 723L1065 724L1064 723M1076 724L1077 725L1076 724M1498 724L1499 725L1498 724M526 725L527 726L526 725M1499 725L1500 726L1499 725M1065.33 726.667L1065.67 727.333L1065.33 726.667M1077 726L1078 727L1077 726M525 727L526 728L525 727M1078 728L1079 729L1078 728M1501 728L1502 729L1501 728M524 729L525 730L524 729M1066 730L1067 731L1066 730M1079 730L1080 731L1079 730M523 731L524 732L523 731M672 731L673 732L672 731M1503 731L1504 732L1503 731M522 732L523 733L522 732M671 732L672 733L671 732M770 732L770 735L771 735L770 732M1080 732L1081 733L1080 732M1504 732L1505 733L1504 732M670 733L671 734L670 733M1067 733L1067 736L1068 736L1067 733z"/>
<path style="fill:#0101ff; stroke:none;" d="M1923 733L1924 734L1923 733z"/>
<path style="fill:#569fdb; stroke:none;" d="M521 734L522 735L521 734M669 734L670 735L669 734M1081 734L1082 735L1081 734M1505 734L1506 735L1505 734M668 735L669 736L668 735M1506 735L1507 736L1506 735M520 736L521 737L520 736M667 736L668 737L667 736M1082 736L1083 737L1082 736M666 737L667 738L666 737M1507 737L1508 738L1507 737z"/>
<path style="fill:#0101ff; stroke:none;" d="M1924 737L1925 738L1924 737z"/>
<path style="fill:#569fdb; stroke:none;" d="M519 738L520 739L519 738M665 738L666 739L665 738M769 738L769 741L770 741L769 738M1068.33 738.667L1068.67 739.333L1068.33 738.667M1083 738L1084 739L1083 738M1508 738L1509 739L1508 738M664 739L665 740L664 739M518 740L519 741L518 740M663 740L664 741L663 740M1509 740L1510 741L1509 740M662 741L663 742L662 741M1084 741L1085 742L1084 741M1510 741L1511 742L1510 741z"/>
<path style="fill:#0101ff; stroke:none;" d="M1925 741L1926 742L1925 741z"/>
<path style="fill:#569fdb; stroke:none;" d="M517 742L518 743L517 742M661 742L662 743L661 742M1069 742L1069 745L1070 745L1069 742M660 743L661 744L660 743M768.333 743.667L768.667 744.333L768.333 743.667M1085 743L1086 744L1085 743M1511 743L1512 744L1511 743M516 744L517 745L516 744M659 744L660 745L659 744M1512 744L1513 745L1512 744M658 745L659 746L658 745M1086.33 745.667L1086.67 746.333L1086.33 745.667M657 746L658 747L657 746M1513 746L1514 747L1513 746M514 747L515 748L514 747M656 747L657 748L656 747M767 747L768 748L767 747M1514 747L1515 748L1514 747M655 748L656 749L655 748M1070 748L1070 751L1071 751L1070 748M1087 748L1088 749L1087 748M513 749L514 750L513 749M654 749L655 750L654 749M1515 749L1516 750L1515 749M653 750L654 751L653 750M766 750L767 751L766 750M1516 750L1517 751L1516 750M512 751L513 752L512 751M652 751L653 752L652 751M1088 751L1089 752L1088 751M651 752L652 753L651 752M1517 752L1518 753L1517 752M511 753L512 754L511 753M650 753L651 754L650 753M765 753L766 754L765 753M1071 754L1071 758L1072 758L1071 754M1089 754L1090 755L1089 754M510 755L511 756L510 755M1519 755L1520 756L1519 755M764 756L765 757L764 756M509 757L510 758L509 757M1090.33 757.667L1090.67 758.333L1090.33 757.667M1520 757L1521 758L1520 757M763 758L764 759L763 758M1521 758L1522 759L1521 758M507 760L508 761L507 760M1522 760L1523 761L1522 760M762 761L763 762L762 761M1091.33 761.667L1091.67 762.333L1091.33 761.667M506 762L507 763L506 762M642 762L643 763L642 762M1072 762L1072 768L1073 768L1072 762M641 763L642 764L641 763M761 763L762 764L761 763M1524 763L1525 764L1524 763M505 764L506 765L505 764M640 764L641 765L640 764M639 765L640 766L639 765M760 765L761 766L760 765M1092.33 765.667L1092.67 766.333L1092.33 765.667M1525 765L1526 766L1525 765M504 766L505 767L504 766M638 766L639 767L638 766M637 767L638 768L637 767M759 767L760 768L759 767M503 768L504 769L503 768M636 768L637 769L636 768M1527 768L1528 769L1527 768M635 769L636 770L635 769M758 769L759 770L758 769M1093 769L1093 772L1094 772L1093 769M502 770L503 771L502 770M757 770L758 771L757 770M1528 770L1529 771L1528 770M756 772L757 773L756 772M1529 772L1530 773L1529 772M500 773L501 774L500 773M1530 773L1531 774L1530 773M631 774L632 775L631 774M755 774L756 775L755 774M499 775L500 776L499 775M630 775L631 776L630 775M754 775L755 776L754 775M1073 775L1073 795L1074 795L1073 775M1094 775L1094 778L1095 778L1094 775M1531 775L1532 776L1531 775M629 776L630 777L629 776M498 777L499 778L498 777M628 777L629 778L628 777M1532 777L1533 778L1532 777M627 778L628 779L627 778M752 778L753 779L752 778M497 779L498 780L497 779M1533 779L1534 780L1533 779M1534 780L1535 781L1534 780M496 781L497 782L496 781M750 781L751 782L750 781M749 782L750 783L749 782M1095 782L1095 789L1096 789L1095 782M1535 782L1536 783L1535 782M495 783L496 784L495 783M623 783L624 784L623 783M748 783L749 784L748 783M494 784L495 785L494 784M622 784L623 785L622 784M1536 784L1537 785L1536 784M621 785L622 786L621 785M493 786L494 787L493 786M620 786L621 787L620 786M746 786L747 787L746 786M1537 786L1538 787L1537 786M745 787L746 788L745 787M492 788L493 789L492 788M744 788L745 789L744 788M1538 788L1539 789L1538 788M743 789L744 790L743 789M491 790L492 791L491 790M617 790L618 791L617 790M742 790L743 791L742 790M616 791L617 792L616 791M741 791L742 792L741 791M1540 791L1541 792L1540 791z"/>
<path style="fill:#0101ff; stroke:none;" d="M1936 791L1937 792L1936 791z"/>
<path style="fill:#569fdb; stroke:none;" d="M490 792L491 793L490 792M615 792L616 793L615 792M740 792L741 793L740 792M739 793L740 794L739 793M1541 793L1542 794L1541 793M738 794L739 795L738 794M488 795L489 796L488 795M737 795L738 796L737 795M1542 795L1543 796L1542 795M612 796L613 797L612 796M736 796L737 797L736 796M487 797L488 798L487 797M611 797L612 798L611 797M735 797L736 798L735 797M1543 797L1544 798L1543 797M610 798L611 799L610 798M734 798L735 799L734 798M486 799L487 800L486 799M1544 799L1545 800L1544 799M1073 800L1073 817L1074 817L1073 800M485 801L486 802L485 801M730 801L731 802L730 801M1545 801L1546 802L1545 801M607 802L608 803L607 802M729 802L730 803L729 802M484 803L485 804L484 803M606 803L607 804L606 803M728 803L729 804L728 803M1546 803L1547 804L1546 803M483 804L484 805L483 804M605 804L606 805L605 804M725 805L726 806L725 805M1547 805L1548 806L1547 805M482 806L483 807L482 806M724 806L725 807L724 806M603 807L604 808L603 807M723 807L724 808L723 807M1548 807L1549 808L1548 807M481 808L482 809L481 808M602 808L603 809L602 808M721 808L722 809L721 808M601 809L602 810L601 809M720 809L721 810L720 809M1549 809L1550 810L1549 809M480 810L481 811L480 810M719 810L720 811L719 810M717 811L718 812L717 811M1550 811L1551 812L1550 811z"/>
<path style="fill:#0101ff; stroke:none;" d="M14 812L15 813L14 812z"/>
<path style="fill:#569fdb; stroke:none;" d="M479 812L480 813L479 812M716 812L717 813L716 812M598 813L599 814L598 813M714 813L715 814L714 813M1551 813L1552 814L1551 813M478 814L479 815L478 814M597 814L598 815L597 814M713 814L714 815L713 814M477 815L478 816L477 815M1552 815L1553 816L1552 815M710 816L711 817L710 816M476 817L477 818L476 817M708 817L709 818L708 817M1553 817L1554 818L1553 817M594 818L595 819L594 818M707 818L708 819L707 818M475 819L476 820L475 819M593 819L594 820L593 819M705 819L706 820L705 819M1095 819L1095 827L1096 827L1095 819M1554.33 819.667L1554.67 820.333L1554.33 819.667M474 821L475 822L474 821M702 821L703 822L702 821M1072 821L1072 825L1073 825L1072 821M591 822L592 823L591 822M700 822L701 823L700 822M1555 822L1556 823L1555 822M473 823L474 824L473 823M590 823L591 824L590 823M698 823L699 824L698 823M472 824L473 825L472 824M589 824L590 825L589 824M697 824L698 825L697 824M1556 824L1557 825L1556 824M695 825L696 826L695 825M471 826L472 827L471 826M693 826L694 827L693 826M1557 826L1558 827L1557 826M587 827L588 828L587 827M691 827L692 828L691 827M470 828L471 829L470 828M586 828L587 829L586 828M689 828L690 829L689 828M1071.33 828.667L1071.67 829.333L1071.33 828.667M1558 828L1559 829L1558 828M687 829L688 830L687 829M469 830L470 831L469 830M685 830L686 831L685 830M1559.33 830.667L1559.67 831.333L1559.33 830.667M584 831L585 832L584 831M683 831L684 832L683 831M468 832L469 833L468 832M583 832L584 833L583 832M680.667 832.333L681.333 832.667L680.667 832.333M1070.33 832.667L1070.67 833.333L1070.33 832.667M467 833L468 834L467 833M678 833L679 834L678 833M1094 833L1094 837L1095 837L1094 833M1560 833L1561 834L1560 833M676 834L677 835L676 834M466 835L467 836L466 835M581 835L582 836L581 835M673 835L674 836L673 835M1561 835L1562 836L1561 835M580 836L581 837L580 836M670.667 836.333L671.333 836.667L670.667 836.333M1069 836L1070 837L1069 836M465 837L466 838L465 837M668 837L669 838L668 837M1562.33 837.667L1562.67 838.333L1562.33 837.667M665 838L666 839L665 838M464 839L465 840L464 839M578 839L579 840L578 839M662 839L663 840L662 839M1068.33 839.667L1068.67 840.333L1068.33 839.667M577 840L578 841L577 840M659 840L660 841L659 840M1563 840L1564 841L1563 840M655.667 841.333L656.333 841.667L655.667 841.333M1093 841L1093 847L1094 847L1093 841M462 842L463 843L462 842M576 842L577 843L576 842M652 842L653 843L652 842M1067 842L1068 843L1067 842M1564 842L1565 843L1564 842M648.667 843.333L649.333 843.667L648.667 843.333M461 844L462 845L461 844M575 844L575 847L576 847L575 844M643 844L643 845L646 845L643 844M1565.33 844.667L1565.67 845.333L1565.33 844.667M639.667 845.333L640.333 845.667L639.667 845.333M1066 845L1067 846L1066 845M460 846L461 847L460 846M633 846L633 847L636 847L633 846M627 847L627 848L630 848L627 847M1065.33 847.667L1065.67 848.333L1065.33 847.667M1566 847L1567 848L1566 847M459 848L460 849L459 848M577 848L578 849L577 848M619 848L619 849L623 849L619 848M458 849L459 850L458 849M579 849L579 850L582 850L579 849M607 849L607 850L613 850L607 849M1567.33 849.667L1567.67 850.333L1567.33 849.667M1064 850L1065 851L1064 850M1094 850L1095 851L1094 850M457 851L458 852L457 851M1063 852L1064 853L1063 852M1568 852L1569 853L1568 852M456 853L457 854L456 853M1095 853L1096 854L1095 853M1062 854L1063 855L1062 854M1096 854L1097 855L1096 854M1569.33 854.667L1569.67 855.333L1569.33 854.667M455 855L456 856L455 855M1061 856L1062 857L1061 856M1570 857L1571 858L1570 857M453 858L454 859L453 858M1060 858L1061 859L1060 858M1101 859L1102 860L1101 859M452 860L453 861L452 860M1059 860L1060 861L1059 860M1103 860L1104 861L1103 860M1571 860L1572 861L1571 860M1105 861L1106 862L1105 861M451 862L452 863L451 862M1058 862L1059 863L1058 862M1107 862L1108 863L1107 862M1572.33 862.667L1572.67 863.333L1572.33 862.667M1110 863L1111 864L1110 863M450 864L451 865L450 864M1057 864L1058 865L1057 864M1112 864L1113 865L1112 864M449 865L450 866L449 865M1113 865L1114 866L1113 865M1573 865L1574 866L1573 865M1115 866L1116 867L1115 866M448 867L449 868L448 867M1055 867L1056 868L1055 867M1117 867L1118 868L1117 867M1574 868L1575 869L1574 868M447 869L448 870L447 869M1120 869L1121 870L1120 869M1053 870L1054 871L1053 870M1122 870L1123 871L1122 870M1575.33 870.667L1575.67 871.333L1575.33 870.667M446 871L447 872L446 871M1052 871L1053 872L1052 871M1124 871L1125 872L1124 871M445 872L446 873L445 872M1125 872L1126 873L1125 872M1127 873L1128 874L1127 873M1576.33 873.667L1576.67 874.333L1576.33 873.667M444 874L445 875L444 874M1129 874L1130 875L1129 874M1130 875L1131 876L1130 875M443 876L444 877L443 876M1132 876L1133 877L1132 876M1577 876L1578 877L1577 876M1133 877L1134 878L1133 877M442 878L443 879L442 878M1135 878L1136 879L1135 878z"/>
<path style="fill:#0101ff; stroke:none;" d="M5 879L6 880L5 879z"/>
<path style="fill:#569fdb; stroke:none;" d="M441 879L442 880L441 879M1136 879L1137 880L1136 879M1578 879L1579 880L1578 879M1043 880L1044 881L1043 880M1138 880L1139 881L1138 880M440 881L441 882L440 881M1042 881L1043 882L1042 881M1139 881L1140 882L1139 881M1141 882L1142 883L1141 882M1579 882L1580 883L1579 882M439 883L440 884L439 883M1039 883L1040 884L1039 883M1142 883L1143 884L1142 883M1037 884L1038 885L1037 884M1036 885L1037 886L1036 885M1145 885L1146 886L1145 885M1580 885L1581 886L1580 885M437 886L438 887L437 886M1034 886L1035 887L1034 886M1146 886L1147 887L1146 886M1032 887L1033 888L1032 887M436 888L437 889L436 888M1029 888L1030 889L1029 888M1149 888L1150 889L1149 888M1581 888L1582 889L1581 888M1027 889L1028 890L1027 889M1150 889L1151 890L1150 889M435 890L436 891L435 890M1023.67 890.333L1024.33 890.667L1023.67 890.333M1020.67 891.333L1021.33 891.667L1020.67 891.333M1153 891L1154 892L1153 891M1582.33 891.667L1582.67 892.333L1582.33 891.667M1015.67 892.333L1016.33 892.667L1015.67 892.333M1154 892L1155 893L1154 892M433 893L434 894L433 893M1010.67 893.333L1011.33 893.667L1010.67 893.333M1004 894L1004 895L1007 895L1004 894M1583.33 894.667L1583.67 895.333L1583.33 894.667M432 895L433 896L432 895M998 895L998 896L1001 896L998 895M1158 895L1159 896L1158 895M993.667 896.333L994.333 896.667L993.667 896.333M1159 896L1160 897L1159 896M431 897L432 898L431 897M987 897L987 898L990 898L987 897M1160 897L1161 898L1160 897M982.667 898.333L983.333 898.667L982.667 898.333M1584 898L1585 899L1584 898M976 899L976 900L979 900L976 899M429 900L430 901L429 900M971.667 900.333L972.333 900.667L971.667 900.333M1164 900L1165 901L1164 900M965 901L965 902L968 902L965 901M1165 901L1166 902L1165 901M1585 901L1586 902L1585 901M428 902L429 903L428 902M960 902L960 903L963 903L960 902M1166 902L1167 903L1166 902M955 903L955 904L958 904L955 903M1167 903L1168 904L1167 903M427 904L428 905L427 904M950 904L950 905L953 905L950 904M1586.33 904.667L1586.67 905.333L1586.33 904.667M426 905L427 906L426 905M945.667 905.333L946.333 905.667L945.667 905.333M940.667 906.333L941.333 906.667L940.667 906.333M425 907L426 908L425 907M935.667 907.333L936.333 907.667L935.667 907.333M930.667 908.333L931.333 908.667L930.667 908.333M1587 908L1588 909L1587 908M424 909L425 910L424 909M925.667 909.333L926.333 909.667L925.667 909.333M1174 909L1175 910L1174 909M920.667 910.333L921.333 910.667L920.667 910.333M1175 910L1176 911L1175 910M915.667 911.333L916.333 911.667L915.667 911.333M1176 911L1177 912L1176 911M1588.33 911.667L1588.67 912.333L1588.33 911.667M422 912L423 913L422 912M910 912L910 913L913 913L910 912M1177 912L1178 913L1177 912M905 913L905 914L908 914L905 913M1178 913L1179 914L1178 913M421 914L422 915L421 914M901.667 914.333L902.333 914.667L901.667 914.333M1179 914L1180 915L1179 914M896.667 915.333L897.333 915.667L896.667 915.333M1180 915L1181 916L1180 915M1589.33 915.667L1589.67 916.333L1589.33 915.667M420 916L421 917L420 916M891 916L891 917L894 917L891 916M1181 916L1182 917L1181 916M419 917L420 918L419 917M887.667 917.333L888.333 917.667L887.667 917.333M1182 917L1183 918L1182 917M882.667 918.333L883.333 918.667L882.667 918.333M1183 918L1184 919L1183 918M418 919L419 920L418 919M877 919L877 920L880 920L877 919M1184 919L1185 920L1184 919M1590 919L1591 920L1590 919M873.667 920.333L874.333 920.667L873.667 920.333M417 921L418 922L417 921M868.667 921.333L869.333 921.667L868.667 921.333M864.667 922.333L865.333 922.667L864.667 922.333M1591.33 922.667L1591.67 923.333L1591.33 922.667M859.667 923.333L860.333 923.667L859.667 923.333M415 924L416 925L415 924M855.667 924.333L856.333 924.667L855.667 924.333M850 925L850 926L853 926L850 925M1189 925L1190 926L1189 925M414 926L415 927L414 926M846.667 926.333L847.333 926.667L846.667 926.333M1190 926L1191 927L1190 926M1592.33 926.667L1592.67 927.333L1592.33 926.667M842.667 927.333L843.333 927.667L842.667 927.333M1191 927L1192 928L1191 927M837.667 928.333L838.333 928.667L837.667 928.333M1192 928L1193 929L1192 928M412 929L413 930L412 929M833.667 929.333L834.333 929.667L833.667 929.333M1193 929L1194 930L1193 929M828.667 930.333L829.333 930.667L828.667 930.333M1593.33 930.667L1593.67 931.333L1593.33 930.667M411 931L412 932L411 931M824.667 931.333L825.333 931.667L824.667 931.333M819.667 932.333L820.333 932.667L819.667 932.333M410 933L411 934L410 933M815.667 933.333L816.333 933.667L815.667 933.333M1196 933L1197 934L1196 933M409 934L410 935L409 934M811.667 934.333L812.333 934.667L811.667 934.333M1197 934L1198 935L1197 934M1594.33 934.667L1594.67 935.333L1594.33 934.667M807.667 935.333L808.333 935.667L807.667 935.333M1198 935L1199 936L1198 935M408 936L409 937L408 936M802.667 936.333L803.333 936.667L802.667 936.333M798.667 937.333L799.333 937.667L798.667 937.333M407 938L408 939L407 938M794.667 938.333L795.333 938.667L794.667 938.333M1200 938L1201 939L1200 938M406 939L407 940L406 939M790.667 939.333L791.333 939.667L790.667 939.333M1201 939L1202 940L1201 939M1595.33 939.667L1595.67 940.333L1595.33 939.667M785.667 940.333L786.333 940.667L785.667 940.333M1202 940L1203 941L1202 940M405 941L406 942L405 941M781.667 941.333L782.333 941.667L781.667 941.333M777.667 942.333L778.333 942.667L777.667 942.333z"/>
<path style="fill:#0101ff; stroke:none;" d="M1953 942L1954 943L1953 942z"/>
<path style="fill:#569fdb; stroke:none;" d="M404 943L405 944L404 943M772 943L772 944L775 944L772 943M1204 943L1205 944L1204 943M1596.33 943.667L1596.67 944.333L1596.33 943.667M403 944L404 945L403 944M768.667 944.333L769.333 944.667L768.667 944.333M1205 944L1206 945L1205 944M764.667 945.333L765.333 945.667L764.667 945.333M402 946L403 947L402 946M760.667 946.333L761.333 946.667L760.667 946.333M756.667 947.333L757.333 947.667L756.667 947.333M1207 947L1208 948L1207 947M401 948L402 949L401 948M752.667 948.333L753.333 948.667L752.667 948.333M1208 948L1209 949L1208 948M1597.33 948.667L1597.67 949.333L1597.33 948.667M400 949L401 950L400 949M748.667 949.333L749.333 949.667L748.667 949.333M744.667 950.333L745.333 950.667L744.667 950.333M399 951L400 952L399 951M739 951L739 952L742 952L739 951M1210 951L1211 952L1210 951M735.667 952.333L736.333 952.667L735.667 952.333M1598 952L1598 955L1599 955L1598 952M398 953L399 954L398 953M731.667 953.333L732.333 953.667L731.667 953.333M397 954L398 955L397 954M727.667 954.333L728.333 954.667L727.667 954.333M1212 954L1213 955L1212 954M723.667 955.333L724.333 955.667L723.667 955.333M1213 955L1214 956L1213 955M396 956L397 957L396 956M719.667 956.333L720.333 956.667L719.667 956.333M715.667 957.333L716.333 957.667L715.667 957.333M1214 957L1215 958L1214 957M1599 957L1599 960L1600 960L1599 957M395 958L396 959L395 958M711.667 958.333L712.333 958.667L711.667 958.333M1215 958L1216 959L1215 958M394 959L395 960L394 959M707.667 959.333L708.333 959.667L707.667 959.333M703.667 960.333L704.333 960.667L703.667 960.333M1216 960L1217 961L1216 960M393 961L394 962L393 961M699.667 961.333L700.333 961.667L699.667 961.333M695.667 962.333L696.333 962.667L695.667 962.333M1600 962L1600 965L1601 965L1600 962M392 963L393 964L392 963M691.667 963.333L692.333 963.667L691.667 963.333M1218 963L1219 964L1218 963M391 964L392 965L391 964M687.667 964.333L688.333 964.667L687.667 964.333M683.667 965.333L684.333 965.667L683.667 965.333M390 966L391 967L390 966M679.667 966.333L680.333 966.667L679.667 966.333M1220 966L1221 967L1220 966M675 967L676 968L675 967M671 968L672 969L671 968M1221 968L1222 969L1221 968M1601 968L1601 971L1602 971L1601 968M388 969L389 970L388 969M667.667 969.333L668.333 969.667L667.667 969.333M663.667 970.333L664.333 970.667L663.667 970.333M387 971L388 972L387 971M659.667 971.333L660.333 971.667L659.667 971.333M1223 971L1224 972L1223 971M655.667 972.333L656.333 972.667L655.667 972.333M651.667 973.333L652.333 973.667L651.667 973.333M1224 973L1225 974L1224 973M385 974L386 975L385 974M647.667 974.333L648.333 974.667L647.667 974.333M1602 974L1602 977L1603 977L1602 974M643.667 975.333L644.333 975.667L643.667 975.333M1225 975L1226 976L1225 975M384 976L385 977L384 976M639.667 976.333L640.333 976.667L639.667 976.333M1226 976L1227 977L1226 976M383 977L384 978L383 977M635.667 977.333L636.333 977.667L635.667 977.333M631.667 978.333L632.333 978.667L631.667 978.333M1227 978L1228 979L1227 978M382 979L383 980L382 979M627.667 979.333L628.333 979.667L627.667 979.333M623.667 980.333L624.333 980.667L623.667 980.333M1228 980L1229 981L1228 980M1603 980L1603 983L1604 983L1603 980M381 981L382 982L381 981M618.667 981.333L619.333 981.667L618.667 981.333M380 982L381 983L380 982M614 982L614 983L617 983L614 982M1229 982L1230 983L1229 982M610.667 983.333L611.333 983.667L610.667 983.333M379 984L380 985L379 984M606.667 984.333L607.333 984.667L606.667 984.333M1230 984L1231 985L1230 984M602.667 985.333L603.333 985.667L602.667 985.333M598.667 986.333L599.333 986.667L598.667 986.333M1231 986L1232 987L1231 986M1604 986L1604 990L1605 990L1604 986M377 987L378 988L377 987M594.667 987.333L595.333 987.667L594.667 987.333M590.667 988.333L591.333 988.667L590.667 988.333M1232 988L1233 989L1232 988M376 989L377 990L376 989M586.667 989.333L587.333 989.667L586.667 989.333M375 990L376 991L375 990M582.667 990.333L583.333 990.667L582.667 990.333M1233 990L1234 991L1233 990M578.667 991.333L579.333 991.667L578.667 991.333M374 992L375 993L374 992M574.667 992.333L575.333 992.667L574.667 992.333M1234 992L1235 993L1234 992M570.667 993.333L571.333 993.667L570.667 993.333M566.667 994.333L567.333 994.667L566.667 994.333M1235 994L1236 995L1235 994M1605 994L1605 997L1606 997L1605 994M372 995L373 996L372 995M562.667 995.333L563.333 995.667L562.667 995.333M558.667 996.333L559.333 996.667L558.667 996.333M1236 996L1237 997L1236 996M371 997L372 998L371 997M553 997L553 998L556 998L553 997M370 998L371 999L370 998M549.667 998.333L550.333 998.667L549.667 998.333M1237 998L1238 999L1237 998M545.667 999.333L546.333 999.667L545.667 999.333M369 1000L370 1001L369 1000M541.667 1000.33L542.333 1000.67L541.667 1000.33M537.667 1001.33L538.333 1001.67L537.667 1001.33M1238 1001L1239 1002L1238 1001M1606 1001L1606 1006L1607 1006L1606 1001M533.667 1002.33L534.333 1002.67L533.667 1002.33M367 1003L368 1004L367 1003M528 1003L528 1004L531 1004L528 1003M1239 1003L1240 1004L1239 1003M524.667 1004.33L525.333 1004.67L524.667 1004.33M366 1005L367 1006L366 1005M520.667 1005.33L521.333 1005.67L520.667 1005.33M1240 1005L1241 1006L1240 1005M365 1006L366 1007L365 1006M516.667 1006.33L517.333 1006.67L516.667 1006.33M512.667 1007.33L513.333 1007.67L512.667 1007.33M364 1008L365 1009L364 1008M508.667 1008.33L509.333 1008.67L508.667 1008.33M1241 1008L1242 1009L1241 1008M503.667 1009.33L504.333 1009.67L503.667 1009.33M499.667 1010.33L500.333 1010.67L499.667 1010.33M1242 1010L1243 1011L1242 1010M1607 1010L1607 1015L1608 1015L1607 1010M362 1011L363 1012L362 1011M495.667 1011.33L496.333 1011.67L495.667 1011.33M491.667 1012.33L492.333 1012.67L491.667 1012.33z"/>
<path style="fill:#010101; stroke:none;" d="M1953 1012C1953 1086.07 1939.49 1161.61 1920.15 1233C1830.49 1564.05 1564.11 1830.58 1233 1920.15C1161.6 1939.47 1086.09 1953 1012 1953L1012 1954L1954 1954L1954 1285L1954 1092L1954 1037L1953 1012z"/>
<path style="fill:#569fdb; stroke:none;" d="M361 1013L362 1014L361 1013M487.667 1013.33L488.333 1013.67L487.667 1013.33M1243 1013L1244 1014L1243 1013M360 1014L361 1015L360 1014M482 1014L482 1015L485 1015L482 1014M478.667 1015.33L479.333 1015.67L478.667 1015.33M1244 1015L1245 1016L1244 1015M359 1016L360 1017L359 1016M474.667 1016.33L475.333 1016.67L474.667 1016.33M470.667 1017.33L471.333 1017.67L470.667 1017.33M466.667 1018.33L467.333 1018.67L466.667 1018.33M1245 1018L1246 1019L1245 1018M357 1019L358 1020L357 1019M461 1019L461 1020L464 1020L461 1019M457.667 1020.33L458.333 1020.67L457.667 1020.33M453.667 1021.33L454.333 1021.67L453.667 1021.33M1246 1021L1247 1022L1246 1021M1608 1021L1608 1026L1609 1026L1608 1021M355 1022L356 1023L355 1022M449.667 1022.33L450.333 1022.67L449.667 1022.33M445.667 1023.33L446.333 1023.67L445.667 1023.33M1247.33 1023.67L1247.67 1024.33L1247.33 1023.67M354 1024L355 1025L354 1024M440 1024L440 1025L443 1025L440 1024M353 1025L354 1026L353 1025M436.667 1025.33L437.333 1025.67L436.667 1025.33M432.667 1026.33L433.333 1026.67L432.667 1026.33M1248.33 1026.67L1248.67 1027.33L1248.33 1026.67M352 1027L353 1028L352 1027M428.667 1027.33L429.333 1027.67L428.667 1027.33M424.667 1028.33L425.333 1028.67L424.667 1028.33M419.667 1029.33L420.333 1029.67L419.667 1029.33M1249.33 1029.67L1249.67 1030.33L1249.33 1029.67M350 1030L351 1031L350 1030M415.667 1030.33L416.333 1030.67L415.667 1030.33M411.667 1031.33L412.333 1031.67L411.667 1031.33M407.667 1032.33L408.333 1032.67L407.667 1032.33M348 1033L349 1034L348 1033M403.667 1033.33L404.333 1033.67L403.667 1033.33M1250 1033L1251 1034L1250 1033M398.667 1034.33L399.333 1034.67L398.667 1034.33M1609 1034L1609 1042L1610 1042L1609 1034M347 1035L348 1036L347 1035M394.667 1035.33L395.333 1035.67L394.667 1035.33M346 1036L347 1037L346 1036M390.667 1036.33L391.333 1036.67L390.667 1036.33M1251.33 1036.67L1251.67 1037.33L1251.33 1036.67M386.667 1037.33L387.333 1037.67L386.667 1037.33M345 1038L346 1039L345 1038M381.667 1038.33L382.333 1038.67L381.667 1038.33M377.667 1039.33L378.333 1039.67L377.667 1039.33M373.667 1040.33L374.333 1040.67L373.667 1040.33M1252 1040L1253 1041L1252 1040M344 1041L344 1045L345 1045L344 1041M369.667 1041.33L370.333 1041.67L369.667 1041.33M365.667 1042.33L366.333 1042.67L365.667 1042.33M360.667 1043.33L361.333 1043.67L360.667 1043.33M1253.33 1043.67L1253.67 1044.33L1253.33 1043.67M356.667 1044.33L357.333 1044.67L356.667 1044.33M345.667 1045.33L346.333 1045.67L345.667 1045.33M351 1045L351 1046L354 1046L351 1045M1254.33 1047.67L1254.67 1048.33L1254.33 1047.67z"/>
<path style="fill:#0101ff; stroke:none;" d="M1951 1049L1952 1050L1951 1049z"/>
<path style="fill:#569fdb; stroke:none;" d="M1255 1051L1255 1054L1256 1054L1255 1051z"/>
<path style="fill:#0101ff; stroke:none;" d="M3 1052L4 1053L3 1052z"/>
<path style="fill:#569fdb; stroke:none;" d="M811 1054L811 1055L816 1055L811 1054M1610 1054L1610 1091L1611 1091C1611 1080.35 1614.11 1063.8 1610 1054M809 1055L810 1056L809 1055z"/>
<path style="fill:#ffffff; stroke:none;" d="M965 1652C961.715 1641.32 941.516 1629.99 933 1622.73C905.316 1599.12 877.597 1576.06 853.17 1549C783.785 1472.15 736.906 1358.89 744.089 1254C747.867 1198.84 763.696 1149.78 791.424 1102C798.073 1090.54 805.185 1079.36 812 1068C813.447 1065.59 819.066 1058.81 816.153 1056.03C811.762 1051.84 796.584 1060.4 792 1062.2C768.193 1071.56 744.268 1080.58 720 1088.67C633.501 1117.5 544.283 1136.63 454 1149C431.483 1152.09 408.673 1155.43 386 1156.98C380.542 1157.35 365.139 1156.52 362.35 1162.23C360.474 1166.07 363.209 1172.23 364.291 1176C367.562 1187.4 370.916 1198.75 374.667 1210C390.321 1256.96 410.518 1302.53 436 1345C507.199 1463.67 622.965 1563.67 754 1610.31C821.687 1634.4 894.113 1642.99 965 1652z"/>
<path style="fill:#569fdb; stroke:none;" d="M806 1056L807 1057L806 1056M817 1056L818 1057L817 1056M1256.33 1056.67L1256.67 1057.33L1256.33 1056.67M803.667 1057.33L804.333 1057.67L803.667 1057.33M801 1058L802 1059L801 1058M817 1058L818 1059L817 1058M798.667 1059.33L799.333 1059.67L798.667 1059.33M796 1060L797 1061L796 1060M816 1060L817 1061L816 1060M793 1061L794 1062L793 1061M1257.33 1061.67L1257.67 1062.33L1257.33 1061.67M790.667 1062.33L791.333 1062.67L790.667 1062.33M815 1062L816 1063L815 1062M788 1063L789 1064L788 1063M814 1063L815 1064L814 1063M785.667 1064.33L786.333 1064.67L785.667 1064.33M783 1065L784 1066L783 1065M813 1065L814 1066L813 1065M780 1066L781 1067L780 1066M1258 1066L1258 1069L1259 1069L1258 1066M778 1067L779 1068L778 1067M812 1067L813 1068L812 1067M775 1068L776 1069L775 1068M811 1068L812 1069L811 1068M772.667 1069.33L773.333 1069.67L772.667 1069.33M770 1070L771 1071L770 1070M810 1070L811 1071L810 1070M767.667 1071.33L768.333 1071.67L767.667 1071.33M764.667 1072.33L765.333 1072.67L764.667 1072.33M1259 1072L1259 1076L1260 1076L1259 1072M762 1073L763 1074L762 1073M808 1073L809 1074L808 1073M759.667 1074.33L760.333 1074.67L759.667 1074.33M757 1075L758 1076L757 1075M807 1075L808 1076L807 1075M754 1076L755 1077L754 1076M751 1077L752 1078L751 1077M748.667 1078.33L749.333 1078.67L748.667 1078.33M805 1078L806 1079L805 1078M745.667 1079.33L746.333 1079.67L745.667 1079.33M1260 1079L1260 1084L1261 1084L1260 1079M743 1080L744 1081L743 1080M804 1080L805 1081L804 1080M740 1081L741 1082L740 1081M737 1082L738 1083L737 1082M734.667 1083.33L735.333 1083.67L734.667 1083.33M802 1083L803 1084L802 1083M731.667 1084.33L732.333 1084.67L731.667 1084.33M728.667 1085.33L729.333 1085.67L728.667 1085.33M801 1085L802 1086L801 1085M725.667 1086.33L726.333 1086.67L725.667 1086.33M800 1086L801 1087L800 1086M722.667 1087.33L723.333 1087.67L722.667 1087.33M720 1088L721 1089L720 1088M799 1088L800 1089L799 1088M716.667 1089.33L717.333 1089.67L716.667 1089.33M1261 1089L1261 1095L1262 1095L1261 1089M714 1090L715 1091L714 1090M798 1090L799 1091L798 1090M710.667 1091.33L711.333 1091.67L710.667 1091.33M797 1091L798 1092L797 1091M707.667 1092.33L708.333 1092.67L707.667 1092.33M704.667 1093.33L705.333 1093.67L704.667 1093.33M796 1093L797 1094L796 1093M701.667 1094.33L702.333 1094.67L701.667 1094.33M698 1095L699 1096L698 1095M795 1095L796 1096L795 1095M695 1096L696 1097L695 1096M794 1096L795 1097L794 1096M692 1097L693 1098L692 1097M688.667 1098.33L689.333 1098.67L688.667 1098.33M793 1098L794 1099L793 1098M685.667 1099.33L686.333 1099.67L685.667 1099.33M682 1100L683 1101L682 1100M792 1100L793 1101L792 1100M678.667 1101.33L679.333 1101.67L678.667 1101.33M791 1101L792 1102L791 1101M675.667 1102.33L676.333 1102.67L675.667 1102.33M672 1103L673 1104L672 1103M790 1103L791 1104L790 1103M1609 1103L1609 1112L1610 1112L1609 1103M668.667 1104.33L669.333 1104.67L668.667 1104.33M1262 1104L1262 1124L1263 1124L1262 1104M665 1105L666 1106L665 1105M789 1105L790 1106L789 1105M661.667 1106.33L662.333 1106.67L661.667 1106.33M658.667 1107.33L659.333 1107.67L658.667 1107.33M654.667 1108.33L655.333 1108.67L654.667 1108.33M787 1108L788 1109L787 1108z"/>
<path style="fill:#0101ff; stroke:none;" d="M9 1109L10 1110L9 1109z"/>
<path style="fill:#569fdb; stroke:none;" d="M650.667 1109.33L651.333 1109.67L650.667 1109.33M647.667 1110.33L648.333 1110.67L647.667 1110.33M786 1110L787 1111L786 1110M643.667 1111.33L644.333 1111.67L643.667 1111.33M639.667 1112.33L640.333 1112.67L639.667 1112.33M785 1112L786 1113L785 1112M635.667 1113.33L636.333 1113.67L635.667 1113.33M784 1113L785 1114L784 1113M631.667 1114.33L632.333 1114.67L631.667 1114.33M627 1115L627 1116L630 1116L627 1115M783 1115L784 1116L783 1115M623.667 1116.33L624.333 1116.67L623.667 1116.33M619 1117L619 1118L622 1118L619 1117M782 1117L783 1118L782 1117M615.667 1118.33L616.333 1118.67L615.667 1118.33M1608 1118L1608 1125L1609 1125L1608 1118M611.667 1119.33L612.333 1119.67L611.667 1119.33M781 1119L782 1120L781 1119M607.667 1120.33L608.333 1120.67L607.667 1120.33M603.667 1121.33L604.333 1121.67L603.667 1121.33M780 1121L781 1122L780 1121M598 1122L598 1123L601 1123L598 1122z"/>
<path style="fill:#0101ff; stroke:none;" d="M11 1123L12 1124L11 1123z"/>
<path style="fill:#569fdb; stroke:none;" d="M594.667 1123.33L595.333 1123.67L594.667 1123.33M779 1123L780 1124L779 1123M589 1124L589 1125L592 1125L589 1124M778 1124L779 1125L778 1124M585.667 1125.33L586.333 1125.67L585.667 1125.33M581.667 1126.33L582.333 1126.67L581.667 1126.33M777 1126L778 1127L777 1126M576.667 1127.33L577.333 1127.67L576.667 1127.33M571.667 1128.33L572.333 1128.67L571.667 1128.33M776 1128L777 1129L776 1128M566 1129L566 1130L569 1130L566 1129M561 1130L561 1131L564 1131L561 1130M775 1130L776 1131L775 1130M1607 1130L1607 1135L1608 1135L1607 1130M556 1131L556 1132L559 1132L556 1131M551 1132L551 1133L554 1133L551 1132M774.333 1132.67L774.667 1133.33L774.333 1132.67M546 1133L546 1134L549 1134L546 1133M541.667 1134.33L542.333 1134.67L541.667 1134.33M1261 1134L1261 1140L1262 1140L1261 1134M536.667 1135.33L537.333 1135.67L536.667 1135.33M773 1135L774 1136L773 1135M530 1136L530 1137L533 1137L530 1136M524 1137L524 1138L527 1138L524 1137M772 1137L773 1138L772 1137M519.667 1138.33L520.333 1138.67L519.667 1138.33M513 1139L513 1140L516 1140L513 1139M771 1139L772 1140L771 1139M1606 1139L1606 1144L1607 1144L1606 1139M507 1140L507 1141L510 1141L507 1140M501 1141L501 1142L504 1142L501 1141M770 1141L771 1142L770 1141M495 1142L495 1143L498 1143L495 1142M488 1143L488 1144L492 1144L488 1143M769 1143L770 1144L769 1143M482 1144L482 1145L485 1145L482 1144M475 1145L475 1146L478 1146L475 1145M1260 1145L1260 1149L1261 1149L1260 1145M468 1146L468 1147L472 1147L468 1146M768 1146L769 1147L768 1146M461 1147L461 1148L465 1148L461 1147M454 1148L454 1149L458 1149L454 1148M767 1148L768 1149L767 1148M1605 1148L1605 1152L1606 1152L1605 1148M447 1149L447 1150L451 1150L447 1149M439 1150L439 1151L443 1151L439 1150M766.333 1150.67L766.667 1151.33L766.333 1150.67M430 1151L430 1152L434 1152L430 1151M422 1152L422 1153L427 1153L422 1152z"/>
<path style="fill:#0101ff; stroke:none;" d="M1938 1152L1939 1153L1938 1152z"/>
<path style="fill:#569fdb; stroke:none;" d="M414 1153L414 1154L418 1154L414 1153M765 1153L766 1154L765 1153M1259 1153L1259 1156L1260 1156L1259 1153M405 1154L405 1155L410 1155L405 1154M396 1155L396 1156L401 1156L396 1155M1604 1155L1604 1159L1605 1159L1604 1155M386 1156L386 1157L391 1157L386 1156M764 1156L765 1157L764 1156M376 1157L376 1158L381 1158L376 1157M367 1158L367 1159L371 1159L367 1158M763 1158L764 1159L763 1158M364 1159L365 1160L364 1159M1258 1159L1258 1162L1259 1162L1258 1159M362 1160L363 1161L362 1160M361.333 1161.67L361.667 1162.33L361.333 1161.67M762 1161L763 1162L762 1161M1603 1162L1603 1165L1604 1165L1603 1162M361 1164L361 1167L362 1167L361 1164M761 1164L762 1165L761 1164M1257.33 1165.67L1257.67 1166.33L1257.33 1165.67M760.333 1166.67L760.667 1167.33L760.333 1166.67M1602 1168L1602 1171L1603 1171L1602 1168M362.333 1169.67L362.667 1170.33L362.333 1169.67M759.333 1169.67L759.667 1170.33L759.333 1169.67M1256.33 1170.67L1256.67 1171.33L1256.33 1170.67M758.333 1172.67L758.667 1173.33L758.333 1172.67M363.333 1173.67L363.667 1174.33L363.333 1173.67M1255 1174L1255 1177L1256 1177L1255 1174M1601 1174L1601 1177L1602 1177L1601 1174M364.333 1176.67L364.667 1177.33L364.333 1176.67M757 1176L758 1177L757 1176M756.333 1179.67L756.667 1180.33L756.333 1179.67M1254.33 1179.67L1254.67 1180.33L1254.33 1179.67M365.333 1180.67L365.667 1181.33L365.333 1180.67M1600.33 1180.67L1600.67 1181.33L1600.33 1180.67M755.333 1182.67L755.667 1183.33L755.333 1182.67M366.333 1183.67L366.667 1184.33L366.333 1183.67M1253.33 1183.67L1253.67 1184.33L1253.33 1183.67M1599 1185L1599 1188L1600 1188L1599 1185M754.333 1186.67L754.667 1187.33L754.333 1186.67M1252.33 1186.67L1252.67 1187.33L1252.33 1186.67M367 1187L368 1188L367 1187z"/>
<path style="fill:#0101ff; stroke:none;" d="M23 1188L24 1189L23 1188z"/>
<path style="fill:#569fdb; stroke:none;" d="M368.333 1190.67L368.667 1191.33L368.333 1190.67M753.333 1190.67L753.667 1191.33L753.333 1190.67M1251.33 1190.67L1251.67 1191.33L1251.33 1190.67M1598 1190L1598 1193L1599 1193L1598 1190M369.333 1193.67L369.667 1194.33L369.333 1193.67M1250.33 1193.67L1250.67 1194.33L1250.33 1193.67M752.333 1194.67L752.667 1195.33L752.333 1194.67M1597.33 1195.67L1597.67 1196.33L1597.33 1195.67z"/>
<path style="fill:#0101ff; stroke:none;" d="M1929 1196L1930 1197L1929 1196M25 1197L26 1198L25 1197z"/>
<path style="fill:#569fdb; stroke:none;" d="M370 1197L371 1198L370 1197M1249 1197L1250 1198L1249 1197M751 1198L751 1201L752 1201L751 1198M371 1200L372 1201L371 1200M1248 1200L1249 1201L1248 1200M1596.33 1200.67L1596.67 1201.33L1596.33 1200.67M372 1203L373 1204L372 1203M750.333 1203.67L750.667 1204.33L750.333 1203.67M1247 1203L1248 1204L1247 1203M1595.33 1204.67L1595.67 1205.33L1595.33 1204.67M373 1206L374 1207L373 1206M1246 1206L1247 1207L1246 1206M749 1208L749 1211L750 1211L749 1208M1245.33 1208.67L1245.67 1209.33L1245.33 1208.67M1594.33 1208.67L1594.67 1209.33L1594.33 1208.67M374 1209L375 1210L374 1209M1244 1211L1245 1212L1244 1211M375 1212L376 1213L375 1212M748 1213L748 1216L749 1216L748 1213M1593.33 1213.67L1593.67 1214.33L1593.33 1213.67M1243 1214L1244 1215L1243 1214M376 1215L377 1216L376 1215M1242 1216L1243 1217L1242 1216M1592.33 1217.67L1592.67 1218.33L1592.33 1217.67M377 1218L378 1219L377 1218M1241 1219L1242 1220L1241 1219M747 1220L747 1223L748 1223L747 1220M378 1221L379 1222L378 1221M1240 1221L1241 1222L1240 1221M1591 1221L1592 1222L1591 1221M1239 1223L1240 1224L1239 1223M379 1224L380 1225L379 1224M1590.33 1224.67L1590.67 1225.33L1590.33 1224.67M380.333 1226.67L380.667 1227.33L380.333 1226.67M1238 1226L1239 1227L1238 1226M746 1227L746 1231L747 1231L746 1227M1237 1228L1238 1229L1237 1228M1589.33 1228.67L1589.67 1229.33L1589.33 1228.67M381 1229L382 1230L381 1229M1236 1230L1237 1231L1236 1230M382 1232L383 1233L382 1232M1235 1232L1236 1233L1235 1232M1588 1232L1589 1233L1588 1232M1234 1234L1235 1235L1234 1234M383 1235L384 1236L383 1235M1587.33 1235.67L1587.67 1236.33L1587.33 1235.67M745 1236L745 1242L746 1242L745 1236M1233 1236L1234 1237L1233 1236M384.333 1237.67L384.667 1238.33L384.333 1237.67M1232 1238L1233 1239L1232 1238M1586 1239L1587 1240L1586 1239M385 1240L386 1241L385 1240M1231 1240L1232 1241L1231 1240M386.333 1242.67L386.667 1243.33L386.333 1242.67M1230 1242L1231 1243L1230 1242M1585.33 1242.67L1585.67 1243.33L1585.33 1242.67M1229 1244L1230 1245L1229 1244M387 1245L388 1246L387 1245M1584.33 1245.67L1584.67 1246.33L1584.33 1245.67M1228 1246L1229 1247L1228 1246M388 1248L389 1249L388 1248M1227 1248L1228 1249L1227 1248M1226 1249L1227 1250L1226 1249M1583 1249L1584 1250L1583 1249M389 1250L390 1251L389 1250M744 1250L744 1272L745 1272L744 1250M1225 1251L1226 1252L1225 1251M1582 1252L1583 1253L1582 1252M390 1253L391 1254L390 1253M1224 1253L1225 1254L1224 1253M391 1255L392 1256L391 1255M1223 1255L1224 1256L1223 1255M1581.33 1255.67L1581.67 1256.33L1581.33 1255.67M392.333 1257.67L392.667 1258.33L392.333 1257.67M1221 1258L1222 1259L1221 1258M1580 1258L1581 1259L1580 1258M393 1260L394 1261L393 1260M1220 1260L1221 1261L1220 1260M1579 1261L1580 1262L1579 1261M394 1262L395 1263L394 1262M1218 1263L1219 1264L1218 1263z"/>
<path style="fill:#0101ff; stroke:none;" d="M43 1264L44 1265L43 1264z"/>
<path style="fill:#569fdb; stroke:none;" d="M1578 1264L1579 1265L1578 1264M395 1265L396 1266L395 1265M1217 1265L1218 1266L1217 1265M1216 1266L1217 1267L1216 1266M396 1267L397 1268L396 1267M1577 1267L1578 1268L1577 1267M1215 1268L1216 1269L1215 1268M397 1269L398 1270L397 1269M1576 1270L1577 1271L1576 1270M1213 1271L1214 1272L1213 1271M398 1272L399 1273L398 1272M744 1273L744 1287L745 1287L744 1273M1575 1273L1576 1274L1575 1273M399 1274L400 1275L399 1274M1211 1274L1212 1275L1211 1274M1574.33 1275.67L1574.67 1276.33L1574.33 1275.67M400 1276L401 1277L400 1276z"/>
<path style="fill:#0101ff; stroke:none;" d="M1907 1276L1908 1277L1907 1276z"/>
<path style="fill:#569fdb; stroke:none;" d="M1209 1277L1210 1278L1209 1277M401 1278L402 1279L401 1278M1573 1278L1574 1279L1573 1278z"/>
<path style="fill:#0101ff; stroke:none;" d="M1906 1279L1907 1280L1906 1279z"/>
<path style="fill:#569fdb; stroke:none;" d="M1207 1280L1208 1281L1207 1280M402 1281L403 1282L402 1281M1206 1281L1207 1282L1206 1281M1572 1281L1573 1282L1572 1281M403 1283L404 1284L403 1283M1205 1283L1206 1284L1205 1283M1571.33 1283.67L1571.67 1284.33L1571.33 1283.67M1204 1284L1205 1285L1204 1284M404 1285L405 1286L404 1285M1570 1286L1571 1287L1570 1286M405 1287L406 1288L405 1287M1202 1287L1203 1288L1202 1287M1201 1288L1202 1289L1201 1288M406 1289L407 1290L406 1289M1569 1289L1570 1290L1569 1289M407 1291L408 1292L407 1291M1199 1291L1200 1292L1199 1291M1568 1291L1569 1292L1568 1291M1198 1292L1199 1293L1198 1292M408 1293L409 1294L408 1293M1197 1293L1198 1294L1197 1293M745 1294L745 1301L746 1301L745 1294M1567 1294L1568 1295L1567 1294M409 1295L410 1296L409 1295M1195 1296L1196 1297L1195 1296M1566 1296L1567 1297L1566 1296M410 1297L411 1298L410 1297M1194 1297L1195 1298L1194 1297z"/>
<path style="fill:#0101ff; stroke:none;" d="M1900 1297L1901 1298L1900 1297z"/>
<path style="fill:#569fdb; stroke:none;" d="M1193 1298L1194 1299L1193 1298M1565.33 1298.67L1565.67 1299.33L1565.33 1298.67M411 1300L412 1301L411 1300M1564 1301L1565 1302L1564 1301M412 1302L413 1303L412 1302M1190 1302L1191 1303L1190 1302M1189 1303L1190 1304L1189 1303M1563 1303L1564 1304L1563 1303M413 1304L414 1305L413 1304M1188 1304L1189 1305L1188 1304M746 1305L746 1310L747 1310L746 1305M1187 1305L1188 1306L1187 1305M1186 1306L1187 1307L1186 1306M1562 1306L1563 1307L1562 1306M415 1307L416 1308L415 1307M1561 1308L1562 1309L1561 1308M416 1309L417 1310L416 1309M1560 1310L1561 1311L1560 1310M417 1311L418 1312L417 1311M1181 1312L1182 1313L1181 1312M418 1313L419 1314L418 1313M1180 1313L1181 1314L1180 1313M1559 1313L1560 1314L1559 1313M747 1314L747 1318L748 1318L747 1314M1179 1314L1180 1315L1179 1314M419 1315L420 1316L419 1315M1178 1315L1179 1316L1178 1315M1558 1315L1559 1316L1558 1315M1177 1316L1178 1317L1177 1316M420 1317L421 1318L420 1317M1176 1317L1177 1318L1176 1317M1557 1317L1558 1318L1557 1317M1175 1318L1176 1319L1175 1318M421 1319L422 1320L421 1319M1174 1319L1175 1320L1174 1319M1556 1319L1557 1320L1556 1319M1173 1320L1174 1321L1173 1320M422 1321L423 1322L422 1321M748 1321L748 1325L749 1325L748 1321M1172 1321L1173 1322L1172 1321M1555 1321L1556 1322L1555 1321M1171 1322L1172 1323L1171 1322M423 1323L424 1324L423 1323M424 1324L425 1325L424 1324M1554 1324L1555 1325L1554 1324z"/>
<path style="fill:#0101ff; stroke:none;" d="M64 1325L65 1326L64 1325z"/>
<path style="fill:#569fdb; stroke:none;" d="M425 1326L426 1327L425 1326M1553 1326L1554 1327L1553 1326M1165 1327L1166 1328L1165 1327M426 1328L427 1329L426 1328M749 1328L749 1331L750 1331L749 1328M1164 1328L1165 1329L1164 1328M1552 1328L1553 1329L1552 1328M1163 1329L1164 1330L1163 1329M427 1330L428 1331L427 1330M1162 1330L1163 1331L1162 1330M1551 1330L1552 1331L1551 1330M428 1332L429 1333L428 1332M1550 1332L1551 1333L1550 1332M429 1333L430 1334L429 1333M1158 1333L1159 1334L1158 1333M750 1334L750 1337L751 1337L750 1334M1157 1334L1158 1335L1157 1334M1549 1334L1550 1335L1549 1334M430 1335L431 1336L430 1335M1156 1335L1157 1336L1156 1335M1548 1336L1549 1337L1548 1336M431 1337L432 1338L431 1337M1153 1337L1154 1338L1153 1337M1152 1338L1153 1339L1152 1338M1547 1338L1548 1339L1547 1338M1151 1339L1152 1340L1151 1339M433 1340L434 1341L433 1340M751.333 1340.67L751.667 1341.33L751.333 1340.67M1546 1340L1547 1341L1546 1340M1148 1341L1149 1342L1148 1341M434 1342L435 1343L434 1342M1147 1342L1148 1343L1147 1342M1545 1342L1546 1343L1545 1342M435 1344L436 1345L435 1344M1144 1344L1145 1345L1144 1344M1544 1344L1545 1345L1544 1344M436 1345L437 1346L436 1345M752.333 1345.67L752.667 1346.33L752.333 1345.67M1143 1345L1144 1346L1143 1345M1141 1346L1142 1347L1141 1346M1543 1346L1544 1347L1543 1346M437 1347L438 1348L437 1347M1140 1347L1141 1348L1140 1347M1138 1348L1139 1349L1138 1348M1542 1348L1543 1349L1542 1348M1137 1349L1138 1350L1137 1349M439 1350L440 1351L439 1350M753.333 1350.67L753.667 1351.33L753.333 1350.67M1135 1350L1136 1351L1135 1350M1541 1350L1542 1351L1541 1350M1134 1351L1135 1352L1134 1351M1540 1351L1541 1352L1540 1351M440 1352L441 1353L440 1352M1132 1352L1133 1353L1132 1352M1131 1353L1132 1354L1131 1353M1539 1353L1540 1354L1539 1353M754 1354L754 1357L755 1357L754 1354M1129 1354L1130 1355L1129 1354M442 1355L443 1356L442 1355M1127 1355L1128 1356L1127 1355M1538 1355L1539 1356L1538 1355M1126 1356L1127 1357L1126 1356M443 1357L444 1358L443 1357M1124 1357L1125 1358L1124 1357M1537 1357L1538 1358L1537 1357z"/>
<path style="fill:#0101ff; stroke:none;" d="M1877 1357L1878 1358L1877 1357z"/>
<path style="fill:#569fdb; stroke:none;" d="M444 1358L445 1359L444 1358M1122 1358L1123 1359L1122 1358M755.333 1359.67L755.667 1360.33L755.333 1359.67M1120 1359L1121 1360L1120 1359M1536 1359L1537 1360L1536 1359M445 1360L446 1361L445 1360M1119 1360L1120 1361L1119 1360M446 1361L447 1362L446 1361M1117 1361L1118 1362L1117 1361M1535 1361L1536 1362L1535 1361M1115 1362L1116 1363L1115 1362M1534 1362L1535 1363L1534 1362M447 1363L448 1364L447 1363M756.333 1363.67L756.667 1364.33L756.333 1363.67M1113 1363L1114 1364L1113 1363M448 1364L449 1365L448 1364M1111 1364L1112 1365L1111 1364M1533 1364L1534 1365L1533 1364M1109 1365L1110 1366L1109 1365M449 1366L450 1367L449 1366M1107 1366L1108 1367L1107 1366M1532 1366L1533 1367L1532 1366M757.333 1367.67L757.667 1368.33L757.333 1367.67M1105 1367L1106 1368L1105 1367M1103 1368L1104 1369L1103 1368M1531 1368L1532 1369L1531 1368M451 1369L452 1370L451 1369M1100.67 1369.33L1101.33 1369.67L1100.67 1369.33M1530 1369L1531 1370L1530 1369M1098 1370L1099 1371L1098 1370M758.333 1371.67L758.667 1372.33L758.333 1371.67M1096 1371L1097 1372L1096 1371M1529 1371L1530 1372L1529 1371M453 1372L454 1373L453 1372M1093.67 1372.33L1094.33 1372.67L1093.67 1372.33M1091 1373L1092 1374L1091 1373M1528 1373L1529 1374L1528 1373M1088.67 1374.33L1089.33 1374.67L1088.67 1374.33M455 1375L456 1376L455 1375M759.333 1375.67L759.667 1376.33L759.333 1375.67M1086 1375L1087 1376L1086 1375M1527 1375L1528 1376L1527 1375M456 1376L457 1377L456 1376M1083 1376L1084 1377L1083 1376M1526 1376L1527 1377L1526 1376M1080.67 1377.33L1081.33 1377.67L1080.67 1377.33M457 1378L458 1379L457 1378M1077.67 1378.33L1078.33 1378.67L1077.67 1378.33M1525 1378L1526 1379L1525 1378M458 1379L459 1380L458 1379M760 1379L761 1380L760 1379M1074.67 1379.33L1075.33 1379.67L1074.67 1379.33M1071.67 1380.33L1072.33 1380.67L1071.67 1380.33M459 1381L460 1382L459 1381M1068 1381L1069 1382L1068 1381M1523 1381L1524 1382L1523 1381M460 1382L461 1383L460 1382M761.333 1382.67L761.667 1383.33L761.333 1382.67M1064.67 1382.33L1065.33 1382.67L1064.67 1382.33z"/>
<path style="fill:#0101ff; stroke:none;" d="M1866 1382L1867 1383L1866 1382z"/>
<path style="fill:#569fdb; stroke:none;" d="M1061.67 1383.33L1062.33 1383.67L1061.67 1383.33M1522 1383L1523 1384L1522 1383M1057.67 1384.33L1058.33 1384.67L1057.67 1384.33M462 1385L463 1386L462 1385M1053.67 1385.33L1054.33 1385.67L1053.67 1385.33M463 1386L464 1387L463 1386M762 1386L763 1387L762 1386M1048.67 1386.33L1049.33 1386.67L1048.67 1386.33M1520 1386L1521 1387L1520 1386M1044.67 1387.33L1045.33 1387.67L1044.67 1387.33M464 1388L465 1389L464 1388M1039.67 1388.33L1040.33 1388.67L1039.67 1388.33M1519 1388L1520 1389L1519 1388M465 1389L466 1390L465 1389M763.333 1389.67L763.667 1390.33L763.333 1389.67M1033 1389L1033 1390L1036 1390L1033 1389M1518 1389L1519 1390L1518 1389M1027 1390L1027 1391L1030 1391L1027 1390z"/>
<path style="fill:#0101ff; stroke:none;" d="M92 1391L93 1392L92 1391z"/>
<path style="fill:#569fdb; stroke:none;" d="M1019 1391L1019 1392L1023 1392L1019 1391M1517 1391L1518 1392L1517 1391M467 1392L468 1393L467 1392M764.333 1392.67L764.667 1393.33L764.333 1392.67M1010 1392L1010 1393L1015 1393L1010 1392M1516 1392L1517 1393L1516 1392M468 1393L469 1394L468 1393M997 1393L997 1394L1004 1394L997 1393M923 1394L923 1395L985 1395L965 1394L923 1394M1515 1394L1516 1395L1515 1394M765.333 1395.67L765.667 1396.33L765.333 1395.67M921 1395L922 1396L921 1395M470 1396L471 1397L470 1396M471 1397L472 1398L471 1397M1513 1397L1514 1398L1513 1397z"/>
<path style="fill:#0101ff; stroke:none;" d="M1859 1397L1860 1398L1859 1397z"/>
<path style="fill:#569fdb; stroke:none;" d="M766.333 1398.67L766.667 1399.33L766.333 1398.67M921 1399L922 1400L921 1399M473 1400L474 1401L473 1400M1511 1400L1512 1401L1511 1400M474 1401L475 1402L474 1401M767.333 1401.67L767.667 1402.33L767.333 1401.67M922 1401L923 1402L922 1401M923 1403L924 1404L923 1403M1509 1403L1510 1404L1509 1403M476 1404L477 1405L476 1404M768.333 1404.67L768.667 1405.33L768.333 1404.67M924 1404L925 1405L924 1404M477 1405L478 1406L477 1405M925 1406L926 1407L925 1406M1507 1406L1508 1407L1507 1406M769.333 1407.67L769.667 1408.33L769.333 1407.67M926 1408L927 1409L926 1408M480 1409L481 1410L480 1409M927 1409L928 1410L927 1409M1505 1409L1506 1410L1505 1409M481 1410L482 1411L481 1410M770 1410L771 1411L770 1410M1504 1410L1505 1411L1504 1410M928 1411L929 1412L928 1411M1503 1412L1504 1413L1503 1412M771 1413L772 1414L771 1413M1502 1413L1503 1414L1502 1413M484 1414L485 1415L484 1414M930 1414L931 1415L930 1414M485 1415L486 1416L485 1415M772 1416L773 1417L772 1416M931 1416L932 1417L931 1416M1500 1416L1501 1417L1500 1416M932 1417L933 1418L932 1417M773.333 1418.67L773.667 1419.33L773.333 1418.67M488 1419L489 1420L488 1419M933 1419L934 1420L933 1419M1498 1419L1499 1420L1498 1419M489 1420L490 1421L489 1420M934 1420L935 1421L934 1420M1497 1420L1498 1421L1497 1420M490 1421L491 1422L490 1421M774 1421L775 1422L774 1421M935 1422L936 1423L935 1422M775.333 1423.67L775.667 1424.33L775.333 1423.67M1495 1423L1496 1424L1495 1423M1494 1424L1495 1425L1494 1424M493 1425L494 1426L493 1425M937 1425L938 1426L937 1425M494 1426L495 1427L494 1426M776 1426L777 1427L776 1426M1493 1426L1494 1427L1493 1426M495 1427L496 1428L495 1427M1492 1427L1493 1428L1492 1427M496 1428L497 1429L496 1428M777.333 1428.67L777.667 1429.33L777.333 1428.67M939 1428L940 1429L939 1428M1491 1428L1492 1429L1491 1428M940 1429L941 1430L940 1429M778 1431L779 1432L778 1431M941 1431L942 1432L941 1431M1489 1431L1490 1432L1489 1431M499 1432L500 1433L499 1432M942 1432L943 1433L942 1432M1488 1432L1489 1433L1488 1432M500 1433L501 1434L500 1433M779 1433L780 1434L779 1433M501 1434L502 1435L501 1434M943 1434L944 1435L943 1434M502 1435L503 1436L502 1435M780.333 1435.67L780.667 1436.33L780.333 1435.67M944 1435L945 1436L944 1435M1486 1435L1487 1436L1486 1435M503 1436L504 1437L503 1436M1485 1436L1486 1437L1485 1436M781 1438L782 1439L781 1438M946 1438L947 1439L946 1438M947 1439L948 1440L947 1439M1483 1439L1484 1440L1483 1439M782 1440L783 1441L782 1440M1482 1440L1483 1441L1482 1440M507 1441L508 1442L507 1441M948 1441L949 1442L948 1441M1481 1441L1482 1442L1481 1441M508 1442L509 1443L508 1442M783 1442L784 1443L783 1442M949 1442L950 1443L949 1442M509 1443L510 1444L509 1443M510 1444L511 1445L510 1444M784 1444L785 1445L784 1444M1479 1444L1480 1445L1479 1444M511 1445L512 1446L511 1445M951 1445L952 1446L951 1445M1478 1445L1479 1446L1478 1445M512 1446L513 1447L512 1446M952 1446L953 1447L952 1446M1477 1446L1478 1447L1477 1446M513 1447L514 1448L513 1447M785 1447L786 1448L785 1447z"/>
<path style="fill:#0101ff; stroke:none;" d="M121 1448L122 1449L121 1448z"/>
<path style="fill:#569fdb; stroke:none;" d="M514 1448L515 1449L514 1448M953 1448L954 1449L953 1448M515 1449L516 1450L515 1449M786 1449L787 1450L786 1449M954 1449L955 1450L954 1449M1475 1449L1476 1450L1475 1449M955 1450L956 1451L955 1450M1474 1450L1475 1451L1474 1450M787 1451L788 1452L787 1451M1473 1451L1474 1452L1473 1451M956 1452L957 1453L956 1452M1472 1452L1473 1453L1472 1452M788 1453L789 1454L788 1453M957 1453L958 1454L957 1453z"/>
<path style="fill:#0101ff; stroke:none;" d="M1830 1453L1831 1454L1830 1453z"/>
<path style="fill:#569fdb; stroke:none;" d="M958 1454L959 1455L958 1454M789 1455L790 1456L789 1455M1470 1455L1471 1456L1470 1455M1469 1456L1470 1457L1469 1456M790 1457L791 1458L790 1457M960 1457L961 1458L960 1457M1468 1457L1469 1458L1468 1457M961 1458L962 1459L961 1458M1467 1458L1468 1459L1467 1458M791 1459L792 1460L791 1459M792 1461L793 1462L792 1461M963 1461L964 1462L963 1461M964 1462L965 1463L964 1462M1464 1462L1465 1463L1464 1462M793 1463L794 1464L793 1463M965 1463L966 1464L965 1463M1463 1463L1464 1464L1463 1463M1462 1464L1463 1465L1462 1464M794 1465L795 1466L794 1465M1461 1465L1462 1466L1461 1465M967 1466L968 1467L967 1466M1460 1466L1461 1467L1460 1466M968 1467L969 1468L968 1467M796 1468L797 1469L796 1468M797 1470L798 1471L797 1470M971 1471L972 1472L971 1471M538 1472L539 1473L538 1472M798 1472L799 1473L798 1472M972 1472L973 1473L972 1472M1455 1472L1456 1473L1455 1472M539 1473L540 1474L539 1473M973 1473L974 1474L973 1473M1454 1473L1455 1474L1454 1473M540 1474L541 1475L540 1474M799 1474L800 1475L799 1474M1453 1474L1454 1475L1453 1474M541 1475L542 1476L541 1475M1452 1475L1453 1476L1452 1475M542 1476L543 1477L542 1476M1451 1476L1452 1477L1451 1476M543 1477L544 1478L543 1477M801 1477L802 1478L801 1477M976 1477L977 1478L976 1477M1450 1477L1451 1478L1450 1477M544 1478L545 1479L544 1478M977 1478L978 1479L977 1478M1449 1478L1450 1479L1449 1478M545 1479L546 1480L545 1479M802 1479L803 1480L802 1479M978 1479L979 1480L978 1479M803 1481L804 1482L803 1481M804 1482L805 1483L804 1482M981 1483L982 1484L981 1483M551 1484L552 1485L551 1484M805 1484L806 1485L805 1484M982 1484L983 1485L982 1484z"/>
<path style="fill:#0101ff; stroke:none;" d="M1812 1484L1813 1485L1812 1484z"/>
<path style="fill:#569fdb; stroke:none;" d="M552 1485L553 1486L552 1485M983 1485L984 1486L983 1485M553 1486L554 1487L553 1486M806 1486L807 1487L806 1486M984 1486L985 1487L984 1486M554 1487L555 1488L554 1487M807 1487L808 1488L807 1487M555 1488L556 1489L555 1488M808 1489L809 1490L808 1489M809 1491L810 1492L809 1491M988 1491L989 1492L988 1491M560 1492L561 1493L560 1492M810 1492L811 1493L810 1492M989 1492L990 1493L989 1492z"/>
<path style="fill:#0101ff; stroke:none;" d="M1807 1492L1808 1493L1807 1492z"/>
<path style="fill:#569fdb; stroke:none;" d="M561 1493L562 1494L561 1493M990 1493L991 1494L990 1493M562 1494L563 1495L562 1494M811 1494L812 1495L811 1494M991 1494L992 1495L991 1494M563 1495L564 1496L563 1495M812 1495L813 1496L812 1495M992 1495L993 1496L992 1495M993 1496L994 1497L993 1496M813 1497L814 1498L813 1497M567 1498L568 1499L567 1498M568 1499L569 1500L568 1499M569 1500L570 1501L569 1500M815 1500L816 1501L815 1500z"/>
<path style="fill:#0101ff; stroke:none;" d="M1802 1500L1803 1501L1802 1500z"/>
<path style="fill:#569fdb; stroke:none;" d="M570 1501L571 1502L570 1501M998 1502L999 1503L998 1502M817 1503L818 1504L817 1503M999 1503L1000 1504L999 1503M574 1504L575 1505L574 1504M818 1504L819 1505L818 1504M1000 1504L1001 1505L1000 1504M1423 1504L1424 1505L1423 1504M575 1505L576 1506L575 1505M1001 1505L1002 1506L1001 1505M1422 1505L1423 1506L1422 1505M576 1506L577 1507L576 1506M819 1506L820 1507L819 1506M1002 1506L1003 1507L1002 1506M1421 1506L1422 1507L1421 1506M820 1507L821 1508L820 1507M1003 1507L1004 1508L1003 1507M1420 1507L1421 1508L1420 1507M1004 1508L1005 1509L1004 1508M1419 1508L1420 1509L1419 1508M580 1509L581 1510L580 1509M821 1509L822 1510L821 1509M1005 1509L1006 1510L1005 1509M1418 1509L1419 1510L1418 1509M581 1510L582 1511L581 1510M822 1510L823 1511L822 1510M1006 1510L1007 1511L1006 1510M1417 1510L1418 1511L1417 1510M1007 1511L1008 1512L1007 1511M1416 1511L1417 1512L1416 1511M1008 1512L1009 1513L1008 1512M585 1513L586 1514L585 1513M824 1513L825 1514L824 1513M1009 1513L1010 1514L1009 1513M586 1514L587 1515L586 1514M825 1514L826 1515L825 1514M1010 1514L1011 1515L1010 1514M587 1515L588 1516L587 1515M1011 1515L1012 1516L1011 1515M826 1516L827 1517L826 1516M1012 1516L1013 1517L1012 1516M1410 1516L1411 1517L1410 1516M590 1517L591 1518L590 1517M827 1517L828 1518L827 1517M1409 1517L1410 1518L1409 1517M591 1518L592 1519L591 1518M1408 1518L1409 1519L1408 1518M1407 1519L1408 1520L1407 1519M594 1520L595 1521L594 1520M829 1520L830 1521L829 1520M1016 1520L1017 1521L1016 1520M595 1521L596 1522L595 1521M830 1521L831 1522L830 1521M1017 1521L1018 1522L1017 1521M596 1522L597 1523L596 1522M1018 1522L1019 1523L1018 1522M1019 1523L1020 1524L1019 1523M1402 1523L1403 1524L1402 1523M599 1524L600 1525L599 1524M832 1524L833 1525L832 1524M1020 1524L1021 1525L1020 1524M1401 1524L1402 1525L1401 1524M600 1525L601 1526L600 1525M833 1525L834 1526L833 1525M1021 1525L1022 1526L1021 1525M1400 1525L1401 1526L1400 1525M834 1526L835 1527L834 1526M1022 1526L1023 1527L1022 1526M603 1527L604 1528L603 1527M1023 1527L1024 1528L1023 1527M604 1528L605 1529L604 1528M1024 1528L1025 1529L1024 1528M1396 1528L1397 1529L1396 1528M836 1529L837 1530L836 1529M1025 1529L1026 1530L1025 1529M1395 1529L1396 1530L1395 1529M607 1530L608 1531L607 1530M837 1530L838 1531L837 1530M1026 1530L1027 1531L1026 1530M1394 1530L1395 1531L1394 1530M608 1531L609 1532L608 1531M1027 1531L1028 1532L1027 1531M1028 1532L1029 1533L1028 1532M611 1533L612 1534L611 1533M1029 1533L1030 1534L1029 1533M1390 1533L1391 1534L1390 1533M612 1534L613 1535L612 1534M840 1534L841 1535L840 1534M1030 1534L1031 1535L1030 1534M1389 1534L1390 1535L1389 1534M841 1535L842 1536L841 1535M1031 1535L1032 1536L1031 1535M1388 1535L1389 1536L1388 1535M615 1536L616 1537L615 1536M842 1536L843 1537L842 1536M616 1537L617 1538L616 1537M1385 1537L1386 1538L1385 1537M618 1538L619 1539L618 1538M1384 1538L1385 1539L1384 1538M619 1539L620 1540L619 1539M1383 1539L1384 1540L1383 1539M845 1540L846 1541L845 1540M622 1541L623 1542L622 1541M846 1541L847 1542L846 1541M1038 1541L1039 1542L1038 1541M1380 1541L1381 1542L1380 1541M847 1542L848 1543L847 1542M1039 1542L1040 1543L1039 1542M1379 1542L1380 1543L1379 1542M625 1543L626 1544L625 1543M1040 1543L1041 1544L1040 1543M626 1544L627 1545L626 1544M1041 1544L1042 1545L1041 1544M1376 1544L1377 1545L1376 1544M628 1545L629 1546L628 1545M1042 1545L1043 1546L1042 1545M1375 1545L1376 1546L1375 1545M629 1546L630 1547L629 1546M1043 1546L1044 1547L1043 1546M631 1547L632 1548L631 1547M851 1547L852 1548L851 1547M1044 1547L1045 1548L1044 1547M1372 1547L1373 1548L1372 1547M632 1548L633 1549L632 1548M852 1548L853 1549L852 1548M1371 1548L1372 1549L1371 1548M634 1549L635 1550L634 1549M853 1549L854 1550L853 1549M635 1550L636 1551L635 1550M854 1550L855 1551L854 1550M1048 1550L1049 1551L1048 1550M1368 1550L1369 1551L1368 1550z"/>
<path style="fill:#0101ff; stroke:none;" d="M1768 1550L1769 1551L1768 1550z"/>
<path style="fill:#569fdb; stroke:none;" d="M637 1551L638 1552L637 1551M855 1551L856 1552L855 1551M1049 1551L1050 1552L1049 1551M1367 1551L1368 1552L1367 1551M638 1552L639 1553L638 1552M1050 1552L1051 1553L1050 1552z"/>
<path style="fill:#0101ff; stroke:none;" d="M188 1553L189 1554L188 1553z"/>
<path style="fill:#569fdb; stroke:none;" d="M640 1553L641 1554L640 1553M1051 1553L1052 1554L1051 1553M1364 1553L1365 1554L1364 1553M641 1554L642 1555L641 1554M1052 1554L1053 1555L1052 1554M1363 1554L1364 1555L1363 1554M643 1555L644 1556L643 1555M644 1556L645 1557L644 1556M1360 1556L1361 1557L1360 1556M646 1557L647 1558L646 1557M1056 1557L1057 1558L1056 1557M1359 1557L1360 1558L1359 1557M861 1558L862 1559L861 1558M1057 1558L1058 1559L1057 1558M1357 1558L1358 1559L1357 1558M649 1559L650 1560L649 1559M862 1559L863 1560L862 1559M1058 1559L1059 1560L1058 1559M1356 1559L1357 1560L1356 1559M651 1560L652 1561L651 1560M863 1560L864 1561L863 1560M1059 1560L1060 1561L1059 1560M1354 1560L1355 1561L1354 1560M652 1561L653 1562L652 1561M864 1561L865 1562L864 1561M1353 1561L1354 1562L1353 1561M654 1562L655 1563L654 1562M865 1562L866 1563L865 1562M866 1563L867 1564L866 1563M1063 1563L1064 1564L1063 1563M1350 1563L1351 1564L1350 1563M657 1564L658 1565L657 1564M867 1564L868 1565L867 1564M1064 1564L1065 1565L1064 1564M659 1565L660 1566L659 1565M868 1565L869 1566L868 1565M1065 1565L1066 1566L1065 1565M1347 1565L1348 1566L1347 1565M869 1566L870 1567L869 1566M662 1567L663 1568L662 1567M870 1567L871 1568L870 1567M1344 1567L1345 1568L1344 1567M664 1568L665 1569L664 1568M871 1568L872 1569L871 1568M1069 1568L1070 1569L1069 1568M666 1569L667 1570L666 1569M872 1569L873 1570L872 1569M1070 1569L1071 1570L1070 1569M1341 1569L1342 1570L1341 1569M667 1570L668 1571L667 1570M873 1570L874 1571L873 1570M1071 1570L1072 1571L1071 1570M669 1571L670 1572L669 1571M874 1571L875 1572L874 1571M1338 1571L1339 1572L1338 1571M671 1572L672 1573L671 1572M875 1572L876 1573L875 1572M1336 1572L1337 1573L1336 1572z"/>
<path style="fill:#0101ff; stroke:none;" d="M203 1573L204 1574L203 1573z"/>
<path style="fill:#569fdb; stroke:none;" d="M673 1573L674 1574L673 1573M876 1573L877 1574L876 1573M1075 1573L1076 1574L1075 1573M1335 1573L1336 1574L1335 1573M877 1574L878 1575L877 1574M1076 1574L1077 1575L1076 1574M1333 1574L1334 1575L1333 1574z"/>
<path style="fill:#0101ff; stroke:none;" d="M1750 1574L1751 1575L1750 1574z"/>
<path style="fill:#569fdb; stroke:none;" d="M676 1575L677 1576L676 1575M878 1575L879 1576L878 1575M1077 1575L1078 1576L1077 1575M1332 1575L1333 1576L1332 1575M678 1576L679 1577L678 1576M879 1576L880 1577L879 1576M1330 1576L1331 1577L1330 1576M680 1577L681 1578L680 1577M880 1577L881 1578L880 1577M1080 1577L1081 1578L1080 1577M682 1578L683 1579L682 1578M881 1578L882 1579L881 1578M1081 1578L1082 1579L1081 1578M1327 1578L1328 1579L1327 1578M1325 1579L1326 1580L1325 1579M685 1580L686 1581L685 1580M1084 1580L1085 1581L1084 1580M1324 1580L1325 1581L1324 1580M687 1581L688 1582L687 1581M1085 1581L1086 1582L1085 1581M1322 1581L1323 1582L1322 1581z"/>
<path style="fill:#0101ff; stroke:none;" d="M210 1582L211 1583L210 1582z"/>
<path style="fill:#569fdb; stroke:none;" d="M689 1582L690 1583L689 1582M1086 1582L1087 1583L1086 1582M1320 1582L1321 1583L1320 1582M691 1583L692 1584L691 1583M887 1583L888 1584L887 1583M1319 1583L1320 1584L1319 1583z"/>
<path style="fill:#0101ff; stroke:none;" d="M1743 1583L1744 1584L1743 1583z"/>
<path style="fill:#569fdb; stroke:none;" d="M693 1584L694 1585L693 1584M888 1584L889 1585L888 1584M1089 1584L1090 1585L1089 1584M1317 1584L1318 1585L1317 1584M695 1585L696 1586L695 1585M889 1585L890 1586L889 1585M1090 1585L1091 1586L1090 1585M1315 1585L1316 1586L1315 1585M697 1586L698 1587L697 1586M890 1586L891 1587L890 1586M1314 1586L1315 1587L1314 1586z"/>
<path style="fill:#0101ff; stroke:none;" d="M214 1587L215 1588L214 1587z"/>
<path style="fill:#569fdb; stroke:none;" d="M699 1587L700 1588L699 1587M891 1587L892 1588L891 1587M1093 1587L1094 1588L1093 1587M1312 1587L1313 1588L1312 1587M701 1588L702 1589L701 1588M892 1588L893 1589L892 1588M1094 1588L1095 1589L1094 1588M1310 1588L1311 1589L1310 1588M703 1589L704 1590L703 1589M1308 1589L1309 1590L1308 1589M705.667 1590.33L706.333 1590.67L705.667 1590.33M1097 1590L1098 1591L1097 1590M1307 1590L1308 1591L1307 1590M708 1591L709 1592L708 1591M1098 1591L1099 1592L1098 1591M1305 1591L1306 1592L1305 1591M710 1592L711 1593L710 1592M897 1592L898 1593L897 1592M1100 1592L1101 1593L1100 1592M1303 1592L1304 1593L1303 1592M712 1593L713 1594L712 1593M898 1593L899 1594L898 1593M1101 1593L1102 1594L1101 1593M1301 1593L1302 1594L1301 1593M714 1594L715 1595L714 1594M899 1594L900 1595L899 1594M1299 1594L1300 1595L1299 1594M716 1595L717 1596L716 1595M900 1595L901 1596L900 1595M1104 1595L1105 1596L1104 1595M1298 1595L1299 1596L1298 1595M719 1596L720 1597L719 1596M1105 1596L1106 1597L1105 1596M1296 1596L1297 1597L1296 1596M721 1597L722 1598L721 1597M1107 1597L1108 1598L1107 1597M1294 1597L1295 1598L1294 1597M723 1598L724 1599L723 1598M904 1598L905 1599L904 1598M1108 1598L1109 1599L1108 1598M1292 1598L1293 1599L1292 1598M725.667 1599.33L726.333 1599.67L725.667 1599.33M905 1599L906 1600L905 1599M1110 1599L1111 1600L1110 1599M1290 1599L1291 1600L1290 1599M728 1600L729 1601L728 1600M906 1600L907 1601L906 1600M1111 1600L1112 1601L1111 1600M1288 1600L1289 1601L1288 1600M730 1601L731 1602L730 1601M1286 1601L1287 1602L1286 1601M733 1602L734 1603L733 1602M1114 1602L1115 1603L1114 1602M1284 1602L1285 1603L1284 1602M735.667 1603.33L736.333 1603.67L735.667 1603.33M910 1603L911 1604L910 1603M1282 1603L1283 1604L1282 1603M738 1604L739 1605L738 1604M911 1604L912 1605L911 1604M1117 1604L1118 1605L1117 1604M1280 1604L1281 1605L1280 1604M740.667 1605.33L741.333 1605.67L740.667 1605.33M912 1605L913 1606L912 1605M1119 1605L1120 1606L1119 1605M1278 1605L1279 1606L1278 1605M743 1606L744 1607L743 1606M913 1606L914 1607L913 1606M1120 1606L1121 1607L1120 1606M1276 1606L1277 1607L1276 1606M745.667 1607.33L746.333 1607.67L745.667 1607.33M1122 1607L1123 1608L1122 1607M1274 1607L1275 1608L1274 1607M748.667 1608.33L749.333 1608.67L748.667 1608.33M1123 1608L1124 1609L1123 1608M1272 1608L1273 1609L1272 1608M751 1609L752 1610L751 1609M917 1609L918 1610L917 1609M1125 1609L1126 1610L1125 1609M1270 1609L1271 1610L1270 1609z"/>
<path style="fill:#0101ff; stroke:none;" d="M233 1610L234 1611L233 1610z"/>
<path style="fill:#569fdb; stroke:none;" d="M754 1610L755 1611L754 1610M918 1610L919 1611L918 1610M1268 1610L1269 1611L1268 1610M757 1611L758 1612L757 1611M919 1611L920 1612L919 1611M1128 1611L1129 1612L1128 1611M1266 1611L1267 1612L1266 1611M759.667 1612.33L760.333 1612.67L759.667 1612.33M920 1612L921 1613L920 1612M1130 1612L1131 1613L1130 1612M1264 1612L1265 1613L1264 1612M762.667 1613.33L763.333 1613.67L762.667 1613.33M1131 1613L1132 1614L1131 1613M1262 1613L1263 1614L1262 1613M766 1614L767 1615L766 1614M1133 1614L1134 1615L1133 1614M1259 1614L1260 1615L1259 1614M768.667 1615.33L769.333 1615.67L768.667 1615.33M924 1615L925 1616L924 1615M1135 1615L1136 1616L1135 1615M1257 1615L1258 1616L1257 1615M772 1616L773 1617L772 1616M925 1616L926 1617L925 1616M1255 1616L1256 1617L1255 1616M775.667 1617.33L776.333 1617.67L775.667 1617.33M926 1617L927 1618L926 1617M1138 1617L1139 1618L1138 1617M1253 1617L1254 1618L1253 1617M778.667 1618.33L779.333 1618.67L778.667 1618.33M1140 1618L1141 1619L1140 1618M1250 1618L1251 1619L1250 1618M782 1619L783 1620L782 1619M1142 1619L1143 1620L1142 1619M1248 1619L1249 1620L1248 1619M785.667 1620.33L786.333 1620.67L785.667 1620.33M930 1620L931 1621L930 1620M1144 1620L1145 1621L1144 1620M1246 1620L1247 1621L1246 1620M789.667 1621.33L790.333 1621.67L789.667 1621.33M931 1621L932 1622L931 1621M1145 1621L1146 1622L1145 1621M1243 1621L1244 1622L1243 1621M793 1622L794 1623L793 1622M932 1622L933 1623L932 1622M1147 1622L1148 1623L1147 1622M1241 1622L1242 1623L1241 1622M796.667 1623.33L797.333 1623.67L796.667 1623.33M933 1623L934 1624L933 1623M1149 1623L1150 1624L1149 1623M1238.67 1623.33L1239.33 1623.67L1238.67 1623.33M800.667 1624.33L801.333 1624.67L800.667 1624.33M1151 1624L1152 1625L1151 1624M1236 1624L1237 1625L1236 1624M804.667 1625.33L805.333 1625.67L804.667 1625.33M1153 1625L1154 1626L1153 1625M1234 1625L1235 1626L1234 1625M808.667 1626.33L809.333 1626.67L808.667 1626.33M937 1626L938 1627L937 1626M1155 1626L1156 1627L1155 1626M1231 1626L1232 1627L1231 1626M812.667 1627.33L813.333 1627.67L812.667 1627.33M938 1627L939 1628L938 1627M1157 1627L1158 1628L1157 1627M1228.67 1627.33L1229.33 1627.67L1228.67 1627.33M816.667 1628.33L817.333 1628.67L816.667 1628.33M939 1628L940 1629L939 1628M1159 1628L1160 1629L1159 1628M1226 1628L1227 1629L1226 1628M821.667 1629.33L822.333 1629.67L821.667 1629.33M1161 1629L1162 1630L1161 1629M1223.67 1629.33L1224.33 1629.67L1223.67 1629.33M826.667 1630.33L827.333 1630.67L826.667 1630.33M1163 1630L1164 1631L1163 1630M1221 1630L1222 1631L1221 1630M830.667 1631.33L831.333 1631.67L830.667 1631.33M943 1631L944 1632L943 1631M1165 1631L1166 1632L1165 1631M1218 1631L1219 1632L1218 1631M835.667 1632.33L836.333 1632.67L835.667 1632.33M944 1632L945 1633L944 1632M1167 1632L1168 1633L1167 1632M1215.67 1632.33L1216.33 1632.67L1215.67 1632.33M840.667 1633.33L841.333 1633.67L840.667 1633.33M945 1633L946 1634L945 1633M1169.67 1633.33L1170.33 1633.67L1169.67 1633.33M1213 1633L1214 1634L1213 1633M845.667 1634.33L846.333 1634.67L845.667 1634.33M946 1634L947 1635L946 1634M1172 1634L1173 1635L1172 1634M1210 1634L1211 1635L1210 1634z"/>
<path style="fill:#0101ff; stroke:none;" d="M255 1635L256 1636L255 1635z"/>
<path style="fill:#569fdb; stroke:none;" d="M850 1635L850 1636L853 1636L850 1635M1174 1635L1175 1636L1174 1635M1207 1635L1208 1636L1207 1635M855 1636L855 1637L858 1637L855 1636M1176.67 1636.33L1177.33 1636.67L1176.67 1636.33M1204.67 1636.33L1205.33 1636.67L1204.67 1636.33M861 1637L861 1638L864 1638L861 1637M950 1637L951 1638L950 1637M1179.67 1637.33L1180.33 1637.67L1179.67 1637.33M1201.67 1637.33L1202.33 1637.67L1201.67 1637.33M867 1638L867 1639L870 1639L867 1638M951 1638L952 1639L951 1638M1183 1638L1183 1639L1186 1639L1183 1638M1196 1638L1196 1639L1199 1639L1196 1638M873 1639L873 1640L876 1640L873 1639M952 1639L953 1640L952 1639M878 1640L878 1641L882 1641L878 1640M953 1640L954 1641L953 1640M885 1641L885 1642L889 1642L885 1641M892 1642L892 1643L896 1643L892 1642M899 1643L899 1644L902 1644L899 1643M957 1643L958 1644L957 1643M906 1644L906 1645L910 1645L906 1644M958 1644L959 1645L958 1644M914 1645L914 1646L918 1646L914 1645M959 1645L960 1646L959 1645M921 1646L921 1647L925 1647L921 1646M930 1647L930 1648L934 1648L930 1647M962 1647L963 1648L962 1647M938 1648L938 1649L942 1649L938 1648z"/>
<path style="fill:#0101ff; stroke:none;" d="M268 1649L269 1650L268 1649z"/>
<path style="fill:#569fdb; stroke:none;" d="M946 1649L946 1650L949 1650L946 1649M953 1650L953 1651L956 1651L953 1650M960.667 1651.33L961.333 1651.67L960.667 1651.33z"/>
<path style="fill:#0101ff; stroke:none;" d="M1681 1654L1682 1655L1681 1654M1654 1681L1655 1682L1654 1681M304 1685L305 1686L304 1685M319 1699L320 1700L319 1699M328 1707L329 1708L328 1707M350 1726L351 1727L350 1726M1583 1743L1584 1744L1583 1743M385 1754L386 1755L385 1754M397 1763L398 1764L397 1763M1550 1768L1551 1769L1550 1768M415 1776L416 1777L415 1776M428 1785L429 1786L428 1785M1523 1787L1524 1788L1523 1787M440 1793L441 1794L440 1793M443 1795L444 1796L443 1795M1500 1802L1501 1803L1500 1802M1492 1807L1493 1808L1492 1807M480 1818L481 1819L480 1818M1453 1830L1454 1831L1453 1830M508 1834L509 1835L508 1834M1429 1843L1430 1844L1429 1843M1397 1859L1398 1860L1397 1859M1382 1866L1383 1867L1382 1866M1335 1886L1336 1887L1335 1886M1297 1900L1298 1901L1297 1900M1276 1907L1277 1908L1276 1907M684 1909L685 1910L684 1909M1260 1912L1261 1913L1260 1912M1243 1917L1244 1918L1243 1917M1196 1929L1197 1930L1196 1929M1173 1934L1174 1935L1173 1934M1152 1938L1153 1939L1152 1938M905 1951L906 1952L905 1951z"/>
</svg>
