<?xml version="1.0" standalone="yes"?>
<svg xmlns="http://www.w3.org/2000/svg" width="1954" height="1954">
<path style="fill:#010101; stroke:none;" d="M0 0L0 1954L943 1954L943 1953C890.192 1953 836.763 1945.35 785 1935C638.332 1905.67 499.306 1842.19 381 1750.65C250.062 1649.34 149.54 1517.52 81.6944 1367C21.8789 1234.3 -8.04388 1079.36 1.91049 934C8.70953 834.715 24.61 737.943 59.0532 644C167.624 347.877 418.343 116.566 723 34.1512C1105.64 -69.3586 1526.4 76.2004 1762.12 396C1829.7 487.69 1880.99 589.905 1913.72 699C1937.07 776.833 1953 860.589 1953 942L1954 942L1954 0L0 0z"/>
<path style="fill:#89abe3; stroke:none;" d="M937 1.42444C912.635 4.62317 887.536 4.53748 863 7.16589C815.54 12.2501 768.059 21.6914 722 34.1512C518.695 89.1488 335.859 210.873 206.424 377C139.472 462.932 87.3931 559.998 52.0787 663C-47.9345 954.711 0.354599 1288.31 178.424 1540C244.222 1633 325.617 1714.02 419 1779.28C512.506 1844.62 617.7 1893.12 728 1922.12C851.265 1954.53 980.792 1962.31 1107 1945.72C1428.47 1903.45 1715.44 1696.03 1856.74 1404C1916.78 1279.91 1947.95 1145.27 1953.96 1008C1965.87 736.109 1851.1 460.549 1655 273.039C1541.64 164.639 1404.08 85.3064 1254 40.28C1179.03 17.7869 1101.04 5.37817 1023 1.96069C995.234 0.744751 964.658 -2.20667 937 1.42444z"/>
<path style="fill:#7f7fff; stroke:none;" d="M902 3L903 4L902 3M1093 7L1094 8L1093 7M1109 9L1110 10L1109 9M1123 11L1124 12L1123 11z"/>
<path style="fill:#ffffff; stroke:none;" d="M1136 13L1137 14L1136 13M812 14L813 15L812 14z"/>
<path style="fill:#7f7fff; stroke:none;" d="M790 18L791 19L790 18z"/>
<path style="fill:#ffffff; stroke:none;" d="M1169 19L1170 20L1169 19M1174 20L1175 21L1174 20M1188 23L1189 24L1188 23M1197 25L1198 26L1197 25M1233 34L1234 35L1233 34M1254 40L1255 41L1254 40M1264 43L1265 44L1264 43z"/>
<path style="fill:#7f7fff; stroke:none;" d="M668 50L669 51L668 50z"/>
<path style="fill:#ffffff; stroke:none;" d="M1289 51L1290 52L1289 51M1309 58L1310 59L1309 58M1325 64L1326 65L1325 64z"/>
<path style="fill:#7f7fff; stroke:none;" d="M621 67L622 68L621 67z"/>
<path style="fill:#ffffff; stroke:none;" d="M1338 69L1339 70L1338 69z"/>
<path style="fill:#7f7fff; stroke:none;" d="M611 71L612 72L611 71z"/>
<path style="fill:#ffffff; stroke:none;" d="M594 78L595 79L594 78M1369 82L1370 83L1369 82M578 85L579 86L578 85z"/>
<path style="fill:#7f7fff; stroke:none;" d="M565 91L566 92L565 91z"/>
<path style="fill:#ffffff; stroke:none;" d="M532 107L533 108L532 107M1437 115L1438 116L1437 115M515 116L516 117L515 116M1448 121L1449 122L1448 121M504 122L505 123L504 122z"/>
<path style="fill:#7f7fff; stroke:none;" d="M1464 130L1465 131L1464 130z"/>
<path style="fill:#ffffff; stroke:none;" d="M483 134L484 135L483 134M1481 140L1482 141L1481 140M419 175L420 176L419 175z"/>
<path style="fill:#7f7fff; stroke:none;" d="M1542 180L1543 181L1542 180z"/>
<path style="fill:#ffffff; stroke:none;" d="M409 182L410 183L409 182z"/>
<path style="fill:#7f7fff; stroke:none;" d="M1553 188L1554 189L1553 188z"/>
<path style="fill:#ffffff; stroke:none;" d="M386 199L387 200L386 199z"/>
<path style="fill:#7f7fff; stroke:none;" d="M1573 203L1574 204L1573 203z"/>
<path style="fill:#ffffff; stroke:none;" d="M373 209L374 210L373 209z"/>
<path style="fill:#7f7fff; stroke:none;" d="M1582 210L1583 211L1582 210z"/>
<path style="fill:#ffffff; stroke:none;" d="M1587 214L1588 215L1587 214M345 232L346 233L345 232z"/>
<path style="fill:#7f7fff; stroke:none;" d="M1610 233L1611 234L1610 233M1617 239L1618 240L1617 239z"/>
<path style="fill:#ffffff; stroke:none;" d="M330 245L331 246L330 245M321 253L322 254L321 253z"/>
<path style="fill:#7f7fff; stroke:none;" d="M1635 255L1636 256L1635 255z"/>
<path style="fill:#ffffff; stroke:none;" d="M1649 268L1650 269L1649 268z"/>
<path style="fill:#7f7fff; stroke:none;" d="M266 307L267 308L266 307z"/>
<path style="fill:#ffffff; stroke:none;" d="M265 308L266 309L265 308z"/>
<path style="fill:#7f7fff; stroke:none;" d="M1699 319L1700 320L1699 319M253 321L254 322L253 321z"/>
<path style="fill:#ffffff; stroke:none;" d="M245 330L246 331L245 330z"/>
<path style="fill:#7f7fff; stroke:none;" d="M1715 337L1716 338L1715 337z"/>
<path style="fill:#ffffff; stroke:none;" d="M232 345L233 346L232 345z"/>
<path style="fill:#afc4ed; stroke:none;" d="M1627 362C1635.75 358.915 1634 369.133 1634 375C1636.17 369.834 1635.1 353.852 1627 362z"/>
<path style="fill:#ffffff; stroke:none;" d="M1126 1249C1157.32 1247.66 1188.88 1248.18 1220 1243.57C1289.18 1233.33 1353.97 1203.51 1398.2 1148C1410.87 1132.1 1426.3 1111.79 1432 1092C1423.69 1092.45 1418.92 1098.57 1413 1103.71C1405.5 1110.23 1397.16 1115.91 1389 1121.56C1363.86 1139.01 1335.6 1152.46 1306 1160.27C1248.48 1175.43 1186.61 1172.3 1129 1159.58C1112.86 1156.01 1096.8 1151.88 1081 1147.02C1078.38 1146.22 1064.74 1142.86 1069.58 1137.86C1074.41 1132.87 1093.37 1137 1100 1137C1130.09 1137 1159.96 1139.45 1190 1135.72C1277.45 1124.83 1359.32 1077.77 1418.07 1013C1433.95 995.499 1448.27 975.949 1459.26 955C1463.44 947.023 1469.19 939.191 1470 930C1460.09 934.717 1453.31 944.292 1445 951.246C1431.14 962.839 1415.44 973.135 1399 980.691C1302.97 1024.82 1189.95 1036.05 1087 1014C1056.67 1007.5 1026.86 998.136 998 986.797C992.415 984.603 971.797 979.79 970.631 973.054C969.748 967.95 981.763 970.874 984 971.247C999.508 973.831 1015.27 976.553 1031 977.014C1095.18 978.896 1162.02 981.615 1225 965.873C1306.9 945.402 1383.89 904.396 1445 845.961C1528.14 766.462 1582.23 653.59 1609.87 543C1621.15 497.881 1628.89 452.381 1632.09 406C1632.85 394.996 1634 384.052 1634 373C1634 369.976 1635.08 364.11 1632.97 361.623C1628.25 356.052 1617.09 376.934 1614.97 380C1598.38 404.083 1582.08 428.284 1563.61 451C1536.42 484.447 1504.33 514.895 1468 538.308C1400.53 581.788 1320.92 603.863 1243 619.997C1156.46 637.916 1068.19 647.825 980 649.985C923.943 651.359 868.074 650 812 650C778.916 650 745.864 649.196 713 653.285C628.92 663.746 547.168 698.895 482 753.081C452.952 777.234 427.497 804.584 405.116 835C379.067 870.399 358.283 910.304 344.333 952C326.833 1004.31 318.552 1059 320.961 1114C324 1183.4 341.343 1249.16 373.258 1311C389.913 1343.27 411.703 1372.98 435.834 1400C581.593 1563.23 840.451 1594.89 1021 1471.02C1074 1434.67 1120.14 1387.13 1153.4 1332C1161.01 1319.38 1168.16 1306.38 1174.31 1293C1176.48 1288.27 1180.71 1282.41 1180.64 1277.02C1180.57 1270.68 1171.63 1269.67 1167 1268.28C1156.27 1265.06 1128.03 1262.1 1126 1249z"/>
<path style="fill:#afc4ed; stroke:none;" d="M1625 364L1626 365L1625 364M1623 367L1624 368L1623 367M1622 368L1623 369L1622 368M1621 370L1622 371L1621 370M1620 371L1621 372L1620 371z"/>
<path style="fill:#ffffff; stroke:none;" d="M1744 372L1745 373L1744 372M209 373L210 374L209 373z"/>
<path style="fill:#afc4ed; stroke:none;" d="M1619 373L1620 374L1619 373M1618 374L1619 375L1618 374M1617 376L1618 377L1617 376M1616 377L1617 378L1616 377M1615 379L1616 380L1615 379M1614 380L1615 381L1614 380M1613 382L1614 383L1613 382M1612 383L1613 384L1612 383z"/>
<path style="fill:#ffffff; stroke:none;" d="M1754 385L1755 386L1754 385M199 386L200 387L199 386z"/>
<path style="fill:#afc4ed; stroke:none;" d="M1610 386L1611 387L1610 386M1633 386L1633 394L1634 394L1633 386M1608 389L1609 390L1608 389z"/>
<path style="fill:#7f7fff; stroke:none;" d="M196 390L197 391L196 390z"/>
<path style="fill:#afc4ed; stroke:none;" d="M1606 392L1607 393L1606 392M1605 393L1606 394L1605 393z"/>
<path style="fill:#7f7fff; stroke:none;" d="M193 394L194 395L193 394z"/>
<path style="fill:#afc4ed; stroke:none;" d="M1604 395L1605 396L1604 395M1603 396L1604 397L1603 396z"/>
<path style="fill:#ffffff; stroke:none;" d="M190 398L191 399L190 398z"/>
<path style="fill:#afc4ed; stroke:none;" d="M1602 398L1603 399L1602 398M1601 399L1602 400L1601 399M1600 401L1601 402L1600 401M1599 402L1600 403L1599 402M1632 402L1632 409L1633 409L1632 402M1597 405L1598 406L1597 405M1595 408L1596 409L1595 408z"/>
<path style="fill:#ffffff; stroke:none;" d="M182 409L183 410L182 409z"/>
<path style="fill:#afc4ed; stroke:none;" d="M1594 409L1595 410L1594 409M1593 411L1594 412L1593 411M1592 412L1593 413L1592 412M1591 414L1592 415L1591 414M1590 415L1591 416L1590 415M1631 415L1631 421L1632 421L1631 415M1588 418L1589 419L1588 418z"/>
<path style="fill:#7f7fff; stroke:none;" d="M175 419L176 420L175 419z"/>
<path style="fill:#afc4ed; stroke:none;" d="M1587 419L1588 420L1587 419M1586 421L1587 422L1586 421M1585 422L1586 423L1585 422M1583 425L1584 426L1583 425M1582 426L1583 427L1582 426M1630 426L1630 431L1631 431L1630 426M1581 428L1582 429L1581 428M1580 429L1581 430L1580 429M1579 430L1580 431L1579 430M1578 432L1579 433L1578 432M1577 433L1578 434L1577 433M1576 434L1577 435L1576 434M1575 436L1576 437L1575 436M1629 436L1629 440L1630 440L1629 436M1574 437L1575 438L1574 437M1573 438L1574 439L1573 438M1571 441L1572 442L1571 441M1570 442L1571 443L1570 442z"/>
<path style="fill:#ffffff; stroke:none;" d="M1795 443L1796 444L1795 443z"/>
<path style="fill:#afc4ed; stroke:none;" d="M1628 444L1628 449L1629 449L1628 444M1568 445L1569 446L1568 445M1567 446L1568 447L1567 446z"/>
<path style="fill:#ffffff; stroke:none;" d="M1797 446L1798 447L1797 446z"/>
<path style="fill:#afc4ed; stroke:none;" d="M1566 447L1567 448L1566 447M1563 451L1564 452L1563 451M1562 452L1563 453L1562 452M1561 453L1562 454L1561 453M1627 453L1627 456L1628 456L1627 453M1559 456L1560 457L1559 456M1558 457L1559 458L1558 457z"/>
<path style="fill:#ffffff; stroke:none;" d="M1804 457L1805 458L1804 457z"/>
<path style="fill:#afc4ed; stroke:none;" d="M1557 458L1558 459L1557 458M1556 459L1557 460L1556 459M1626 460L1626 464L1627 464L1626 460M1553 463L1554 464L1553 463M1552 464L1553 465L1552 464M1551 465L1552 466L1551 465z"/>
<path style="fill:#ffffff; stroke:none;" d="M1809 465L1810 466L1809 465z"/>
<path style="fill:#afc4ed; stroke:none;" d="M1550 466L1551 467L1550 466M1549 467L1550 468L1549 467M1625 467L1625 470L1626 470L1625 467M1548 468L1549 469L1548 468M1544 473L1545 474L1544 473M1624 473L1624 476L1625 476L1624 473M1543 474L1544 475L1543 474M1542 475L1543 476L1542 475M1541 476L1542 477L1541 476M1540 477L1541 478L1540 477M1539 478L1540 479L1539 478M1538 479L1539 480L1538 479M1623 479L1623 482L1624 482L1623 479M1537 480L1538 481L1537 480z"/>
<path style="fill:#7f7fff; stroke:none;" d="M1818 480L1819 481L1818 480z"/>
<path style="fill:#afc4ed; stroke:none;" d="M1536 481L1537 482L1536 481M1535 482L1536 483L1535 482z"/>
<path style="fill:#7f7fff; stroke:none;" d="M134 483L135 484L134 483z"/>
<path style="fill:#afc4ed; stroke:none;" d="M1534 483L1535 484L1534 483M1533 484L1534 485L1533 484M1532 485L1533 486L1532 485M1622 485L1622 488L1623 488L1622 485z"/>
<path style="fill:#ffffff; stroke:none;" d="M1821 485L1822 486L1821 485z"/>
<path style="fill:#afc4ed; stroke:none;" d="M1531 486L1532 487L1531 486M1530 487L1531 488L1530 487M1529 488L1530 489L1529 488M1528 489L1529 490L1528 489M1527 490L1528 491L1527 490M1621 490L1621 493L1622 493L1621 490M1526 491L1527 492L1526 491M1525 492L1526 493L1525 492M1524 493L1525 494L1524 493M1523 494L1524 495L1523 494M1522 495L1523 496L1522 495M1521 496L1522 497L1521 496M1620 496L1620 499L1621 499L1620 496M1520 497L1521 498L1520 497z"/>
<path style="fill:#ffffff; stroke:none;" d="M1829 499L1830 500L1829 499z"/>
<path style="fill:#afc4ed; stroke:none;" d="M1515 501L1516 502L1515 501M1619.33 501.667L1619.67 502.333L1619.33 501.667M1514 502L1515 503L1514 502M1513 503L1514 504L1513 503z"/>
<path style="fill:#ffffff; stroke:none;" d="M122 504L123 505L122 504z"/>
<path style="fill:#afc4ed; stroke:none;" d="M1512 504L1513 505L1512 504M1511 505L1512 506L1511 505M1618.33 506.667L1618.67 507.333L1618.33 506.667M1507 508L1508 509L1507 508z"/>
<path style="fill:#7f7fff; stroke:none;" d="M1834 508L1835 509L1834 508z"/>
<path style="fill:#afc4ed; stroke:none;" d="M1506 509L1507 510L1506 509M1505 510L1506 511L1505 510M1617 510L1617 513L1618 513L1617 510M1504 511L1505 512L1504 511M1501 513L1502 514L1501 513M1500 514L1501 515L1500 514z"/>
<path style="fill:#7f7fff; stroke:none;" d="M116 515L117 516L116 515z"/>
<path style="fill:#afc4ed; stroke:none;" d="M1499 515L1500 516L1499 515M1616.33 515.667L1616.67 516.333L1616.33 515.667M1495 518L1496 519L1495 518M1494 519L1495 520L1494 519M1615.33 520.667L1615.67 521.333L1615.33 520.667M1491 521L1492 522L1491 521z"/>
<path style="fill:#ffffff; stroke:none;" d="M1841 521L1842 522L1841 521z"/>
<path style="fill:#afc4ed; stroke:none;" d="M1490 522L1491 523L1490 522z"/>
<path style="fill:#7f7fff; stroke:none;" d="M1842 523L1843 524L1842 523z"/>
<path style="fill:#afc4ed; stroke:none;" d="M1487 524L1488 525L1487 524M1614.33 524.667L1614.67 525.333L1614.33 524.667M1486 525L1487 526L1486 525M1483 527L1484 528L1483 527M1482 528L1483 529L1482 528M1613.33 528.667L1613.67 529.333L1613.33 528.667M1480 529L1481 530L1480 529M1479 530L1480 531L1479 530z"/>
<path style="fill:#ffffff; stroke:none;" d="M107 532L108 533L107 532z"/>
<path style="fill:#afc4ed; stroke:none;" d="M1476 532L1477 533L1476 532M1612.33 532.667L1612.67 533.333L1612.33 532.667M1475 533L1476 534L1475 533M1473 534L1474 535L1473 534M1472 535L1473 536L1472 535M1470 536L1471 537L1470 536M1611.33 536.667L1611.67 537.333L1611.33 536.667M1469 537L1470 538L1469 537M1467 538L1468 539L1467 538M1466 539L1467 540L1466 539M1464 540L1465 541L1464 540M1610.33 540.667L1610.67 541.333L1610.33 540.667M1462 541L1463 542L1462 541M1461 542L1462 543L1461 542M1459 543L1460 544L1459 543M1458 544L1459 545L1458 544M1609.33 544.667L1609.67 545.333L1609.33 544.667M1456 545L1457 546L1456 545M1454 546L1455 547L1454 546M1451 548L1452 549L1451 548M1608.33 548.667L1608.67 549.333L1608.33 548.667M1449 549L1450 550L1449 549M1447 550L1448 551L1447 550M1445 551L1446 552L1445 551M1444 552L1445 553L1444 552M1607.33 552.667L1607.67 553.333L1607.33 552.667M1442 553L1443 554L1442 553M1440 554L1441 555L1440 554M1438 555L1439 556L1438 555M1606.33 555.667L1606.67 556.333L1606.33 555.667M1436 556L1437 557L1436 556M1434 557L1435 558L1434 557M1432 558L1433 559L1432 558M1430 559L1431 560L1430 559M1605.33 559.667L1605.67 560.333L1605.33 559.667z"/>
<path style="fill:#7f7fff; stroke:none;" d="M1860 559L1861 560L1860 559z"/>
<path style="fill:#afc4ed; stroke:none;" d="M1428 560L1429 561L1428 560M1426 561L1427 562L1426 561M1424.67 562.333L1425.33 562.667L1424.67 562.333M1422.67 563.333L1423.33 563.667L1422.67 563.333M1604 563L1605 564L1604 563M1420 564L1421 565L1420 564M1418 565L1419 566L1418 565M1416 566L1417 567L1416 566M1603.33 566.667L1603.67 567.333L1603.33 566.667M1414 567L1415 568L1414 567M1412 568L1413 569L1412 568M1410 569L1411 570L1410 569M1602.33 569.667L1602.67 570.333L1602.33 569.667M1407 570L1408 571L1407 570M1405 571L1406 572L1405 571M1403 572L1404 573L1403 572M1400.67 573.333L1401.33 573.667L1400.67 573.333M1601 573L1602 574L1601 573M1398 574L1399 575L1398 574z"/>
<path style="fill:#7f7fff; stroke:none;" d="M1867 574L1868 575L1867 574z"/>
<path style="fill:#afc4ed; stroke:none;" d="M1396 575L1397 576L1396 575M1393 576L1394 577L1393 576M1600.33 576.667L1600.67 577.333L1600.33 576.667M1391 577L1392 578L1391 577z"/>
<path style="fill:#ffffff; stroke:none;" d="M85 578L86 579L85 578z"/>
<path style="fill:#afc4ed; stroke:none;" d="M1388 578L1389 579L1388 578M1386 579L1387 580L1386 579M1599.33 579.667L1599.67 580.333L1599.33 579.667M1383 580L1384 581L1383 580M1380.67 581.333L1381.33 581.667L1380.67 581.333M1378 582L1379 583L1378 582M1598.33 582.667L1598.67 583.333L1598.33 582.667M1375 583L1376 584L1375 583z"/>
<path style="fill:#ffffff; stroke:none;" d="M1871 583L1872 584L1871 583z"/>
<path style="fill:#afc4ed; stroke:none;" d="M1372.67 584.333L1373.33 584.667L1372.67 584.333M1369.67 585.333L1370.33 585.667L1369.67 585.333M1597.33 585.667L1597.67 586.333L1597.33 585.667M1366.67 586.333L1367.33 586.667L1366.67 586.333M1363.67 587.333L1364.33 587.667L1363.67 587.333M1360.67 588.333L1361.33 588.667L1360.67 588.333M1357.67 589.333L1358.33 589.667L1357.67 589.333M1596 589L1597 590L1596 589M1354.67 590.333L1355.33 590.667L1354.67 590.333M1351.67 591.333L1352.33 591.667L1351.67 591.333M1348.67 592.333L1349.33 592.667L1348.67 592.333M1595 592L1596 593L1595 592M1345 593L1346 594L1345 593z"/>
<path style="fill:#ffffff; stroke:none;" d="M78 594L79 595L78 594z"/>
<path style="fill:#afc4ed; stroke:none;" d="M1341.67 594.333L1342.33 594.667L1341.67 594.333M1338.67 595.333L1339.33 595.667L1338.67 595.333M1594 595L1595 596L1594 595M1335 596L1336 597L1335 596M1331.67 597.333L1332.33 597.667L1331.67 597.333M1328 598L1329 599L1328 598M1593 598L1594 599L1593 598M1324.67 599.333L1325.33 599.667L1324.67 599.333M1321.67 600.333L1322.33 600.667L1321.67 600.333M1592.33 600.667L1592.67 601.333L1592.33 600.667M1317.67 601.333L1318.33 601.667L1317.67 601.333M1314 602L1315 603L1314 602M1310.67 603.333L1311.33 603.667L1310.67 603.333M1591.33 603.667L1591.67 604.333L1591.33 603.667M1306.67 604.333L1307.33 604.667L1306.67 604.333M1302.67 605.333L1303.33 605.667L1302.67 605.333M1299.67 606.333L1300.33 606.667L1299.67 606.333M1590.33 606.667L1590.67 607.333L1590.33 606.667M1295.67 607.333L1296.33 607.667L1295.67 607.333M1291.67 608.333L1292.33 608.667L1291.67 608.333M1287.67 609.333L1288.33 609.667L1287.67 609.333M1589.33 609.667L1589.67 610.333L1589.33 609.667z"/>
<path style="fill:#ffffff; stroke:none;" d="M1882 609L1883 610L1882 609z"/>
<path style="fill:#afc4ed; stroke:none;" d="M1283.67 610.333L1284.33 610.667L1283.67 610.333z"/>
<path style="fill:#7f7fff; stroke:none;" d="M71 611L72 612L71 611z"/>
<path style="fill:#afc4ed; stroke:none;" d="M1279.67 611.333L1280.33 611.667L1279.67 611.333M1274 612L1274 613L1277 613L1274 612M1588 612L1589 613L1588 612M1270.67 613.333L1271.33 613.667L1270.67 613.333M1266.67 614.333L1267.33 614.667L1266.67 614.333M1262.67 615.333L1263.33 615.667L1262.67 615.333M1587 615L1588 616L1587 615M1257.67 616.333L1258.33 616.667L1257.67 616.333M1253.67 617.333L1254.33 617.667L1253.67 617.333M1586.33 617.667L1586.67 618.333L1586.33 617.667M1248.67 618.333L1249.33 618.667L1248.67 618.333M1243 619L1243 620L1246 620L1243 619M1239.67 620.333L1240.33 620.667L1239.67 620.333M1585 620L1586 621L1585 620M1234.67 621.333L1235.33 621.667L1234.67 621.333M1229.67 622.333L1230.33 622.667L1229.67 622.333M1224.67 623.333L1225.33 623.667L1224.67 623.333M1584 623L1585 624L1584 623M1219.67 624.333L1220.33 624.667L1219.67 624.333M1213 625L1213 626L1216 626L1213 625M1583.33 625.667L1583.67 626.333L1583.33 625.667M1208 626L1208 627L1211 627L1208 626M1202 627L1202 628L1205 628L1202 627M1197.67 628.333L1198.33 628.667L1197.67 628.333M1582 628L1583 629L1582 628M1191 629L1191 630L1194 630L1191 629M1185 630L1185 631L1188 631L1185 630M1581.33 630.667L1581.67 631.333L1581.33 630.667M1179 631L1179 632L1182 632L1179 631M1172 632L1172 633L1175 633L1172 632z"/>
<path style="fill:#7f7fff; stroke:none;" d="M1891 632L1892 633L1891 632z"/>
<path style="fill:#afc4ed; stroke:none;" d="M1166 633L1166 634L1169 634L1166 633M1580 633L1581 634L1580 633M1159 634L1159 635L1162 635L1159 634M1152 635L1152 636L1155 636L1152 635M1144 636L1144 637L1148 637L1144 636M1579 636L1580 637L1579 636M1137 637L1137 638L1141 638L1137 637M1129 638L1129 639L1133 639L1129 638M1578 638L1579 639L1578 638M1120 639L1120 640L1125 640L1120 639M1112 640L1112 641L1116 641L1112 640M1577.33 640.667L1577.67 641.333L1577.33 640.667M1102 641L1102 642L1107 642L1102 641z"/>
<path style="fill:#ffffff; stroke:none;" d="M59 642L60 643L59 642z"/>
<path style="fill:#afc4ed; stroke:none;" d="M1092 642L1092 643L1097 643L1092 642M1081 643L1081 644L1087 644L1081 643M1576 643L1577 644L1576 643M1069 644L1069 645L1076 645L1069 644M1056 645L1056 646L1063 646L1056 645M1575.33 645.667L1575.67 646.333L1575.33 645.667M1041 646L1041 647L1049 647L1041 646M1024 647L1024 648L1033 648L1024 647M1001 648L1001 649L1013 649L1001 648M1574 648L1575 649L1574 648M764 649L764 650L789 650L764 649M964 649L964 650L986 650L964 649M739 650L739 651L747 651L739 650M885 650L885 651L912 651L885 650M1573 650L1574 651L1573 650M726 651L726 652L732 652L726 651M716 652L716 653L721 653L716 652M1572.33 652.667L1572.67 653.333L1572.33 652.667M708 653L708 654L712 654L708 653M702 654L702 655L705 655L702 654z"/>
<path style="fill:#ffffff; stroke:none;" d="M1899 654L1900 655L1899 654z"/>
<path style="fill:#afc4ed; stroke:none;" d="M695 655L695 656L698 656L695 655M1571 655L1572 656L1571 655M689 656L689 657L692 657L689 656M684 657L684 658L687 658L684 657M1570 657L1571 658L1570 657M679.667 658.333L680.333 658.667L679.667 658.333M674 659L674 660L677 660L674 659M1569 659L1570 660L1569 659M670.667 660.333L671.333 660.667L670.667 660.333M665 661L665 662L668 662L665 661M662.667 662.333L663.333 662.667L662.667 662.333M1568 662L1569 663L1568 662M658.667 663.333L659.333 663.667L658.667 663.333M654.667 664.333L655.333 664.667L654.667 664.333M1567 664L1568 665L1567 664M650.667 665.333L651.333 665.667L650.667 665.333M647 666L648 667L647 666M1566 666L1567 667L1566 666M643.667 667.333L644.333 667.667L643.667 667.333z"/>
<path style="fill:#7f7fff; stroke:none;" d="M50 668L51 669L50 668z"/>
<path style="fill:#afc4ed; stroke:none;" d="M640.667 668.333L641.333 668.667L640.667 668.333M1565 668L1566 669L1565 668M637 669L638 670L637 669M633.667 670.333L634.333 670.667L633.667 670.333M1564.33 670.667L1564.67 671.333L1564.33 670.667z"/>
<path style="fill:#ffffff; stroke:none;" d="M49 671L50 672L49 671z"/>
<path style="fill:#afc4ed; stroke:none;" d="M630.667 671.333L631.333 671.667L630.667 671.333M627.667 672.333L628.333 672.667L627.667 672.333M624.667 673.333L625.333 673.667L624.667 673.333M1563 673L1564 674L1563 673M621.667 674.333L622.333 674.667L621.667 674.333M619 675L620 676L619 675M1562 675L1563 676L1562 675M616 676L617 677L616 676M613 677L614 678L613 677M1561 677L1562 678L1561 677M610.667 678.333L611.333 678.667L610.667 678.333M608 679L609 680L608 679M1560 679L1561 680L1560 679M605.667 680.333L606.333 680.667L605.667 680.333M603 681L604 682L603 681M1559 681L1560 682L1559 681M600 682L601 683L600 682M598 683L599 684L598 683M1558 683L1559 684L1558 683M595.667 684.333L596.333 684.667L595.667 684.333z"/>
<path style="fill:#ffffff; stroke:none;" d="M1909 684L1910 685L1909 684z"/>
<path style="fill:#afc4ed; stroke:none;" d="M593 685L594 686L593 685M1557 685L1558 686L1557 685M591 686L592 687L591 686M588.667 687.333L589.333 687.667L588.667 687.333M1556 687L1557 688L1556 687M586 688L587 689L586 688M584 689L585 690L584 689M1555 689L1556 690L1555 689M582 690L583 691L582 690M580 691L581 692L580 691M1554 691L1555 692L1554 691M577.667 692.333L578.333 692.667L577.667 692.333z"/>
<path style="fill:#ffffff; stroke:none;" d="M42 693L43 694L42 693z"/>
<path style="fill:#afc4ed; stroke:none;" d="M575 693L576 694L575 693M1553 693L1554 694L1553 693M573 694L574 695L573 694M571 695L572 696L571 695M1552 695L1553 696L1552 695M569 696L570 697L569 696M567 697L568 698L567 697M1551 697L1552 698L1551 697M565 698L566 699L565 698M563 699L564 700L563 699M1550 699L1551 700L1550 699M561 700L562 701L561 700M559 701L560 702L559 701M1549 701L1550 702L1549 701M557 702L558 703L557 702M555 703L556 704L555 703M1548 703L1549 704L1548 703M554 704L555 705L554 704z"/>
<path style="fill:#7f7fff; stroke:none;" d="M1915 704L1916 705L1915 704z"/>
<path style="fill:#afc4ed; stroke:none;" d="M552 705L553 706L552 705M1547 705L1548 706L1547 705M550 706L551 707L550 706M548 707L549 708L548 707M1546 707L1547 708L1546 707M546 708L547 709L546 708M545 709L546 710L545 709M1545 709L1546 710L1545 709z"/>
<path style="fill:#ffffff; stroke:none;" d="M37 710L38 711L37 710z"/>
<path style="fill:#afc4ed; stroke:none;" d="M543 710L544 711L543 710M541 711L542 712L541 711M1544 711L1545 712L1544 711M540 712L541 713L540 712M1543 712L1544 713L1543 712M538 713L539 714L538 713M536 714L537 715L536 714M1542 714L1543 715L1542 714M533 716L534 717L533 716M1541 716L1542 717L1541 716M531 717L532 718L531 717M530 718L531 719L530 718M1540 718L1541 719L1540 718M528 719L529 720L528 719M1539 720L1540 721L1539 720M525 721L526 722L525 721M523 722L524 723L523 722M1538 722L1539 723L1538 722z"/>
<path style="fill:#7f7fff; stroke:none;" d="M1920 722L1921 723L1920 722z"/>
<path style="fill:#afc4ed; stroke:none;" d="M522 723L523 724L522 723M1537 723L1538 724L1537 723M520 724L521 725L520 724M519 725L520 726L519 725M1536 725L1537 726L1536 725M517 726L518 727L517 726M516 727L517 728L516 727M1535 727L1536 728L1535 727M514 728L515 729L514 728M513 729L514 730L513 729M1534 729L1535 730L1534 729M1533 730L1534 731L1533 730M510 731L511 732L510 731M1532 732L1533 733L1532 732M507 733L508 734L507 733z"/>
<path style="fill:#ffffff; stroke:none;" d="M1923 733L1924 734L1923 733z"/>
<path style="fill:#afc4ed; stroke:none;" d="M506 734L507 735L506 734M1531 734L1532 735L1531 734M504 735L505 736L504 735M503 736L504 737L503 736M502 737L503 738L502 737M1529 737L1530 738L1529 737z"/>
<path style="fill:#ffffff; stroke:none;" d="M1924 737L1925 738L1924 737z"/>
<path style="fill:#afc4ed; stroke:none;" d="M500 738L501 739L500 738M499 739L500 740L499 739M1528 739L1529 740L1528 739M496 741L497 742L496 741M1527 741L1528 742L1527 741z"/>
<path style="fill:#ffffff; stroke:none;" d="M1925 741L1926 742L1925 741z"/>
<path style="fill:#afc4ed; stroke:none;" d="M495 742L496 743L495 742M1526 742L1527 743L1526 742M494 743L495 744L494 743M492 744L493 745L492 744M1525 744L1526 745L1525 744M491 745L492 746L491 745M490 746L491 747L490 746M1523 747L1524 748L1523 747M487 748L488 749L487 748M486 749L487 750L486 749M1522 749L1523 750L1522 749M485 750L486 751L485 750M1521 750L1522 751L1521 750M482 752L483 753L482 752M1520 752L1521 753L1520 752M481 753L482 754L481 753M480 754L481 755L480 754M479 755L480 756L479 755M1518 755L1519 756L1518 755M1517 757L1518 758L1517 757M475 758L476 759L475 758M1516 758L1517 759L1516 758M474 759L475 760L474 759M473 760L474 761L473 760M1515 760L1516 761L1515 760M472 761L473 762L472 761M1514 761L1515 762L1514 761M1513 763L1514 764L1513 763M468 764L469 765L468 764M1512 764L1513 765L1512 764M467 765L468 766L467 765M466 766L467 767L466 766M1511 766L1512 767L1511 766M465 767L466 768L465 767M1510 767L1511 768L1510 767M464 768L465 769L464 768M463 769L464 770L463 769M462 770L463 771L462 770M1508 770L1509 771L1508 770M461 771L462 772L461 771M1506 773L1507 774L1506 773M1505 774L1506 775L1505 774M1504 776L1505 777L1504 776M1503 777L1504 778L1503 777M451 780L452 781L451 780M1501 780L1502 781L1501 780M1500 781L1501 782L1500 781z"/>
<path style="fill:#7f7fff; stroke:none;" d="M1934 781L1935 782L1934 781z"/>
<path style="fill:#afc4ed; stroke:none;" d="M1499 783L1500 784L1499 783M1498 784L1499 785L1498 784z"/>
<path style="fill:#7f7fff; stroke:none;" d="M19 785L20 786L19 785z"/>
<path style="fill:#afc4ed; stroke:none;" d="M1497 785L1498 786L1497 785z"/>
<path style="fill:#7f7fff; stroke:none;" d="M1935 786L1936 787L1935 786z"/>
<path style="fill:#afc4ed; stroke:none;" d="M1496 787L1497 788L1496 787M1495 788L1496 789L1495 788M1494 789L1495 790L1494 789z"/>
<path style="fill:#7f7fff; stroke:none;" d="M18 790L19 791L18 790z"/>
<path style="fill:#afc4ed; stroke:none;" d="M1493 791L1494 792L1493 791z"/>
<path style="fill:#ffffff; stroke:none;" d="M1936 791L1937 792L1936 791z"/>
<path style="fill:#afc4ed; stroke:none;" d="M440 792L441 793L440 792M1492 792L1493 793L1492 792M439 793L440 794L439 793M1491 793L1492 794L1491 793M438 794L439 795L438 794M437 795L438 796L437 795M436 796L437 797L436 796M1489 796L1490 797L1489 796M435 797L436 798L435 797M1488 797L1489 798L1488 797M434 798L435 799L434 798M1487 798L1488 799L1487 798M1485 801L1486 802L1485 801M1484 802L1485 803L1484 802M430 803L431 804L430 803M1483 803L1484 804L1483 803M429 804L430 805L429 804M428 805L429 806L428 805M427 806L428 807L427 806M1481 806L1482 807L1481 806M1480 807L1481 808L1480 807M1479 808L1480 809L1479 808M1478 809L1479 810L1478 809M424 810L425 811L424 810M423 811L424 812L423 811z"/>
<path style="fill:#ffffff; stroke:none;" d="M14 812L15 813L14 812z"/>
<path style="fill:#afc4ed; stroke:none;" d="M422 812L423 813L422 812M421 813L422 814L421 813M1475 813L1476 814L1475 813M1474 814L1475 815L1474 814M1473 815L1474 816L1473 815M419 816L420 817L419 816M1472 816L1473 817L1472 816M418 817L419 818L418 817z"/>
<path style="fill:#7f7fff; stroke:none;" d="M13 818L14 819L13 818z"/>
<path style="fill:#afc4ed; stroke:none;" d="M417 818L418 819L417 818M415 821L416 822L415 821M1468 821L1469 822L1468 821M414 822L415 823L414 822M1467 822L1468 823L1467 822M1466 823L1467 824L1466 823M1465 824L1466 825L1465 824M1464 825L1465 826L1464 825M411 826L412 827L411 826M1463 826L1464 827L1463 826M410 827L411 828L410 827M1462 827L1463 828L1462 827M1461 828L1462 829L1461 828M408 830L409 831L408 830M407 831L408 832L407 831M406 833L407 834L406 833M405 834L406 835L405 834M404 835L405 836L404 835M403 837L404 838L403 837M402 838L403 839L402 838M400 841L401 842L400 841M398 844L399 845L398 844M397 845L398 846L397 845M396 847L397 848L396 847M395 848L396 849L395 848M394 850L395 851L394 850M1439 850L1440 851L1439 850M393 851L394 852L393 851M1438 851L1439 852L1438 851M1437 852L1438 853L1437 852M392 853L393 854L392 853M1436 853L1437 854L1436 853M391 854L392 855L391 854M1435 854L1436 855L1435 854M1434 855L1435 856L1434 855M390 856L391 857L390 856M1433 856L1434 857L1433 856M388 859L389 860L388 859M1428 860L1429 861L1428 860M387 861L388 862L387 861M1427 861L1428 862L1427 861M386 862L387 863L386 862M1426 862L1427 863L1426 862M1425 863L1426 864L1425 863M385 864L386 865L385 864M1421 866L1422 867L1421 866M383 867L384 868L383 867M1420 867L1421 868L1420 867M1419 868L1420 869L1419 868M382 869L383 870L382 869M1415 871L1416 872L1415 871M380 872L381 873L380 872M1414 872L1415 873L1414 872M1413 873L1414 874L1413 873M379 874L380 875L379 874M1410 875L1411 876L1410 875M378 876L379 877L378 876M1409 876L1410 877L1409 876M1408 877L1409 878L1408 877z"/>
<path style="fill:#ffffff; stroke:none;" d="M5 879L6 880L5 879z"/>
<path style="fill:#afc4ed; stroke:none;" d="M376 879L377 880L376 879M1405 879L1406 880L1405 879M1404 880L1405 881L1404 880M375 881L376 882L375 881M1401 882L1402 883L1401 882M374 883L375 884L374 883M1400 883L1401 884L1400 883M373 885L374 886L373 885M1397 885L1398 886L1397 885M1396 886L1397 887L1396 886M372 887L373 888L372 887M1393 888L1394 889L1393 888M370 890L371 891L370 890M1390 890L1391 891L1390 890M1389 891L1390 892L1389 891M369 892L370 893L369 892M1387 892L1388 893L1387 892M1386 893L1387 894L1386 893M368 894L369 895L368 894M1383 895L1384 896L1383 895M367 896L368 897L367 896M1380 897L1381 898L1380 897M366 898L367 899L366 898M1377 899L1378 900L1377 899M365 900L366 901L365 900M1374 901L1375 902L1374 901M364 902L365 903L364 902M1372 902L1373 903L1372 902M1371 903L1372 904L1371 903M363 904L364 905L363 904M1369 904L1370 905L1369 904M1368 905L1369 906L1368 905M362.333 906.667L362.667 907.333L362.333 906.667M1366 906L1367 907L1366 906M1364 907L1365 908L1364 907M1363 908L1364 909L1363 908M361 909L362 910L361 909M1361 909L1362 910L1361 909M1359 910L1360 911L1359 910M360 911L361 912L360 911M1358 911L1359 912L1358 911M1356 912L1357 913L1356 912M359 913L360 914L359 913M1354 913L1355 914L1354 913M1353 914L1354 915L1353 914M358 915L359 916L358 915M1351 915L1352 916L1351 915M1349 916L1350 917L1349 916M357.333 917.667L357.667 918.333L357.333 917.667M1347 917L1348 918L1347 917M1345 918L1346 919L1345 918M1344 919L1345 920L1344 919M356 920L357 921L356 920M1342 920L1343 921L1342 920M1340 921L1341 922L1340 921M355 922L356 923L355 922M1338 922L1339 923L1338 922M1336 923L1337 924L1336 923M354.333 924.667L354.667 925.333L354.333 924.667M1334 924L1335 925L1334 924M1332 925L1333 926L1332 925M1330 926L1331 927L1330 926M353 927L354 928L353 927M1328 927L1329 928L1328 927M1326 928L1327 929L1326 928M352.333 929.667L352.667 930.333L352.333 929.667M1324 929L1325 930L1324 929M1469 929L1470 930L1469 929M1322 930L1323 931L1322 930M1468 930L1469 931L1468 930M1320 931L1321 932L1320 931M1466 931L1467 932L1466 931M351 932L352 933L351 932M1318 932L1319 933L1318 932M1465 932L1466 933L1465 932M1316 933L1317 934L1316 933M350.333 934.667L350.667 935.333L350.333 934.667M1314 934L1315 935L1314 934M1469.33 934.667L1469.67 935.333L1469.33 934.667M1311.67 935.333L1312.33 935.667L1311.67 935.333M1309 936L1310 937L1309 936M349 937L350 938L349 937M1307 937L1308 938L1307 937M1468 937L1469 938L1468 937M1305 938L1306 939L1305 938M348.333 939.667L348.667 940.333L348.333 939.667M1302.67 939.333L1303.33 939.667L1302.67 939.333M1467 939L1468 940L1467 939M1300 940L1301 941L1300 940M1298 941L1299 942L1298 941M1466 941L1467 942L1466 941M347.333 942.667L347.667 943.333L347.333 942.667M1295.67 942.333L1296.33 942.667L1295.67 942.333z"/>
<path style="fill:#ffffff; stroke:none;" d="M1953 942L1954 943L1953 942z"/>
<path style="fill:#afc4ed; stroke:none;" d="M1293 943L1294 944L1293 943M1465 943L1466 944L1465 943M1290.67 944.333L1291.33 944.667L1290.67 944.333M346 945L347 946L346 945M1288 945L1289 946L1288 945M1451 945L1452 946L1451 945M1464 945L1465 946L1464 945M1285.67 946.333L1286.33 946.667L1285.67 946.333M1450 946L1451 947L1450 946M1283 947L1284 948L1283 947M1449 947L1450 948L1449 947M1463 947L1464 948L1463 947M345 948L346 949L345 948M1280 948L1281 949L1280 948M1448 948L1449 949L1448 948M1277.67 949.333L1278.33 949.667L1277.67 949.333M1447 949L1448 950L1447 949M1462 949L1463 950L1462 949M1275 950L1276 951L1275 950M1461 950L1462 951L1461 950M344 951L345 952L344 951M1272 951L1273 952L1272 951M1269 952L1270 953L1269 952M1443 952L1444 953L1443 952M1460 952L1461 953L1460 952M343.333 953.667L343.667 954.333L343.333 953.667M1266.67 953.333L1267.33 953.667L1266.67 953.333M1442 953L1443 954L1442 953M1263.67 954.333L1264.33 954.667L1263.67 954.333M1441 954L1442 955L1441 954M1459 954L1460 955L1459 954M1260.67 955.333L1261.33 955.667L1260.67 955.333M342.333 956.667L342.667 957.333L342.333 956.667M1257.67 956.333L1258.33 956.667L1257.67 956.333M1438 956L1439 957L1438 956M1458 956L1459 957L1458 956M1254.67 957.333L1255.33 957.667L1254.67 957.333M1437 957L1438 958L1437 957M1251 958L1252 959L1251 958M1457 958L1458 959L1457 958M341.333 959.667L341.667 960.333L341.333 959.667M1248 959L1249 960L1248 959M1434 959L1435 960L1434 959M1244.67 960.333L1245.33 960.667L1244.67 960.333M1433 960L1434 961L1433 960M1456 960L1457 961L1456 960M1241.67 961.333L1242.33 961.667L1241.67 961.333M1431 961L1432 962L1431 961M1455 961L1456 962L1455 961M1237.67 962.333L1238.33 962.667L1237.67 962.333M1430 962L1431 963L1430 962M340 963L341 964L340 963M1234.67 963.333L1235.33 963.667L1234.67 963.333M1454 963L1455 964L1454 963M1230.67 964.333L1231.33 964.667L1230.67 964.333M1427 964L1428 965L1427 964M1226.67 965.333L1227.33 965.667L1226.67 965.333M1453 965L1454 966L1453 965M339 966L340 967L339 966M1222.67 966.333L1223.33 966.667L1222.67 966.333M1424 966L1425 967L1424 966M1218.67 967.333L1219.33 967.667L1218.67 967.333M1422 967L1423 968L1422 967M1213.67 968.333L1214.33 968.667L1213.67 968.333M1421 968L1422 969L1421 968M1451 968L1452 969L1451 968M338.333 969.667L338.667 970.333L338.333 969.667M1208.67 969.333L1209.33 969.667L1208.67 969.333M1419 969L1420 970L1419 969M970 970L971 971L970 970M976 970L976 971L980 971L976 970M1202 970L1202 971L1205 971L1202 970M1417 970L1418 971L1417 970M1450 970L1451 971L1450 970M983 971L983 972L986 972L983 971M1196 971L1196 972L1199 972L1196 971M1416 971L1417 972L1416 971M1449 971L1450 972L1449 971M989 972L989 973L992 973L989 972M1189 972L1189 973L1192 973L1189 972M1414 972L1415 973L1414 972M337 973L338 974L337 973M995 973L995 974L998 974L995 973M1181 973L1181 974L1185 974L1181 973M1412 973L1413 974L1412 973M1448 973L1449 974L1448 973M1001 974L1001 975L1005 975L1001 974M1172 974L1172 975L1176 975L1172 974M1410 974L1411 975L1410 974M1447 974L1448 975L1447 974M971 975L972 976L971 975M1009 975L1009 976L1014 976L1009 975M1160 975L1160 976L1166 976L1160 975M1408 975L1409 976L1408 975M336.333 976.667L336.667 977.333L336.333 976.667M973 976L974 977L973 976M1018 976L1018 977L1024 977L1018 976M1145 976L1145 977L1153 977L1145 976M1407 976L1408 977L1407 976M1446 976L1447 977L1446 976M974.667 977.333L975.333 977.667L974.667 977.333M1029 977L1029 978L1037 978L1029 977M1126 977L1126 978L1136 978L1126 977M1405 977L1406 978L1405 977M1445 977L1446 978L1445 977M977 978L978 979L977 978M1045 978L1045 979L1059 979L1045 978M1097 978L1097 979L1114 979L1097 978M1403 978L1404 979L1403 978M979 979L980 980L979 979M1401 979L1402 980L1401 979M1444 979L1445 980L1444 979M335.333 980.667L335.667 981.333L335.333 980.667M982 980L983 981L982 980M1398.67 980.333L1399.33 980.667L1398.67 980.333M1443 980L1444 981L1443 980M984 981L985 982L984 981M1396.67 981.333L1397.33 981.667L1396.67 981.333M986.667 982.333L987.333 982.667L986.667 982.333M1394 982L1395 983L1394 982M1442 982L1443 983L1442 982M334.333 983.667L334.667 984.333L334.333 983.667M989 983L990 984L989 983M1392 983L1393 984L1392 983M1441 983L1442 984L1441 983M992 984L993 985L992 984M1390 984L1391 985L1390 984M994 985L995 986L994 985M1387.67 985.333L1388.33 985.667L1387.67 985.333M997 986L998 987L997 986M1385 986L1386 987L1385 986M1439 986L1440 987L1439 986M333.333 987.667L333.667 988.333L333.333 987.667M999 987L1000 988L999 987M1383 987L1384 988L1383 987M1438 987L1439 988L1438 987M1002 988L1003 989L1002 988M1380 988L1381 989L1380 988M1005 989L1006 990L1005 989M1378 989L1379 990L1378 989M1007 990L1008 991L1007 990M1375 990L1376 991L1375 990M1436 990L1437 991L1436 990M332.333 991.667L332.667 992.333L332.333 991.667M1010 991L1011 992L1010 991M1372.67 991.333L1373.33 991.667L1372.67 991.333M1435 991L1436 992L1435 991M1013 992L1014 993L1013 992M1370 992L1371 993L1370 992M1015.67 993.333L1016.33 993.667L1015.67 993.333M1367 993L1368 994L1367 993M1434 993L1435 994L1434 993M1018.67 994.333L1019.33 994.667L1018.67 994.333M1364.67 994.333L1365.33 994.667L1364.67 994.333M1433 994L1434 995L1433 994M331 995L331 998L332 998L331 995M1021 995L1022 996L1021 995M1361.67 995.333L1362.33 995.667L1361.67 995.333M1432 995L1433 996L1432 995M1024 996L1025 997L1024 996M1358.67 996.333L1359.33 996.667L1358.67 996.333M1027 997L1028 998L1027 997M1355.67 997.333L1356.33 997.667L1355.67 997.333M1030 998L1031 999L1030 998M1352.67 998.333L1353.33 998.667L1352.67 998.333M1430 998L1431 999L1430 998M1033.67 999.333L1034.33 999.667L1033.67 999.333M1349.67 999.333L1350.33 999.667L1349.67 999.333M1429 999L1430 1000L1429 999M330.333 1000.67L330.667 1001.33L330.333 1000.67M1036.67 1000.33L1037.33 1000.67L1036.67 1000.33M1346.67 1000.33L1347.33 1000.67L1346.67 1000.33M1428 1000L1429 1001L1428 1000M1039.67 1001.33L1040.33 1001.67L1039.67 1001.33M1343 1001L1344 1002L1343 1001M1043 1002L1044 1003L1043 1002M1339.67 1002.33L1340.33 1002.67L1339.67 1002.33M1046.67 1003.33L1047.33 1003.67L1046.67 1003.33M1336.67 1003.33L1337.33 1003.67L1336.67 1003.33M1426 1003L1427 1004L1426 1003M1049.67 1004.33L1050.33 1004.67L1049.67 1004.33M1332.67 1004.33L1333.33 1004.67L1332.67 1004.33M1425 1004L1426 1005L1425 1004M329.333 1005.67L329.667 1006.33L329.333 1005.67M1053 1005L1054 1006L1053 1005M1329.67 1005.33L1330.33 1005.67L1329.67 1005.33M1424 1005L1425 1006L1424 1005M1056.67 1006.33L1057.33 1006.67L1056.67 1006.33M1325.67 1006.33L1326.33 1006.67L1325.67 1006.33M1423 1006L1424 1007L1423 1006M1060.67 1007.33L1061.33 1007.67L1060.67 1007.33M1321.67 1007.33L1322.33 1007.67L1321.67 1007.33M1064 1008L1065 1009L1064 1008M1317.67 1008.33L1318.33 1008.67L1317.67 1008.33M328 1009L328 1012L329 1012L328 1009M1067.67 1009.33L1068.33 1009.67L1067.67 1009.33M1313.67 1009.33L1314.33 1009.67L1313.67 1009.33M1072.67 1010.33L1073.33 1010.67L1072.67 1010.33M1309.67 1010.33L1310.33 1010.67L1309.67 1010.33M1420 1010L1421 1011L1420 1010M1075 1011L1075 1012L1078 1012L1075 1011M1304.67 1011.33L1305.33 1011.67L1304.67 1011.33M1419 1011L1420 1012L1419 1011M1080.67 1012.33L1081.33 1012.67L1080.67 1012.33M1299 1012L1299 1013L1302 1013L1299 1012M1418 1012L1419 1013L1418 1012z"/>
<path style="fill:#010101; stroke:none;" d="M1953 1012C1953 1086.07 1939.49 1161.61 1920.15 1233C1830.49 1564.05 1564.11 1830.58 1233 1920.15C1161.6 1939.47 1086.09 1953 1012 1953L1012 1954L1954 1954L1954 1285L1954 1092L1954 1037L1953 1012z"/>
<path style="fill:#afc4ed; stroke:none;" d="M1084.67 1013.33L1085.33 1013.67L1084.67 1013.33M1294 1013L1294 1014L1297 1014L1294 1013M1417 1013L1418 1014L1417 1013M1089.67 1014.33L1090.33 1014.67L1089.67 1014.33M1289 1014L1289 1015L1292 1015L1289 1014M1416 1014L1417 1015L1416 1014M327.333 1015.67L327.667 1016.33L327.333 1015.67M1093 1015L1093 1016L1096 1016L1093 1015M1284 1015L1284 1016L1287 1016L1284 1015M1415 1015L1416 1016L1415 1015M1098 1016L1098 1017L1101 1017L1098 1016M1278 1016L1278 1017L1281 1017L1278 1016M1104 1017L1104 1018L1107 1018L1104 1017M1272 1017L1272 1018L1275 1018L1272 1017M1110.67 1018.33L1111.33 1018.67L1110.67 1018.33M1266 1018L1266 1019L1269 1019L1266 1018M1115 1019L1115 1020L1119 1020L1115 1019M1258 1019L1258 1020L1262 1020L1258 1019M326 1020L326 1023L327 1023L326 1020M1122 1020L1122 1021L1126 1021L1122 1020M1251 1020L1251 1021L1255 1021L1251 1020M1129 1021L1129 1022L1134 1022L1129 1021M1242 1021L1242 1022L1247 1022L1242 1021M1138 1022L1138 1023L1143 1023L1138 1022M1232 1022L1232 1023L1238 1023L1232 1022M1409 1022L1410 1023L1409 1022M1148 1023L1148 1024L1155 1024L1148 1023M1220 1023L1220 1024L1227 1024L1220 1023M1408 1023L1409 1024L1408 1023M1161 1024L1161 1025L1173 1025L1161 1024M1201 1024L1201 1025L1213 1025L1201 1024M1407 1024L1408 1025L1407 1024M1406 1025L1407 1026L1406 1025M325 1026L325 1029L326 1029L325 1026M1405 1026L1406 1027L1405 1026M1404 1027L1405 1028L1404 1027M1403 1028L1404 1029L1403 1028M1402 1029L1403 1030L1402 1029M1401 1030L1402 1031L1401 1030M1400 1031L1401 1032L1400 1031M324 1033L324 1036L325 1036L324 1033M1391 1039L1392 1040L1391 1039M323 1040L323 1044L324 1044L323 1040M1390 1040L1391 1041L1390 1040M1389 1041L1390 1042L1389 1041M1388 1042L1389 1043L1388 1042M1387 1043L1388 1044L1387 1043M1382 1047L1383 1048L1382 1047M322 1048L322 1053L323 1053L322 1048M1381 1048L1382 1049L1381 1048M1380 1049L1381 1050L1380 1049z"/>
<path style="fill:#ffffff; stroke:none;" d="M1951 1049L1952 1050L1951 1049M3 1052L4 1053L3 1052z"/>
<path style="fill:#afc4ed; stroke:none;" d="M1376 1052L1377 1053L1376 1052M1375 1053L1376 1054L1375 1053M1374 1054L1375 1055L1374 1054M1371 1056L1372 1057L1371 1056M1370 1057L1371 1058L1370 1057M321 1058L321 1065L322 1065L321 1058M1369 1058L1370 1059L1369 1058M1366 1060L1367 1061L1366 1060M1365 1061L1366 1062L1365 1061M1362 1063L1363 1064L1362 1063M1361 1064L1362 1065L1361 1064M1358 1066L1359 1067L1358 1066M1357 1067L1358 1068L1357 1067M1354 1069L1355 1070L1354 1069M1351 1071L1352 1072L1351 1071M320 1072L320 1085L321 1085L320 1072M1350 1072L1351 1073L1350 1072M1348 1073L1349 1074L1348 1073M1347 1074L1348 1075L1347 1074M1345 1075L1346 1076L1345 1075M1344 1076L1345 1077L1344 1076M1342 1077L1343 1078L1342 1077M1341 1078L1342 1079L1341 1078M1339 1079L1340 1080L1339 1079M1338 1080L1339 1081L1338 1080M1336 1081L1337 1082L1336 1081M1333 1083L1334 1084L1333 1083M1331 1084L1332 1085L1331 1084M1330 1085L1331 1086L1330 1085M1328 1086L1329 1087L1328 1086M1326 1087L1327 1088L1326 1087M1325 1088L1326 1089L1325 1088M1323 1089L1324 1090L1323 1089M1321 1090L1322 1091L1321 1090M1319 1091L1320 1092L1319 1091M1429 1091L1429 1092L1433 1093L1429 1091M1318 1092L1319 1093L1318 1092M1426 1092L1427 1093L1426 1092M1316 1093L1317 1094L1316 1093M1424 1093L1425 1094L1424 1093M1314 1094L1315 1095L1314 1094M1423 1094L1424 1095L1423 1094M1431 1094L1432 1095L1431 1094M1312 1095L1313 1096L1312 1095M1422 1095L1423 1096L1422 1095M1310 1096L1311 1097L1310 1096M1430 1096L1431 1097L1430 1096M1307 1098L1308 1099L1307 1098M1429 1098L1430 1099L1429 1098M1305 1099L1306 1100L1305 1099M1303 1100L1304 1101L1303 1100M1428 1100L1429 1101L1428 1100M1301 1101L1302 1102L1301 1101M1299 1102L1300 1103L1299 1102M1427 1102L1428 1103L1427 1102M1297 1103L1298 1104L1297 1103M1413 1103L1414 1104L1413 1103M1426.33 1103.67L1426.67 1104.33L1426.33 1103.67M1294.67 1104.33L1295.33 1104.67L1294.67 1104.33M1412 1104L1413 1105L1412 1104M1292 1105L1293 1106L1292 1105M1425 1105L1426 1106L1425 1105M1290 1106L1291 1107L1290 1106M1409 1106L1410 1107L1409 1106M1288 1107L1289 1108L1288 1107M1408 1107L1409 1108L1408 1107M1424 1107L1425 1108L1424 1107M1286 1108L1287 1109L1286 1108M1407 1108L1408 1109L1407 1108z"/>
<path style="fill:#ffffff; stroke:none;" d="M9 1109L10 1110L9 1109z"/>
<path style="fill:#afc4ed; stroke:none;" d="M320 1109L320 1122L321 1122L320 1109M1283.67 1109.33L1284.33 1109.67L1283.67 1109.33M1405 1109L1406 1110L1405 1109M1423 1109L1424 1110L1423 1109M1281 1110L1282 1111L1281 1110M1404 1110L1405 1111L1404 1110M1279 1111L1280 1112L1279 1111M1403 1111L1404 1112L1403 1111M1422 1111L1423 1112L1422 1111M1276.67 1112.33L1277.33 1112.67L1276.67 1112.33M1401 1112L1402 1113L1401 1112M1274 1113L1275 1114L1274 1113M1400 1113L1401 1114L1400 1113M1421 1113L1422 1114L1421 1113M1271.67 1114.33L1272.33 1114.67L1271.67 1114.33M1269 1115L1270 1116L1269 1115M1397 1115L1398 1116L1397 1115M1420 1115L1421 1116L1420 1115M1266 1116L1267 1117L1266 1116M1396 1116L1397 1117L1396 1116M1419 1116L1420 1117L1419 1116M1263.67 1117.33L1264.33 1117.67L1263.67 1117.33M1261 1118L1262 1119L1261 1118M1393 1118L1394 1119L1393 1118M1418 1118L1419 1119L1418 1118M1258 1119L1259 1120L1258 1119M1255 1120L1256 1121L1255 1120M1390 1120L1391 1121L1390 1120M1417 1120L1418 1121L1417 1120M1252.67 1121.33L1253.33 1121.67L1252.67 1121.33M1389 1121L1390 1122L1389 1121M1416 1121L1417 1122L1416 1121M1249.67 1122.33L1250.33 1122.67L1249.67 1122.33M1387 1122L1388 1123L1387 1122z"/>
<path style="fill:#ffffff; stroke:none;" d="M11 1123L12 1124L11 1123z"/>
<path style="fill:#afc4ed; stroke:none;" d="M1246.67 1123.33L1247.33 1123.67L1246.67 1123.33M1386 1123L1387 1124L1386 1123M1415 1123L1416 1124L1415 1123M1242.67 1124.33L1243.33 1124.67L1242.67 1124.33M1384 1124L1385 1125L1384 1124M1239.67 1125.33L1240.33 1125.67L1239.67 1125.33M1236 1126L1237 1127L1236 1126M1381 1126L1382 1127L1381 1126M1413 1126L1414 1127L1413 1126M1232.67 1127.33L1233.33 1127.67L1232.67 1127.33M1379 1127L1380 1128L1379 1127M1228.67 1128.33L1229.33 1128.67L1228.67 1128.33M1378 1128L1379 1129L1378 1128M1412 1128L1413 1129L1412 1128M1224.67 1129.33L1225.33 1129.67L1224.67 1129.33M1376 1129L1377 1130L1376 1129M1411 1129L1412 1130L1411 1129M321 1130L321 1136L322 1136L321 1130M1220.67 1130.33L1221.33 1130.67L1220.67 1130.33M1375 1130L1376 1131L1375 1130M1215.67 1131.33L1216.33 1131.67L1215.67 1131.33M1373 1131L1374 1132L1373 1131M1410 1131L1411 1132L1410 1131M1210 1132L1210 1133L1213 1133L1210 1132M1371 1132L1372 1133L1371 1132M1409 1132L1410 1133L1409 1132M1205.67 1133.33L1206.33 1133.67L1205.67 1133.33M1198 1134L1198 1135L1202 1135L1198 1134M1368 1134L1369 1135L1368 1134M1191 1135L1191 1136L1195 1136L1191 1135M1366 1135L1367 1136L1366 1135M1407 1135L1408 1136L1407 1135M1071 1136L1071 1137L1083 1137L1071 1136M1182 1136L1182 1137L1187 1137L1182 1136M1364 1136L1365 1137L1364 1136M1068 1137L1069 1138L1068 1137M1094 1137L1094 1138L1114 1138L1094 1137M1168 1137L1168 1138L1176 1138L1168 1137M1362 1137L1363 1138L1362 1137M1405 1138L1406 1139L1405 1138M1067.33 1139.67L1067.67 1140.33L1067.33 1139.67M1359 1139L1360 1140L1359 1139M1404 1139L1405 1140L1404 1139M1357 1140L1358 1141L1357 1140M322 1141L322 1146L323 1146L322 1141M1355 1141L1356 1142L1355 1141M1353 1142L1354 1143L1353 1142M1402 1142L1403 1143L1402 1142M1070 1143L1071 1144L1070 1143M1351 1143L1352 1144L1351 1143M1401 1143L1402 1144L1401 1143M1072 1144L1073 1145L1072 1144M1349 1144L1350 1145L1349 1144M1075.67 1145.33L1076.33 1145.67L1075.67 1145.33M1346.67 1145.33L1347.33 1145.67L1346.67 1145.33M1079 1146L1080 1147L1079 1146M1344 1146L1345 1147L1344 1146M1399 1146L1400 1147L1399 1146M1082 1147L1083 1148L1082 1147M1342 1147L1343 1148L1342 1147M1398 1147L1399 1148L1398 1147M1085.67 1148.33L1086.33 1148.67L1085.67 1148.33M1340 1148L1341 1149L1340 1148M1397 1148L1398 1149L1397 1148M1089.67 1149.33L1090.33 1149.67L1089.67 1149.33M1337 1149L1338 1150L1337 1149M1092.67 1150.33L1093.33 1150.67L1092.67 1150.33M1335 1150L1336 1151L1335 1150M323 1151L323 1155L324 1155L323 1151M1096.67 1151.33L1097.33 1151.67L1096.67 1151.33M1332 1151L1333 1152L1332 1151M1395 1151L1396 1152L1395 1151M1100.67 1152.33L1101.33 1152.67L1100.67 1152.33M1330 1152L1331 1153L1330 1152M1394 1152L1395 1153L1394 1152z"/>
<path style="fill:#ffffff; stroke:none;" d="M1938 1152L1939 1153L1938 1152z"/>
<path style="fill:#afc4ed; stroke:none;" d="M1103.67 1153.33L1104.33 1153.67L1103.67 1153.33M1327 1153L1328 1154L1327 1153M1393 1153L1394 1154L1393 1153M1107.67 1154.33L1108.33 1154.67L1107.67 1154.33M1324 1154L1325 1155L1324 1154M1112.67 1155.33L1113.33 1155.67L1112.67 1155.33M1321.67 1155.33L1322.33 1155.67L1321.67 1155.33M1115.67 1156.33L1116.33 1156.67L1115.67 1156.33M1318.67 1156.33L1319.33 1156.67L1318.67 1156.33M1120.67 1157.33L1121.33 1157.67L1120.67 1157.33M1315 1157L1316 1158L1315 1157M1390 1157L1391 1158L1390 1157M1124.67 1158.33L1125.33 1158.67L1124.67 1158.33M1311.67 1158.33L1312.33 1158.67L1311.67 1158.33M1389 1158L1390 1159L1389 1158M324 1159L324 1162L325 1162L324 1159M1128 1159L1128 1160L1131 1160L1128 1159M1307.67 1159.33L1308.33 1159.67L1307.67 1159.33M1388 1159L1389 1160L1388 1159M1133 1160L1133 1161L1136 1161L1133 1160M1304.67 1160.33L1305.33 1160.67L1304.67 1160.33M1387 1160L1388 1161L1387 1160M1138.67 1161.33L1139.33 1161.67L1138.67 1161.33M1299.67 1161.33L1300.33 1161.67L1299.67 1161.33M1386 1161L1387 1162L1386 1161M1143 1162L1143 1163L1146 1163L1143 1162M1295.67 1162.33L1296.33 1162.67L1295.67 1162.33M1385 1162L1386 1163L1385 1162M1148 1163L1148 1164L1151 1164L1148 1163M1289 1163L1289 1164L1292 1164L1289 1163M1154 1164L1154 1165L1157 1165L1154 1164M1284 1164L1284 1165L1287 1165L1284 1164M1160 1165L1160 1166L1163 1166L1160 1165M1278 1165L1278 1166L1281 1166L1278 1165M325 1166L325 1169L326 1169L325 1166M1167 1166L1167 1167L1171 1167L1167 1166M1271 1166L1271 1167L1274 1167L1271 1166M1175 1167L1175 1168L1179 1168L1175 1167M1263 1167L1263 1168L1267 1168L1263 1167M1184 1168L1184 1169L1189 1169L1184 1168M1253 1168L1253 1169L1258 1169L1253 1168M1195 1169L1195 1170L1204 1170L1195 1169M1238 1169L1238 1170L1247 1170L1238 1169M326 1172L326 1175L327 1175L326 1172M1373 1174L1374 1175L1373 1174M1372 1175L1373 1176L1372 1175M1371 1176L1372 1177L1371 1176M1370 1177L1371 1178L1370 1177M327 1178L327 1181L328 1181L327 1178M1369 1178L1370 1179L1369 1178M1368 1179L1369 1180L1368 1179M1364 1182L1365 1183L1364 1182M328 1183L328 1186L329 1186L328 1183M1363 1183L1364 1184L1363 1183M1362 1184L1363 1185L1362 1184M1361 1185L1362 1186L1361 1185M1358 1187L1359 1188L1358 1187z"/>
<path style="fill:#7f7fff; stroke:none;" d="M1931 1187L1932 1188L1931 1187z"/>
<path style="fill:#ffffff; stroke:none;" d="M23 1188L24 1189L23 1188z"/>
<path style="fill:#afc4ed; stroke:none;" d="M329 1188L329 1191L330 1191L329 1188M1357 1188L1358 1189L1357 1188M1356 1189L1357 1190L1356 1189M1354 1190L1355 1191L1354 1190M1353 1191L1354 1192L1353 1191M1352 1192L1353 1193L1352 1192M330 1193L330 1196L331 1196L330 1193M1350 1193L1351 1194L1350 1193M1349 1194L1350 1195L1349 1194M1346 1196L1347 1197L1346 1196z"/>
<path style="fill:#ffffff; stroke:none;" d="M1929 1196L1930 1197L1929 1196M25 1197L26 1198L25 1197z"/>
<path style="fill:#afc4ed; stroke:none;" d="M1345 1197L1346 1198L1345 1197M331.333 1198.67L331.667 1199.33L331.333 1198.67M1343 1198L1344 1199L1343 1198M1342 1199L1343 1200L1342 1199M1340 1200L1341 1201L1340 1200M332.333 1202.67L332.667 1203.33L332.333 1202.67M1337 1202L1338 1203L1337 1202M1335 1203L1336 1204L1335 1203M1334 1204L1335 1205L1334 1204M1332 1205L1333 1206L1332 1205M333.333 1206.67L333.667 1207.33L333.333 1206.67M1330 1206L1331 1207L1330 1206M1329 1207L1330 1208L1329 1207M1327 1208L1328 1209L1327 1208M1325 1209L1326 1210L1325 1209M334.333 1210.67L334.667 1211.33L334.333 1210.67M1323 1210L1324 1211L1323 1210M1320 1212L1321 1213L1320 1212M1318 1213L1319 1214L1318 1213M335.333 1214.67L335.667 1215.33L335.333 1214.67M1316 1214L1317 1215L1316 1214M1314 1215L1315 1216L1314 1215M1312 1216L1313 1217L1312 1216M1309.67 1217.33L1310.33 1217.67L1309.67 1217.33M336.333 1218.67L336.667 1219.33L336.333 1218.67M1307 1218L1308 1219L1307 1218M1305 1219L1306 1220L1305 1219M1303 1220L1304 1221L1303 1220M1300.67 1221.33L1301.33 1221.67L1300.67 1221.33M337 1222L338 1223L337 1222M1298 1222L1299 1223L1298 1222M1296 1223L1297 1224L1296 1223M1293 1224L1294 1225L1293 1224M338.333 1225.67L338.667 1226.33L338.333 1225.67M1290.67 1225.33L1291.33 1225.67L1290.67 1225.33M1288 1226L1289 1227L1288 1226M1285 1227L1286 1228L1285 1227M339.333 1228.67L339.667 1229.33L339.333 1228.67M1282.67 1228.33L1283.33 1228.67L1282.67 1228.33M1279.67 1229.33L1280.33 1229.67L1279.67 1229.33M1276.67 1230.33L1277.33 1230.67L1276.67 1230.33M1273.67 1231.33L1274.33 1231.67L1273.67 1231.33M340 1232L341 1233L340 1232M1270 1232L1271 1233L1270 1232M1266.67 1233.33L1267.33 1233.67L1266.67 1233.33M1263.67 1234.33L1264.33 1234.67L1263.67 1234.33M341.333 1235.67L341.667 1236.33L341.333 1235.67M1259.67 1235.33L1260.33 1235.67L1259.67 1235.33M1255.67 1236.33L1256.33 1236.67L1255.67 1236.33M1251.67 1237.33L1252.33 1237.67L1251.67 1237.33M342.333 1238.67L342.667 1239.33L342.333 1238.67M1247.67 1238.33L1248.33 1238.67L1247.67 1238.33M1242.67 1239.33L1243.33 1239.67L1242.67 1239.33M1237 1240L1237 1241L1240 1241L1237 1240M343.333 1241.67L343.667 1242.33L343.333 1241.67M1232 1241L1232 1242L1235 1242L1232 1241M1226 1242L1226 1243L1229 1243L1226 1242M1220 1243L1220 1244L1223 1244L1220 1243M344.333 1244.67L344.667 1245.33L344.333 1244.67M1212 1244L1212 1245L1216 1245L1212 1244M1203 1245L1203 1246L1208 1246L1203 1245M1192 1246L1192 1247L1198 1247L1192 1246M345 1247L346 1248L345 1247M1171 1247L1171 1248L1184 1248L1171 1247M1131 1248L1131 1249L1149 1249L1131 1248M1126 1249L1127 1250L1126 1249M346 1250L347 1251L346 1250M347 1253L348 1254L347 1253M1126 1253L1127 1254L1126 1253M1127 1254L1128 1255L1127 1254M348.333 1255.67L348.667 1256.33L348.333 1255.67M1128 1255L1129 1256L1128 1255M1129.67 1256.33L1130.33 1256.67L1129.67 1256.33M1132 1257L1133 1258L1132 1257M349 1258L350 1259L349 1258M1134.67 1258.33L1135.33 1258.67L1134.67 1258.33M1137.67 1259.33L1138.33 1259.67L1137.67 1259.33M1140.67 1260.33L1141.33 1260.67L1140.67 1260.33M350 1261L351 1262L350 1261M1143.67 1261.33L1144.33 1261.67L1143.67 1261.33M1147.67 1262.33L1148.33 1262.67L1147.67 1262.33M351 1263L352 1264L351 1263M1150.67 1263.33L1151.33 1263.67L1150.67 1263.33z"/>
<path style="fill:#ffffff; stroke:none;" d="M43 1264L44 1265L43 1264z"/>
<path style="fill:#afc4ed; stroke:none;" d="M1154.67 1264.33L1155.33 1264.67L1154.67 1264.33M1157.67 1265.33L1158.33 1265.67L1157.67 1265.33M352 1266L353 1267L352 1266M1161 1266L1162 1267L1161 1266M1164.67 1267.33L1165.33 1267.67L1164.67 1267.33M353.333 1268.67L353.667 1269.33L353.333 1268.67M1167.67 1268.33L1168.33 1268.67L1167.67 1268.33M1171 1269L1172 1270L1171 1269M1174 1270L1175 1271L1174 1270M354 1271L355 1272L354 1271M1177 1271L1178 1272L1177 1271M1179 1272L1180 1273L1179 1272M355 1273L356 1274L355 1273M1180 1273L1181 1274L1180 1273M356.333 1275.67L356.667 1276.33L356.333 1275.67M1181.33 1275.67L1181.67 1276.33L1181.33 1275.67z"/>
<path style="fill:#ffffff; stroke:none;" d="M1907 1276L1908 1277L1907 1276z"/>
<path style="fill:#afc4ed; stroke:none;" d="M357 1278L358 1279L357 1278M1180 1279L1181 1280L1180 1279z"/>
<path style="fill:#ffffff; stroke:none;" d="M1906 1279L1907 1280L1906 1279z"/>
<path style="fill:#afc4ed; stroke:none;" d="M358 1280L359 1281L358 1280M1179.33 1281.67L1179.67 1282.33L1179.33 1281.67M359 1282L360 1283L359 1282M1178 1284L1179 1285L1178 1284M360 1285L361 1286L360 1285M1177 1286L1178 1287L1177 1286M361 1287L362 1288L361 1287M1176 1288L1177 1289L1176 1288M362 1289L363 1290L362 1289M1175 1290L1176 1291L1175 1290M363 1291L364 1292L363 1291M1174 1292L1175 1293L1174 1292M364 1293L365 1294L364 1293M1173 1294L1174 1295L1173 1294M365 1295L366 1296L365 1295M366 1297L367 1298L366 1297M1172 1297L1173 1298L1172 1297z"/>
<path style="fill:#ffffff; stroke:none;" d="M1900 1297L1901 1298L1900 1297z"/>
<path style="fill:#afc4ed; stroke:none;" d="M367 1299L368 1300L367 1299M1171 1299L1172 1300L1171 1299M368 1301L369 1302L368 1301M1170 1301L1171 1302L1170 1301M1169.33 1302.67L1169.67 1303.33L1169.33 1302.67M369 1303L370 1304L369 1303M1168 1304L1169 1305L1168 1304M370 1305L371 1306L370 1305z"/>
<path style="fill:#7f7fff; stroke:none;" d="M57 1306L58 1307L57 1306z"/>
<path style="fill:#afc4ed; stroke:none;" d="M1167 1306L1168 1307L1167 1306M371 1307L372 1308L371 1307M1166 1308L1167 1309L1166 1308M372 1309L373 1310L372 1309M1165 1310L1166 1311L1165 1310M373 1311L374 1312L373 1311M1164 1312L1165 1313L1164 1312M374 1313L375 1314L374 1313M1163 1314L1164 1315L1163 1314M375 1315L376 1316L375 1315M376 1316L377 1317L376 1316M1162 1316L1163 1317L1162 1316M377 1318L378 1319L377 1318M1160 1319L1161 1320L1160 1319M378 1320L379 1321L378 1320M1159 1321L1160 1322L1159 1321M379 1322L380 1323L379 1322M1158 1323L1159 1324L1158 1323z"/>
<path style="fill:#ffffff; stroke:none;" d="M64 1325L65 1326L64 1325z"/>
<path style="fill:#afc4ed; stroke:none;" d="M381 1325L382 1326L381 1325M1157 1325L1158 1326L1157 1325M1156 1326L1157 1327L1156 1326M382 1327L383 1328L382 1327M1155 1328L1156 1329L1155 1328M383 1329L384 1330L383 1329M384 1330L385 1331L384 1330M1154 1330L1155 1331L1154 1330M1153 1331L1154 1332L1153 1331M385 1332L386 1333L385 1332M1152 1333L1153 1334L1152 1333M387 1335L388 1336L387 1335M1150 1336L1151 1337L1150 1336M388 1337L389 1338L388 1337M389 1338L390 1339L389 1338M1149 1338L1150 1339L1149 1338M1148 1339L1149 1340L1148 1339M390 1340L391 1341L390 1340M1147 1341L1148 1342L1147 1341M1146 1342L1147 1343L1146 1342M392 1343L393 1344L392 1343M1145 1344L1146 1345L1145 1344M393 1345L394 1346L393 1345M394 1346L395 1347L394 1346M1143 1347L1144 1348L1143 1347M396 1349L397 1350L396 1349M1141 1350L1142 1351L1141 1350M398 1352L399 1353L398 1352M1139 1353L1140 1354L1139 1353M1138 1354L1139 1355L1138 1354z"/>
<path style="fill:#7f7fff; stroke:none;" d="M76 1355L77 1356L76 1355z"/>
<path style="fill:#afc4ed; stroke:none;" d="M400 1355L401 1356L400 1355M401 1356L402 1357L401 1356M1137 1356L1138 1357L1137 1356M1136 1357L1137 1358L1136 1357z"/>
<path style="fill:#ffffff; stroke:none;" d="M1877 1357L1878 1358L1877 1357z"/>
<path style="fill:#afc4ed; stroke:none;" d="M402 1358L403 1359L402 1358M403 1359L404 1360L403 1359M1134 1360L1135 1361L1134 1360M404 1361L405 1362L404 1361M1133 1361L1134 1362L1133 1361M405 1362L406 1363L405 1362M406 1363L407 1364L406 1363M1132 1363L1133 1364L1132 1363M1131 1364L1132 1365L1131 1364M407 1365L408 1366L407 1365M408 1366L409 1367L408 1366M1129 1367L1130 1368L1129 1367M1128 1368L1129 1369L1128 1368M410 1369L411 1370L410 1369M1127 1369L1128 1370L1127 1369M411 1370L412 1371L411 1370M1125 1372L1126 1373L1125 1372M413 1373L414 1374L413 1373M1124 1373L1125 1374L1124 1373z"/>
<path style="fill:#7f7fff; stroke:none;" d="M1870 1373L1871 1374L1870 1373z"/>
<path style="fill:#afc4ed; stroke:none;" d="M414 1374L415 1375L414 1374M415 1375L416 1376L415 1375M1122 1376L1123 1377L1122 1376M1121 1377L1122 1378L1121 1377M417 1378L418 1379L417 1378M1120 1378L1121 1379L1120 1378M418 1379L419 1380L418 1379M419 1380L420 1381L419 1380M1118 1381L1119 1382L1118 1381M1117 1382L1118 1383L1117 1382z"/>
<path style="fill:#ffffff; stroke:none;" d="M1866 1382L1867 1383L1866 1382z"/>
<path style="fill:#afc4ed; stroke:none;" d="M421 1383L422 1384L421 1383M1116 1383L1117 1384L1116 1383M422 1384L423 1385L422 1384M1115 1384L1116 1385L1115 1384M423 1385L424 1386L423 1385M1113 1387L1114 1388L1113 1387M1112 1388L1113 1389L1112 1388M426 1389L427 1390L426 1389M1111 1389L1112 1390L1111 1389M427 1390L428 1391L427 1390M1110 1390L1111 1391L1110 1390z"/>
<path style="fill:#ffffff; stroke:none;" d="M92 1391L93 1392L92 1391z"/>
<path style="fill:#afc4ed; stroke:none;" d="M428 1391L429 1392L428 1391M429 1392L430 1393L429 1392M1106 1395L1107 1396L1106 1395M432 1396L433 1397L432 1396M1105 1396L1106 1397L1105 1396M433 1397L434 1398L433 1397M1104 1397L1105 1398L1104 1397z"/>
<path style="fill:#ffffff; stroke:none;" d="M1859 1397L1860 1398L1859 1397z"/>
<path style="fill:#afc4ed; stroke:none;" d="M434 1398L435 1399L434 1398M1103 1398L1104 1399L1103 1398M435 1399L436 1400L435 1399M1102 1399L1103 1400L1102 1399M436 1400L437 1401L436 1400M1101 1400L1102 1401L1101 1400M437 1401L438 1402L437 1401M1096 1406L1097 1407L1096 1406M1095 1407L1096 1408L1095 1407M1094 1408L1095 1409L1094 1408M444 1409L445 1410L444 1409M1093 1409L1094 1410L1093 1409M445 1410L446 1411L445 1410M1092 1410L1093 1411L1092 1410M446 1411L447 1412L446 1411M1091 1411L1092 1412L1091 1411M447 1412L448 1413L447 1412M1090 1412L1091 1413L1090 1412M448 1413L449 1414L448 1413M1089 1413L1090 1414L1089 1413M449 1414L450 1415L449 1414M1088 1414L1089 1415L1088 1414M450 1415L451 1416L450 1415M1087 1415L1088 1416L1087 1415M451 1416L452 1417L451 1416M1086 1416L1087 1417L1086 1416M452 1417L453 1418L452 1417M1085 1417L1086 1418L1085 1417M453 1418L454 1419L453 1418M1084 1418L1085 1419L1084 1418M454 1419L455 1420L454 1419M1083 1419L1084 1420L1083 1419M455 1420L456 1421L455 1420M1082 1420L1083 1421L1082 1420M456 1421L457 1422L456 1421M1081 1421L1082 1422L1081 1421M457 1422L458 1423L457 1422M1080 1422L1081 1423L1080 1422M1079 1423L1080 1424L1079 1423M1078 1424L1079 1425L1078 1424M1077 1425L1078 1426L1077 1425M1076 1426L1077 1427L1076 1426z"/>
<path style="fill:#7f7fff; stroke:none;" d="M1844 1427L1845 1428L1844 1427z"/>
<path style="fill:#afc4ed; stroke:none;" d="M465 1429L466 1430L465 1429M466 1430L467 1431L466 1430M467 1431L468 1432L467 1431M468 1432L469 1433L468 1432M1069 1432L1070 1433L1069 1432M469 1433L470 1434L469 1433M1068 1433L1069 1434L1068 1433M470 1434L471 1435L470 1434M1067 1434L1068 1435L1067 1434z"/>
<path style="fill:#7f7fff; stroke:none;" d="M114 1435L115 1436L114 1435z"/>
<path style="fill:#afc4ed; stroke:none;" d="M1066 1435L1067 1436L1066 1435M1065 1436L1066 1437L1065 1436M474 1437L475 1438L474 1437M475 1438L476 1439L475 1438M476 1439L477 1440L476 1439M477 1440L478 1441L477 1440M1060 1440L1061 1441L1060 1440M1059 1441L1060 1442L1059 1441M1058 1442L1059 1443L1058 1442M481 1443L482 1444L481 1443M1057 1443L1058 1444L1057 1443M482 1444L483 1445L482 1444z"/>
<path style="fill:#7f7fff; stroke:none;" d="M1835 1444L1836 1445L1835 1444z"/>
<path style="fill:#afc4ed; stroke:none;" d="M483 1445L484 1446L483 1445M1054 1445L1055 1446L1054 1445M1053 1446L1054 1447L1053 1446M1052 1447L1053 1448L1052 1447z"/>
<path style="fill:#ffffff; stroke:none;" d="M121 1448L122 1449L121 1448z"/>
<path style="fill:#afc4ed; stroke:none;" d="M487 1448L488 1449L487 1448M1051 1448L1052 1449L1051 1448M488 1449L489 1450L488 1449M1048 1450L1049 1451L1048 1450M1047 1451L1048 1452L1047 1451M492 1452L493 1453L492 1452M1046 1452L1047 1453L1046 1452M493 1453L494 1454L493 1453z"/>
<path style="fill:#ffffff; stroke:none;" d="M1830 1453L1831 1454L1830 1453z"/>
<path style="fill:#afc4ed; stroke:none;" d="M1043 1454L1044 1455L1043 1454M496 1455L497 1456L496 1455M1042 1455L1043 1456L1042 1455M497 1456L498 1457L497 1456M1039 1457L1040 1458L1039 1457M500 1458L501 1459L500 1458M1038 1458L1039 1459L1038 1458M501 1459L502 1460L501 1459M502 1460L503 1461L502 1460M1035 1460L1036 1461L1035 1460M504 1461L505 1462L504 1461M1034 1461L1035 1462L1034 1461M505 1462L506 1463L505 1462M1031 1463L1032 1464L1031 1463z"/>
<path style="fill:#7f7fff; stroke:none;" d="M130 1464L131 1465L130 1464z"/>
<path style="fill:#afc4ed; stroke:none;" d="M508 1464L509 1465L508 1464M1030 1464L1031 1465L1030 1464M509 1465L510 1466L509 1465M511 1466L512 1467L511 1466M1027 1466L1028 1467L1027 1466M512 1467L513 1468L512 1467M1026 1467L1027 1468L1026 1467z"/>
<path style="fill:#7f7fff; stroke:none;" d="M1822 1467L1823 1468L1822 1467z"/>
<path style="fill:#afc4ed; stroke:none;" d="M514 1468L515 1469L514 1468M1024 1468L1025 1469L1024 1468M515 1469L516 1470L515 1469M1023 1469L1024 1470L1023 1469M517 1470L518 1471L517 1470M1021 1470L1022 1471L1021 1470M518 1471L519 1472L518 1471M1020 1471L1021 1472L1020 1471M1018 1472L1019 1473L1018 1472M521 1473L522 1474L521 1473M1017 1473L1018 1474L1017 1473M523 1474L524 1475L523 1474M524 1475L525 1476L524 1475M1014 1475L1015 1476L1014 1475M526 1476L527 1477L526 1476M1012 1476L1013 1477L1012 1476M527 1477L528 1478L527 1477M1011 1477L1012 1478L1011 1477M529 1478L530 1479L529 1478M1009 1478L1010 1479L1009 1478M1008 1479L1009 1480L1008 1479M532 1480L533 1481L532 1480M1006 1480L1007 1481L1006 1480M534 1481L535 1482L534 1481M535 1482L536 1483L535 1482M1003 1482L1004 1483L1003 1482M537 1483L538 1484L537 1483M1001 1483L1002 1484L1001 1483M539 1484L540 1485L539 1484M1000 1484L1001 1485L1000 1484z"/>
<path style="fill:#ffffff; stroke:none;" d="M1812 1484L1813 1485L1812 1484z"/>
<path style="fill:#afc4ed; stroke:none;" d="M540 1485L541 1486L540 1485M998 1485L999 1486L998 1485M542 1486L543 1487L542 1486M996 1486L997 1487L996 1486M544 1487L545 1488L544 1487M993 1488L994 1489L993 1488M547 1489L548 1490L547 1489M991 1489L992 1490L991 1489M549 1490L550 1491L549 1490M989 1490L990 1491L989 1490M551 1491L552 1492L551 1491M553 1492L554 1493L553 1492M986 1492L987 1493L986 1492z"/>
<path style="fill:#ffffff; stroke:none;" d="M1807 1492L1808 1493L1807 1492z"/>
<path style="fill:#afc4ed; stroke:none;" d="M554 1493L555 1494L554 1493M984 1493L985 1494L984 1493M556 1494L557 1495L556 1494M982 1494L983 1495L982 1494M558 1495L559 1496L558 1495M980 1495L981 1496L980 1495M560 1496L561 1497L560 1496M978 1496L979 1497L978 1496M562 1497L563 1498L562 1497M976 1497L977 1498L976 1497M564 1498L565 1499L564 1498M974 1498L975 1499L974 1498M566 1499L567 1500L566 1499M972 1499L973 1500L972 1499M568 1500L569 1501L568 1500M970 1500L971 1501L970 1500z"/>
<path style="fill:#ffffff; stroke:none;" d="M1802 1500L1803 1501L1802 1500z"/>
<path style="fill:#afc4ed; stroke:none;" d="M570 1501L571 1502L570 1501M968 1501L969 1502L968 1501M572 1502L573 1503L572 1502M966 1502L967 1503L966 1502M574 1503L575 1504L574 1503M964 1503L965 1504L964 1503M576 1504L577 1505L576 1504M962 1504L963 1505L962 1504z"/>
<path style="fill:#7f7fff; stroke:none;" d="M155 1505L156 1506L155 1505z"/>
<path style="fill:#afc4ed; stroke:none;" d="M578 1505L579 1506L578 1505M960 1505L961 1506L960 1505M580.667 1506.33L581.333 1506.67L580.667 1506.33M958 1506L959 1507L958 1506M583 1507L584 1508L583 1507M956 1507L957 1508L956 1507z"/>
<path style="fill:#7f7fff; stroke:none;" d="M157 1508L158 1509L157 1508z"/>
<path style="fill:#afc4ed; stroke:none;" d="M585 1508L586 1509L585 1508M953.667 1508.33L954.333 1508.67L953.667 1508.33M587 1509L588 1510L587 1509M951 1509L952 1510L951 1509M589.667 1510.33L590.333 1510.67L589.667 1510.33M949 1510L950 1511L949 1510M592 1511L593 1512L592 1511M947 1511L948 1512L947 1511M594 1512L595 1513L594 1512M944 1512L945 1513L944 1512M596.667 1513.33L597.333 1513.67L596.667 1513.33M942 1513L943 1514L942 1513M599 1514L600 1515L599 1514M939.667 1514.33L940.333 1514.67L939.667 1514.33M601.667 1515.33L602.333 1515.67L601.667 1515.33M937 1515L938 1516L937 1515M604 1516L605 1517L604 1516M934 1516L935 1517L934 1516M606.667 1517.33L607.333 1517.67L606.667 1517.33M932 1517L933 1518L932 1517M609 1518L610 1519L609 1518M929 1518L930 1519L929 1518M612 1519L613 1520L612 1519M926.667 1519.33L927.333 1519.67L926.667 1519.33M614.667 1520.33L615.333 1520.67L614.667 1520.33M923.667 1520.33L924.333 1520.67L923.667 1520.33M617.667 1521.33L618.333 1521.67L617.667 1521.33M921 1521L922 1522L921 1521M620.667 1522.33L621.333 1522.67L620.667 1522.33M918 1522L919 1523L918 1522M623 1523L624 1524L623 1523M915 1523L916 1524L915 1523M626 1524L627 1525L626 1524M912 1524L913 1525L912 1524M629.667 1525.33L630.333 1525.67L629.667 1525.33M909 1525L910 1526L909 1525M632.667 1526.33L633.333 1526.67L632.667 1526.33M905.667 1526.33L906.333 1526.67L905.667 1526.33M635.667 1527.33L636.333 1527.67L635.667 1527.33M902.667 1527.33L903.333 1527.67L902.667 1527.33M638.667 1528.33L639.333 1528.67L638.667 1528.33M899.667 1528.33L900.333 1528.67L899.667 1528.33z"/>
<path style="fill:#7f7fff; stroke:none;" d="M171 1529L172 1530L171 1529z"/>
<path style="fill:#afc4ed; stroke:none;" d="M642 1529L643 1530L642 1529M895.667 1529.33L896.333 1529.67L895.667 1529.33M645.667 1530.33L646.333 1530.67L645.667 1530.33M892.667 1530.33L893.333 1530.67L892.667 1530.33M649.667 1531.33L650.333 1531.67L649.667 1531.33M888.667 1531.33L889.333 1531.67L888.667 1531.33M652.667 1532.33L653.333 1532.67L652.667 1532.33M884.667 1532.33L885.333 1532.67L884.667 1532.33M656.667 1533.33L657.333 1533.67L656.667 1533.33M880.667 1533.33L881.333 1533.67L880.667 1533.33M660.667 1534.33L661.333 1534.67L660.667 1534.33M876.667 1534.33L877.333 1534.67L876.667 1534.33M664.667 1535.33L665.333 1535.67L664.667 1535.33M872.667 1535.33L873.333 1535.67L872.667 1535.33M669.667 1536.33L670.333 1536.67L669.667 1536.33M867 1536L867 1537L870 1537L867 1536M673 1537L673 1538L676 1538L673 1537M863.667 1537.33L864.333 1537.67L863.667 1537.33M678.667 1538.33L679.333 1538.67L678.667 1538.33M858.667 1538.33L859.333 1538.67L858.667 1538.33M683 1539L683 1540L686 1540L683 1539M852 1539L852 1540L855 1540L852 1539M688 1540L688 1541L691 1541L688 1540M847.667 1540.33L848.333 1540.67L847.667 1540.33M694 1541L694 1542L697 1542L694 1541M841 1541L841 1542L844 1542L841 1541z"/>
<path style="fill:#7f7fff; stroke:none;" d="M180 1542L181 1543L180 1542z"/>
<path style="fill:#afc4ed; stroke:none;" d="M700 1542L700 1543L704 1543L700 1542M834 1542L834 1543L837 1543L834 1542M707 1543L707 1544L711 1544L707 1543M826 1543L826 1544L830 1544L826 1543M715 1544L715 1545L720 1545L715 1544M817 1544L817 1545L822 1545L817 1544M724 1545L724 1546L730 1546L724 1545M807 1545L807 1546L813 1546L807 1545M736 1546L736 1547L744 1547L736 1546M792 1546L792 1547L801 1547L792 1546M757 1547L757 1548L780 1548L757 1547z"/>
<path style="fill:#ffffff; stroke:none;" d="M1768 1550L1769 1551L1768 1550M188 1553L189 1554L188 1553z"/>
<path style="fill:#7f7fff; stroke:none;" d="M200 1569L201 1570L200 1569z"/>
<path style="fill:#ffffff; stroke:none;" d="M203 1573L204 1574L203 1573M1750 1574L1751 1575L1750 1574M210 1582L211 1583L210 1582M1743 1583L1744 1584L1743 1583M214 1587L215 1588L214 1587z"/>
<path style="fill:#7f7fff; stroke:none;" d="M1725 1605L1726 1606L1725 1605z"/>
<path style="fill:#ffffff; stroke:none;" d="M233 1610L234 1611L233 1610z"/>
<path style="fill:#7f7fff; stroke:none;" d="M239 1617L240 1618L239 1617M247 1626L248 1627L247 1626z"/>
<path style="fill:#ffffff; stroke:none;" d="M255 1635L256 1636L255 1635z"/>
<path style="fill:#7f7fff; stroke:none;" d="M1696 1638L1697 1639L1696 1638z"/>
<path style="fill:#ffffff; stroke:none;" d="M268 1649L269 1650L268 1649M1681 1654L1682 1655L1681 1654z"/>
<path style="fill:#7f7fff; stroke:none;" d="M1680 1655L1681 1656L1680 1655M1679 1656L1680 1657L1679 1656M1656 1679L1657 1680L1656 1679M1655 1680L1656 1681L1655 1680z"/>
<path style="fill:#ffffff; stroke:none;" d="M1654 1681L1655 1682L1654 1681M304 1685L305 1686L304 1685z"/>
<path style="fill:#7f7fff; stroke:none;" d="M1638 1696L1639 1697L1638 1696z"/>
<path style="fill:#ffffff; stroke:none;" d="M319 1699L320 1700L319 1699M328 1707L329 1708L328 1707z"/>
<path style="fill:#7f7fff; stroke:none;" d="M337 1715L338 1716L337 1715M1605 1725L1606 1726L1605 1725z"/>
<path style="fill:#ffffff; stroke:none;" d="M350 1726L351 1727L350 1726M1583 1743L1584 1744L1583 1743z"/>
<path style="fill:#7f7fff; stroke:none;" d="M1574 1750L1575 1751L1574 1750z"/>
<path style="fill:#ffffff; stroke:none;" d="M385 1754L386 1755L385 1754M397 1763L398 1764L397 1763M1550 1768L1551 1769L1550 1768z"/>
<path style="fill:#7f7fff; stroke:none;" d="M408 1771L409 1772L408 1771z"/>
<path style="fill:#ffffff; stroke:none;" d="M415 1776L416 1777L415 1776M428 1785L429 1786L428 1785M1523 1787L1524 1788L1523 1787z"/>
<path style="fill:#7f7fff; stroke:none;" d="M437 1791L438 1792L437 1791z"/>
<path style="fill:#ffffff; stroke:none;" d="M440 1793L441 1794L440 1793M443 1795L444 1796L443 1795M1500 1802L1501 1803L1500 1802M1492 1807L1493 1808L1492 1807M480 1818L481 1819L480 1818M1453 1830L1454 1831L1453 1830M508 1834L509 1835L508 1834z"/>
<path style="fill:#7f7fff; stroke:none;" d="M1444 1835L1445 1836L1444 1835M523 1842L524 1843L523 1842z"/>
<path style="fill:#ffffff; stroke:none;" d="M1429 1843L1430 1844L1429 1843M1397 1859L1398 1860L1397 1859z"/>
<path style="fill:#7f7fff; stroke:none;" d="M559 1860L560 1861L559 1860z"/>
<path style="fill:#ffffff; stroke:none;" d="M1382 1866L1383 1867L1382 1866z"/>
<path style="fill:#7f7fff; stroke:none;" d="M574 1867L575 1868L574 1867M590 1874L591 1875L590 1874M614 1884L615 1885L614 1884z"/>
<path style="fill:#ffffff; stroke:none;" d="M1335 1886L1336 1887L1335 1886M1297 1900L1298 1901L1297 1900z"/>
<path style="fill:#7f7fff; stroke:none;" d="M1279 1906L1280 1907L1279 1906z"/>
<path style="fill:#ffffff; stroke:none;" d="M1276 1907L1277 1908L1276 1907z"/>
<path style="fill:#7f7fff; stroke:none;" d="M681 1908L682 1909L681 1908z"/>
<path style="fill:#ffffff; stroke:none;" d="M684 1909L685 1910L684 1909z"/>
<path style="fill:#7f7fff; stroke:none;" d="M694 1912L695 1913L694 1912z"/>
<path style="fill:#ffffff; stroke:none;" d="M1260 1912L1261 1913L1260 1912M1243 1917L1244 1918L1243 1917z"/>
<path style="fill:#7f7fff; stroke:none;" d="M722 1920L723 1921L722 1920z"/>
<path style="fill:#ffffff; stroke:none;" d="M1196 1929L1197 1930L1196 1929z"/>
<path style="fill:#7f7fff; stroke:none;" d="M1187 1931L1188 1932L1187 1931z"/>
<path style="fill:#ffffff; stroke:none;" d="M1173 1934L1174 1935L1173 1934M1152 1938L1153 1939L1152 1938M905 1951L906 1952L905 1951z"/>
</svg>
