<?xml version="1.0" standalone="yes"?>
<svg xmlns="http://www.w3.org/2000/svg" width="1146" height="1146">
<path style="fill:#4d6bb3; stroke:none;" d="M543 1.42444C508.746 5.92151 474.88 7.85242 441 15.8843C341.227 39.5376 249.088 90.1954 175 161.039C124.51 209.319 82.7571 268.521 53.6914 332C-38.2123 532.714 -7.39124 775.195 136.427 944C172.438 986.267 214.497 1023.3 261 1053.66C314.76 1088.75 374.71 1114.25 437 1129.63C506.401 1146.75 579.3 1150.02 650 1140.72C830.235 1117.02 991.297 1004.72 1077.69 845C1120.9 765.108 1143.77 674.584 1145.99 584C1152.44 320.529 966.84 81.3365 712 17.6266C669.568 7.01868 625.713 1 582 1C569.211 1 555.686 -0.240967 543 1.42444z"/>
<path style="fill:#7f7f7f; stroke:none;" d="M689 12L690 13L689 12M715 18L716 19L715 18M740 25L741 26L740 25M396 28L397 29L396 28M373 36L374 37L373 36M360 41L361 42L360 41M341 49L342 50L341 49M809 51L810 52L809 51M286 77L287 78L286 77M887 94L888 95L887 94M257 95L258 96L257 95M890 96L891 97L890 96M926 122L927 123L926 122M959 150L960 151L959 150M541 198L542 199L541 198z"/>
<path style="fill:#8da0ce; stroke:none;" d="M542 198L542 199L553 199L542 198z"/>
<path style="fill:#ffffff; stroke:none;" d="M881 897C877.129 889.53 865.853 886.117 859 881.655C842.769 871.087 823.441 853.813 822.595 833C821.815 813.809 837.505 800.771 848.339 787C866.806 763.527 884.186 738.233 896.691 711C940.132 616.394 940.152 509.566 898.576 414C878.737 368.401 848.673 325.241 811 292.576C685.276 183.562 495.302 164.842 356 261.026C314.002 290.024 277.598 328.938 250.319 372C227.366 408.233 211.791 447.972 203.4 490C194.298 535.589 195.478 584.437 204.197 630C213.949 680.966 236.38 729.95 266.579 772C301.738 820.956 351.43 858.462 405 885.247C468.847 917.17 546.323 937 618 937C709.418 937 796.38 937.05 881 897z"/>
<path style="fill:#8da0ce; stroke:none;" d="M574 198L574 199L585 199L574 198z"/>
<path style="fill:#7f7f7f; stroke:none;" d="M585.667 198.333L586.333 198.667L585.667 198.333M528 199L529 200L528 199z"/>
<path style="fill:#8da0ce; stroke:none;" d="M529 199L529 200L534 200L529 199M593 199L593 200L599 200L593 199M519 200L519 201L523 201L519 200M604 200L604 201L608 201L604 200z"/>
<path style="fill:#7f7f7f; stroke:none;" d="M608 200L609 201L608 200M511 201L512 202L511 201z"/>
<path style="fill:#8da0ce; stroke:none;" d="M512 201L512 202L515 202L512 201M612 201L612 202L616 202L612 201z"/>
<path style="fill:#7f7f7f; stroke:none;" d="M504 202L505 203L504 202z"/>
<path style="fill:#8da0ce; stroke:none;" d="M505 202L505 203L508 203L505 202M620.667 202.333L621.333 202.667L620.667 202.333z"/>
<path style="fill:#7f7f7f; stroke:none;" d="M622 202L623 203L622 202M498 203L499 204L498 203z"/>
<path style="fill:#8da0ce; stroke:none;" d="M499.667 203.333L500.333 203.667L499.667 203.333M626.667 203.333L627.333 203.667L626.667 203.333z"/>
<path style="fill:#7f7f7f; stroke:none;" d="M628 203L629 204L628 203M492 204L493 205L492 204z"/>
<path style="fill:#8da0ce; stroke:none;" d="M493.667 204.333L494.333 204.667L493.667 204.333M631 204L631 205L634 205L631 204z"/>
<path style="fill:#7f7f7f; stroke:none;" d="M487 205L488 206L487 205z"/>
<path style="fill:#8da0ce; stroke:none;" d="M488.667 205.333L489.333 205.667L488.667 205.333M637.667 205.333L638.333 205.667L637.667 205.333z"/>
<path style="fill:#7f7f7f; stroke:none;" d="M639 205L640 206L639 205M482 206L483 207L482 206z"/>
<path style="fill:#8da0ce; stroke:none;" d="M483.667 206.333L484.333 206.667L483.667 206.333M642.667 206.333L643.333 206.667L642.667 206.333M478.667 207.333L479.333 207.667L478.667 207.333M646.667 207.333L647.333 207.667L646.667 207.333M474.667 208.333L475.333 208.667L474.667 208.333M650.667 208.333L651.333 208.667L650.667 208.333z"/>
<path style="fill:#7f7f7f; stroke:none;" d="M652 208L653 209L652 208z"/>
<path style="fill:#8da0ce; stroke:none;" d="M470.667 209.333L471.333 209.667L470.667 209.333M655 209L656 210L655 209z"/>
<path style="fill:#7f7f7f; stroke:none;" d="M656 209L657 210L656 209M1015 209L1016 210L1015 209z"/>
<path style="fill:#8da0ce; stroke:none;" d="M466.667 210.333L467.333 210.667L466.667 210.333M658.667 210.333L659.333 210.667L658.667 210.333M462.667 211.333L463.333 211.667L462.667 211.333M662.667 211.333L663.333 211.667L662.667 211.333z"/>
<path style="fill:#7f7f7f; stroke:none;" d="M458 212L459 213L458 212z"/>
<path style="fill:#8da0ce; stroke:none;" d="M459 212L460 213L459 212M666 212L667 213L666 212z"/>
<path style="fill:#7f7f7f; stroke:none;" d="M667 212L668 213L667 212z"/>
<path style="fill:#8da0ce; stroke:none;" d="M455.667 213.333L456.333 213.667L455.667 213.333M669.667 213.333L670.333 213.667L669.667 213.333z"/>
<path style="fill:#7f7f7f; stroke:none;" d="M451 214L452 215L451 214z"/>
<path style="fill:#8da0ce; stroke:none;" d="M452 214L453 215L452 214M673 214L674 215L673 214z"/>
<path style="fill:#7f7f7f; stroke:none;" d="M448 215L449 216L448 215z"/>
<path style="fill:#8da0ce; stroke:none;" d="M449 215L450 216L449 215M676 215L677 216L676 215z"/>
<path style="fill:#7f7f7f; stroke:none;" d="M445 216L446 217L445 216z"/>
<path style="fill:#8da0ce; stroke:none;" d="M446 216L447 217L446 216M679 216L680 217L679 216z"/>
<path style="fill:#7f7f7f; stroke:none;" d="M680 216L681 217L680 216M124 217L125 218L124 217M442 217L443 218L442 217z"/>
<path style="fill:#8da0ce; stroke:none;" d="M443 217L444 218L443 217M682 217L683 218L682 217z"/>
<path style="fill:#7f7f7f; stroke:none;" d="M439 218L440 219L439 218z"/>
<path style="fill:#8da0ce; stroke:none;" d="M440 218L441 219L440 218M685 218L686 219L685 218z"/>
<path style="fill:#7f7f7f; stroke:none;" d="M436 219L437 220L436 219z"/>
<path style="fill:#8da0ce; stroke:none;" d="M437 219L438 220L437 219M688 219L689 220L688 219M434 220L435 221L434 220M691 220L692 221L691 220M431.667 221.333L432.333 221.667L431.667 221.333M693.667 221.333L694.333 221.667L693.667 221.333z"/>
<path style="fill:#7f7f7f; stroke:none;" d="M428 222L429 223L428 222z"/>
<path style="fill:#8da0ce; stroke:none;" d="M429 222L430 223L429 222M696 222L697 223L696 222M426 223L427 224L426 223M699 223L700 224L699 223M423 224L424 225L423 224M701 224L702 225L701 224M421 225L422 226L421 225M704 225L705 226L704 225z"/>
<path style="fill:#7f7f7f; stroke:none;" d="M418 226L419 227L418 226z"/>
<path style="fill:#8da0ce; stroke:none;" d="M419 226L420 227L419 226M706 226L707 227L706 226M416 227L417 228L416 227M708 227L709 228L708 227z"/>
<path style="fill:#7f7f7f; stroke:none;" d="M709 227L710 228L709 227z"/>
<path style="fill:#8da0ce; stroke:none;" d="M414 228L415 229L414 228M711 228L712 229L711 228z"/>
<path style="fill:#7f7f7f; stroke:none;" d="M411 229L412 230L411 229z"/>
<path style="fill:#8da0ce; stroke:none;" d="M412 229L413 230L412 229M713 229L714 230L713 229M409 230L410 231L409 230M715 230L716 231L715 230M407 231L408 232L407 231M717 231L718 232L717 231z"/>
<path style="fill:#7f7f7f; stroke:none;" d="M718 231L719 232L718 231z"/>
<path style="fill:#8da0ce; stroke:none;" d="M405 232L406 233L405 232M720 232L721 233L720 232M403 233L404 234L403 233M722 233L723 234L722 233M401 234L402 235L401 234M724 234L725 235L724 234M399 235L400 236L399 235M726 235L727 236L726 235M397 236L398 237L397 236M728 236L729 237L728 236M395 237L396 238L395 237M730 237L731 238L730 237M393 238L394 239L393 238M732 238L733 239L732 238M391 239L392 240L391 239M734 239L735 240L734 239M389 240L390 241L389 240M736 240L737 241L736 240M387 241L388 242L387 241M738 241L739 242L738 241M385 242L386 243L385 242z"/>
<path style="fill:#7f7f7f; stroke:none;" d="M740 242L741 243L740 242z"/>
<path style="fill:#8da0ce; stroke:none;" d="M384 243L385 244L384 243M741 243L742 244L741 243M382 244L383 245L382 244M743 244L744 245L743 244M380 245L381 246L380 245M745 245L746 246L745 245z"/>
<path style="fill:#7f7f7f; stroke:none;" d="M378 246L379 247L378 246z"/>
<path style="fill:#8da0ce; stroke:none;" d="M747 246L748 247L747 246M377 247L378 248L377 247z"/>
<path style="fill:#7f7f7f; stroke:none;" d="M749 247L750 248L749 247z"/>
<path style="fill:#8da0ce; stroke:none;" d="M375 248L376 249L375 248M750 248L751 249L750 248M373 249L374 250L373 249M752 249L753 250L752 249M372 250L373 251L372 250z"/>
<path style="fill:#7f7f7f; stroke:none;" d="M754 250L755 251L754 250M99 251L100 252L99 251z"/>
<path style="fill:#8da0ce; stroke:none;" d="M370 251L371 252L370 251M755 251L756 252L755 251M757 252L758 253L757 252M367 253L368 254L367 253z"/>
<path style="fill:#7f7f7f; stroke:none;" d="M759 253L760 254L759 253M365 254L366 255L365 254z"/>
<path style="fill:#8da0ce; stroke:none;" d="M760 254L761 255L760 254M364 255L365 256L364 255z"/>
<path style="fill:#7f7f7f; stroke:none;" d="M762 255L763 256L762 255z"/>
<path style="fill:#8da0ce; stroke:none;" d="M362 256L363 257L362 256M763 256L764 257L763 256z"/>
<path style="fill:#7f7f7f; stroke:none;" d="M95 257L96 258L95 257z"/>
<path style="fill:#8da0ce; stroke:none;" d="M361 257L362 258L361 257M765 257L766 258L765 257z"/>
<path style="fill:#7f7f7f; stroke:none;" d="M359 258L360 259L359 258z"/>
<path style="fill:#8da0ce; stroke:none;" d="M766 258L767 259L766 258M358 259L359 260L358 259M768 259L769 260L768 259z"/>
<path style="fill:#7f7f7f; stroke:none;" d="M93 260L94 261L93 260M356 260L357 261L356 260z"/>
<path style="fill:#8da0ce; stroke:none;" d="M769 260L770 261L769 260M355 261L356 262L355 261M771 261L772 262L771 261M772 262L773 263L772 262M352 263L353 264L352 263M774 263L775 264L774 263M351 264L352 265L351 264M775 264L776 265L775 264z"/>
<path style="fill:#7f7f7f; stroke:none;" d="M349 265L350 266L349 265M777 265L778 266L777 265z"/>
<path style="fill:#8da0ce; stroke:none;" d="M348 266L349 267L348 266M778 266L779 267L778 266M347 267L348 268L347 267z"/>
<path style="fill:#7f7f7f; stroke:none;" d="M345 268L346 269L345 268z"/>
<path style="fill:#8da0ce; stroke:none;" d="M781 268L782 269L781 268M344 269L345 270L344 269M782 269L783 270L782 269M343 270L344 271L343 270z"/>
<path style="fill:#7f7f7f; stroke:none;" d="M86 271L87 272L86 271M341 271L342 272L341 271z"/>
<path style="fill:#8da0ce; stroke:none;" d="M785 271L786 272L785 271M340 272L341 273L340 272M786 272L787 273L786 272M339 273L340 274L339 273M789 274L790 275L789 274z"/>
<path style="fill:#7f7f7f; stroke:none;" d="M336 275L337 276L336 275z"/>
<path style="fill:#8da0ce; stroke:none;" d="M790 275L791 276L790 275M335 276L336 277L335 276M334 277L335 278L334 277z"/>
<path style="fill:#7f7f7f; stroke:none;" d="M793 277L794 278L793 277z"/>
<path style="fill:#8da0ce; stroke:none;" d="M333 278L334 279L333 278M794 278L795 279L794 278M795 279L796 280L795 279z"/>
<path style="fill:#7f7f7f; stroke:none;" d="M330 280L331 281L330 280z"/>
<path style="fill:#8da0ce; stroke:none;" d="M329 281L330 282L329 281M328 282L329 283L328 282M799 282L800 283L799 282M327 283L328 284L327 283M800 283L801 284L800 283M801 284L802 285L801 284z"/>
<path style="fill:#7f7f7f; stroke:none;" d="M77 286L78 287L77 286M323 286L324 287L323 286z"/>
<path style="fill:#8da0ce; stroke:none;" d="M322 287L323 288L322 287z"/>
<path style="fill:#7f7f7f; stroke:none;" d="M805 287L806 288L805 287z"/>
<path style="fill:#8da0ce; stroke:none;" d="M321 288L322 289L321 288M806 288L807 289L806 288M320 289L321 290L320 289M807 289L808 290L807 289M319 290L320 291L319 290M808 290L809 291L808 290M318 291L319 292L318 291M809 291L810 292L809 291M317 292L318 293L317 292M810 292L811 293L810 292z"/>
<path style="fill:#7f7f7f; stroke:none;" d="M1073 294L1074 295L1073 294M815 296L816 297L815 296M816 297L817 298L816 297z"/>
<path style="fill:#8da0ce; stroke:none;" d="M817 298L818 299L817 298M818 299L819 300L818 299z"/>
<path style="fill:#7f7f7f; stroke:none;" d="M308 300L309 301L308 300z"/>
<path style="fill:#8da0ce; stroke:none;" d="M819 300L820 301L819 300z"/>
<path style="fill:#7f7f7f; stroke:none;" d="M307 301L308 302L307 301z"/>
<path style="fill:#8da0ce; stroke:none;" d="M820 301L821 302L820 301z"/>
<path style="fill:#7f7f7f; stroke:none;" d="M306 302L307 303L306 302z"/>
<path style="fill:#8da0ce; stroke:none;" d="M821 302L822 303L821 302z"/>
<path style="fill:#7f7f7f; stroke:none;" d="M305 303L306 304L305 303z"/>
<path style="fill:#8da0ce; stroke:none;" d="M822 303L823 304L822 303z"/>
<path style="fill:#7f7f7f; stroke:none;" d="M304 304L305 305L304 304z"/>
<path style="fill:#8da0ce; stroke:none;" d="M823 304L824 305L823 304M824 305L825 306L824 305M825 306L826 307L825 306M826 307L827 308L826 307M827 308L828 309L827 308M828 309L829 310L828 309M829 310L830 311L829 310M830 311L831 312L830 311M831 312L832 313L831 312z"/>
<path style="fill:#7f7f7f; stroke:none;" d="M832 313L833 314L832 313z"/>
<path style="fill:#8da0ce; stroke:none;" d="M295 314L296 315L295 314z"/>
<path style="fill:#7f7f7f; stroke:none;" d="M833 314L834 315L833 314z"/>
<path style="fill:#8da0ce; stroke:none;" d="M294 315L295 316L294 315M293 316L294 317L293 316M292 317L293 318L292 317M291 318L292 319L291 318M290 319L291 320L290 319M837 319L838 320L837 319M289 320L290 321L289 320M838 320L839 321L838 320z"/>
<path style="fill:#7f7f7f; stroke:none;" d="M288 321L289 322L288 321z"/>
<path style="fill:#8da0ce; stroke:none;" d="M839 321L840 322L839 321M840 322L841 323L840 322z"/>
<path style="fill:#7f7f7f; stroke:none;" d="M841 323L842 324L841 323z"/>
<path style="fill:#8da0ce; stroke:none;" d="M285 325L286 326L285 325M284 326L285 327L284 326M283 327L284 328L283 327M844 327L845 328L844 327M282 328L283 329L282 328M845 328L846 329L845 328z"/>
<path style="fill:#7f7f7f; stroke:none;" d="M281 329L282 330L281 329z"/>
<path style="fill:#8da0ce; stroke:none;" d="M846 329L847 330L846 329z"/>
<path style="fill:#7f7f7f; stroke:none;" d="M847 330L848 331L847 330z"/>
<path style="fill:#8da0ce; stroke:none;" d="M279 332L280 333L279 332M278 333L279 334L278 333M849 333L850 334L849 333M277 334L278 335L277 334M850 334L851 335L850 334z"/>
<path style="fill:#7f7f7f; stroke:none;" d="M276 335L277 336L276 335M851 335L852 336L851 335z"/>
<path style="fill:#8da0ce; stroke:none;" d="M274 338L275 339L274 338M853 338L854 339L853 338M273 339L274 340L273 339M854 339L855 340L854 339z"/>
<path style="fill:#7f7f7f; stroke:none;" d="M272 340L273 341L272 340z"/>
<path style="fill:#8da0ce; stroke:none;" d="M271 342L272 343L271 342M856 342L857 343L856 342M270 343L271 344L270 343M857 343L858 344L857 343M269 344L270 345L269 344M859 346L860 347L859 346M267 347L268 348L267 347M860 347L861 348L860 347M266 348L267 349L266 348M862 350L863 351L862 350M264 351L265 352L264 351z"/>
<path style="fill:#7f7f7f; stroke:none;" d="M863 351L864 352L863 351z"/>
<path style="fill:#8da0ce; stroke:none;" d="M263 352L264 353L263 352M864 353L865 354L864 353M865 354L866 355L865 354M261 355L262 356L261 355z"/>
<path style="fill:#7f7f7f; stroke:none;" d="M260 356L261 357L260 356z"/>
<path style="fill:#8da0ce; stroke:none;" d="M866 356L867 357L866 356M867 357L868 358L867 357M259 358L260 359L259 358M258 359L259 360L258 359z"/>
<path style="fill:#7f7f7f; stroke:none;" d="M41 360L42 361L41 360z"/>
<path style="fill:#8da0ce; stroke:none;" d="M869 360L870 361L869 360M257 361L258 362L257 361M256 362L257 363L256 362M870 362L871 363L870 362M871 363L872 364L871 363M255 364L256 365L255 364M254 365L255 366L254 365M872 365L873 366L872 365M873 366L874 367L873 366M252 368L253 369L252 368M874 368L875 369L874 368M251 370L252 371L251 370M250 371L251 372L250 371M876 371L877 372L876 371M249 373L250 374L249 373M877 373L878 374L877 373z"/>
<path style="fill:#7f7f7f; stroke:none;" d="M248 374L249 375L248 374M878 374L879 375L878 374z"/>
<path style="fill:#8da0ce; stroke:none;" d="M247 376L248 377L247 376M879 376L880 377L879 376M246 378L247 379L246 378M880 378L881 379L880 378M245 379L246 380L245 379M881 380L882 381L881 380M244 381L245 382L244 381M882 381L883 382L882 381M243 383L244 384L243 383M883 383L884 384L883 383z"/>
<path style="fill:#7f7f7f; stroke:none;" d="M242 384L243 385L242 384z"/>
<path style="fill:#8da0ce; stroke:none;" d="M884 385L885 386L884 385M241 386L242 387L241 386M885 387L886 388L885 387M240 388L241 389L240 388M886 389L887 390L886 389M239 390L240 391L239 390z"/>
<path style="fill:#7f7f7f; stroke:none;" d="M887 390L888 391L887 390M238 391L239 392L238 391z"/>
<path style="fill:#8da0ce; stroke:none;" d="M887 391L888 392L887 391z"/>
<path style="fill:#7f7f7f; stroke:none;" d="M888 392L889 393L888 392z"/>
<path style="fill:#8da0ce; stroke:none;" d="M237 393L238 394L237 393M889 394L890 395L889 394M236 395L237 396L236 395z"/>
<path style="fill:#7f7f7f; stroke:none;" d="M28 396L29 397L28 396z"/>
<path style="fill:#8da0ce; stroke:none;" d="M890 396L891 397L890 396M235 397L236 398L235 397M891 398L892 399L891 398M234 399L235 400L234 399M892 400L893 401L892 400M233 401L234 402L233 401z"/>
<path style="fill:#7f7f7f; stroke:none;" d="M893 402L894 403L893 402z"/>
<path style="fill:#8da0ce; stroke:none;" d="M232 403L233 404L232 403M893 403L894 404L893 403z"/>
<path style="fill:#7f7f7f; stroke:none;" d="M894 404L895 405L894 404z"/>
<path style="fill:#8da0ce; stroke:none;" d="M231 405L232 406L231 405M894 405L895 406L894 405M230 407L231 408L230 407M895 407L896 408L895 407M229 409L230 410L229 409M896 409L897 410L896 409M228 411L229 412L228 411M897 411L898 412L897 411M227 413L228 414L227 413M898 413L899 414L898 413z"/>
<path style="fill:#7f7f7f; stroke:none;" d="M226 415L227 416L226 415M899 415L900 416L899 415z"/>
<path style="fill:#8da0ce; stroke:none;" d="M226 416L227 417L226 416M899 416L900 417L899 416M225 418L226 419L225 418M900 418L901 419L900 418M224 420L225 421L224 420M901 420L902 421L901 420M223.333 422.667L223.667 423.333L223.333 422.667M902 423L903 424L902 423M222 425L223 426L222 425M903.333 425.667L903.667 426.333L903.333 425.667z"/>
<path style="fill:#7f7f7f; stroke:none;" d="M1126 425L1127 426L1126 425z"/>
<path style="fill:#8da0ce; stroke:none;" d="M221 427L222 428L221 427M904 428L905 429L904 428z"/>
<path style="fill:#7f7f7f; stroke:none;" d="M220 429L221 430L220 429z"/>
<path style="fill:#8da0ce; stroke:none;" d="M220 430L221 431L220 430M905.333 430.667L905.667 431.333L905.333 430.667M219.333 432.667L219.667 433.333L219.333 432.667M906 433L907 434L906 433M218 435L219 436L218 435M907 436L908 437L907 436z"/>
<path style="fill:#7f7f7f; stroke:none;" d="M217 437L218 438L217 437z"/>
<path style="fill:#8da0ce; stroke:none;" d="M217 438L218 439L217 438z"/>
<path style="fill:#7f7f7f; stroke:none;" d="M908 438L909 439L908 438z"/>
<path style="fill:#8da0ce; stroke:none;" d="M908 439L909 440L908 439M216.333 440.667L216.667 441.333L216.333 440.667z"/>
<path style="fill:#7f7f7f; stroke:none;" d="M909 441L910 442L909 441z"/>
<path style="fill:#8da0ce; stroke:none;" d="M909 442L910 443L909 442M215.333 443.667L215.667 444.333L215.333 443.667M390 443L391 444L390 443z"/>
<path style="fill:#7f7f7f; stroke:none;" d="M391 443L392 444L391 443z"/>
<path style="fill:#8da0ce; stroke:none;" d="M392 443L394 445L392 443M734 443L734 444L737 444L734 443M388 444L387 446L388 444z"/>
<path style="fill:#4d6bb3; stroke:none;" d="M388.956 444.913C381.557 447.327 374.304 456.109 369.669 462C353.408 482.67 348.689 510.833 355.746 536C368.271 580.666 419.166 604.513 462 588.946C485.09 580.554 502.9 562.295 510.667 539C512.099 534.704 518.195 519.505 513.397 516.068C511.039 514.38 507.305 516.333 505 517.193C498.194 519.732 491.195 521.541 484 522.572C466.965 525.012 448.641 520.275 434 511.547C415.804 500.7 401.922 482.557 396.63 462C395.58 457.925 395.284 442.848 388.956 444.913M612 515C612.001 525.183 614.13 534.506 617.811 544C621.451 553.387 627.072 561.745 634.039 568.999C679.056 615.869 758.807 591.448 772.576 529C777.841 505.118 770.955 478.803 755.535 460C751.781 455.421 742.062 443.451 735.228 444.451C730.754 445.107 731.288 457.414 730.37 461C726.416 476.455 717.929 491.123 705.999 501.826C689.326 516.785 665.491 525.476 643 522.714C632.396 521.411 622.444 515.536 612 515z"/>
<path style="fill:#8da0ce; stroke:none;" d="M738 444L739 445L738 444z"/>
<path style="fill:#7f7f7f; stroke:none;" d="M910 444L911 445L910 444M393 445L394 446L393 445z"/>
<path style="fill:#8da0ce; stroke:none;" d="M732 445L733 446L732 445z"/>
<path style="fill:#7f7f7f; stroke:none;" d="M739 445L740 446L739 445z"/>
<path style="fill:#8da0ce; stroke:none;" d="M910 445L911 446L910 445M214.333 446.667L214.667 447.333L214.333 446.667M385 446L386 447L385 446M384 447L385 448L384 447M742 447L743 448L742 447z"/>
<path style="fill:#7f7f7f; stroke:none;" d="M911 447L912 448L911 447M383 448L384 449L383 448z"/>
<path style="fill:#8da0ce; stroke:none;" d="M743 448L744 449L743 448M911 448L912 449L911 448M213.333 449.667L213.667 450.333L213.333 449.667M394 449L394 452L395 452L394 449z"/>
<path style="fill:#7f7f7f; stroke:none;" d="M744 449L745 450L744 449z"/>
<path style="fill:#8da0ce; stroke:none;" d="M380 450L381 451L380 450M379 451L380 452L379 451M747 451L748 452L747 451M912 451L913 452L912 451M212.333 452.667L212.667 453.333L212.333 452.667M378 452L379 453L378 452z"/>
<path style="fill:#7f7f7f; stroke:none;" d="M394 452L395 453L394 452z"/>
<path style="fill:#8da0ce; stroke:none;" d="M748 452L749 453L748 452M377 453L378 454L377 453M731 453L731 456L732 456L731 453M749 453L750 454L749 453M376 454L377 455L376 454M750 454L751 455L750 454M913.333 454.667L913.667 455.333L913.333 454.667z"/>
<path style="fill:#7f7f7f; stroke:none;" d="M211 455L212 456L211 455z"/>
<path style="fill:#8da0ce; stroke:none;" d="M375 455L376 456L375 455M395 455L395 458L396 458L395 455M751 455L752 456L751 455M211 456L212 457L211 456M374 456L375 457L374 456z"/>
<path style="fill:#7f7f7f; stroke:none;" d="M731 456L732 457L731 456z"/>
<path style="fill:#8da0ce; stroke:none;" d="M752 456L753 457L752 456M373 457L374 458L373 457M753 457L754 458L753 457z"/>
<path style="fill:#7f7f7f; stroke:none;" d="M914 457L915 458L914 457z"/>
<path style="fill:#8da0ce; stroke:none;" d="M372 458L373 459L372 458M914 458L915 459L914 458M210.333 459.667L210.667 460.333L210.333 459.667M371 459L372 460L371 459M730.333 459.667L730.667 460.333L730.333 459.667M396.333 460.667L396.667 461.333L396.333 460.667z"/>
<path style="fill:#7f7f7f; stroke:none;" d="M756 461L757 462L756 461z"/>
<path style="fill:#8da0ce; stroke:none;" d="M915.333 461.667L915.667 462.333L915.333 461.667M209.333 462.667L209.667 463.333L209.333 462.667z"/>
<path style="fill:#7f7f7f; stroke:none;" d="M369 462L370 463L369 462z"/>
<path style="fill:#8da0ce; stroke:none;" d="M757 462L758 463L757 462M368 463L369 464L368 463M729.333 463.667L729.667 464.333L729.333 463.667M758 463L759 464L758 463M397 464L398 465L397 464M916.333 464.667L916.667 465.333L916.333 464.667z"/>
<path style="fill:#7f7f7f; stroke:none;" d="M397 465L398 466L397 465M759 465L760 466L759 465z"/>
<path style="fill:#8da0ce; stroke:none;" d="M208.333 466.667L208.667 467.333L208.333 466.667M366 466L367 467L366 466M728.333 466.667L728.667 467.333L728.333 466.667M760 466L761 467L760 466M365 467L366 468L365 467M398.333 467.667L398.667 468.333L398.333 467.667M761 468L762 469L761 468M917.333 468.667L917.667 469.333L917.333 468.667M364 469L365 470L364 469M727 469L728 470L727 469M762 469L763 470L762 469M207.333 470.667L207.667 471.333L207.333 470.667M399 470L400 471L399 470z"/>
<path style="fill:#7f7f7f; stroke:none;" d="M727 470L728 471L727 470M363 471L364 472L363 471z"/>
<path style="fill:#8da0ce; stroke:none;" d="M763 471L764 472L763 471M362 472L363 473L362 472M726 472L727 473L726 472M918.333 472.667L918.667 473.333L918.333 472.667M400 473L401 474L400 473M764 473L765 474L764 473M206.333 474.667L206.667 475.333L206.333 474.667M361 474L362 475L361 474M725 474L726 475L725 474M401 475L402 476L401 475z"/>
<path style="fill:#7f7f7f; stroke:none;" d="M725 475L726 476L725 475M765 475L766 476L765 475z"/>
<path style="fill:#8da0ce; stroke:none;" d="M360 476L361 477L360 476M724 476L725 477L724 476M919.333 476.667L919.667 477.333L919.333 476.667M402 477L403 478L402 477z"/>
<path style="fill:#7f7f7f; stroke:none;" d="M724 477L725 478L724 477z"/>
<path style="fill:#8da0ce; stroke:none;" d="M766 477L767 478L766 477M205.333 478.667L205.667 479.333L205.333 478.667M359 478L360 479L359 478M723 478L724 479L723 478M403 479L404 480L403 479z"/>
<path style="fill:#7f7f7f; stroke:none;" d="M723 479L724 480L723 479z"/>
<path style="fill:#8da0ce; stroke:none;" d="M767 479L768 480L767 479M358.333 480.667L358.667 481.333L358.333 480.667M722 480L723 481L722 480M920.333 480.667L920.667 481.333L920.333 480.667M404 481L405 482L404 481M768 481L769 482L768 481z"/>
<path style="fill:#7f7f7f; stroke:none;" d="M204 482L205 483L204 482z"/>
<path style="fill:#8da0ce; stroke:none;" d="M721 482L722 483L721 482M204.333 483.667L204.667 484.333L204.333 483.667M357 483L358 484L357 483z"/>
<path style="fill:#7f7f7f; stroke:none;" d="M405 483L406 484L405 483z"/>
<path style="fill:#8da0ce; stroke:none;" d="M406 484L407 485L406 484M720 484L721 485L720 484M769 484L770 485L769 484z"/>
<path style="fill:#7f7f7f; stroke:none;" d="M921 484L922 485L921 484z"/>
<path style="fill:#8da0ce; stroke:none;" d="M921.333 485.667L921.667 486.333L921.333 485.667M356 486L357 487L356 486M407 486L408 487L407 486M770.333 486.667L770.667 487.333L770.333 486.667z"/>
<path style="fill:#7f7f7f; stroke:none;" d="M203 487L204 488L203 487z"/>
<path style="fill:#8da0ce; stroke:none;" d="M408 487L409 488L408 487M718 487L719 488L718 487M203.333 488.667L203.667 489.333L203.333 488.667M717 488L718 489L717 488M355 489L356 490L355 489M409 489L410 490L409 489M922.333 489.667L922.667 490.333L922.333 489.667M410 490L411 491L410 490z"/>
<path style="fill:#7f7f7f; stroke:none;" d="M716 490L717 491L716 490z"/>
<path style="fill:#8da0ce; stroke:none;" d="M771 490L772 491L771 490M715 491L716 492L715 491z"/>
<path style="fill:#7f7f7f; stroke:none;" d="M771 491L772 492L771 491z"/>
<path style="fill:#8da0ce; stroke:none;" d="M354.333 492.667L354.667 493.333L354.333 492.667M714 492L715 493L714 492M202.333 493.667L202.667 494.333L202.333 493.667z"/>
<path style="fill:#7f7f7f; stroke:none;" d="M412 493L413 494L412 493z"/>
<path style="fill:#8da0ce; stroke:none;" d="M772.333 493.667L772.667 494.333L772.333 493.667z"/>
<path style="fill:#7f7f7f; stroke:none;" d="M354 494L355 495L354 494z"/>
<path style="fill:#8da0ce; stroke:none;" d="M413 494L414 495L413 494M923.333 494.667L923.667 495.333L923.333 494.667M414 495L415 496L414 495z"/>
<path style="fill:#7f7f7f; stroke:none;" d="M712 495L713 496L712 495M772 495L773 496L772 495z"/>
<path style="fill:#8da0ce; stroke:none;" d="M353 496L353 499L354 499L353 496M415 496L416 497L415 496M711 496L712 497L711 496M416 497L417 498L416 497M710 497L711 498L710 497z"/>
<path style="fill:#7f7f7f; stroke:none;" d="M201 498L202 499L201 498z"/>
<path style="fill:#8da0ce; stroke:none;" d="M417 498L418 499L417 498M709 498L710 499L709 498M773 498L773 501L774 501L773 498M201 499L201 502L202 502L201 499z"/>
<path style="fill:#7f7f7f; stroke:none;" d="M353 499L354 500L353 499z"/>
<path style="fill:#8da0ce; stroke:none;" d="M418 499L419 500L418 499M708 499L709 500L708 499M924 499L924 502L925 502L924 499M419 500L420 501L419 500M707 500L708 501L707 500M420 501L421 502L420 501M706 501L707 502L706 501z"/>
<path style="fill:#7f7f7f; stroke:none;" d="M773 501L774 502L773 501z"/>
<path style="fill:#8da0ce; stroke:none;" d="M421 502L422 503L421 502z"/>
<path style="fill:#7f7f7f; stroke:none;" d="M705 502L706 503L705 502z"/>
<path style="fill:#8da0ce; stroke:none;" d="M352 503L352 508L353 508L352 503M422 503L423 504L422 503z"/>
<path style="fill:#7f7f7f; stroke:none;" d="M704 503L705 504L704 503M423 504L424 505L423 504z"/>
<path style="fill:#8da0ce; stroke:none;" d="M200 505L200 509L201 509L200 505M701 505L702 506L701 505M925 505L925 508L926 508L925 505M426 506L427 507L426 506M700 506L701 507L700 506M774 506L774 520L775 520L774 506M427 507L428 508L427 507z"/>
<path style="fill:#7f7f7f; stroke:none;" d="M352 508L352 512L353 512L352 508z"/>
<path style="fill:#8da0ce; stroke:none;" d="M429 508L430 509L429 508M697 508L698 509L697 508M430 509L431 510L430 509z"/>
<path style="fill:#7f7f7f; stroke:none;" d="M696 509L697 510L696 509z"/>
<path style="fill:#8da0ce; stroke:none;" d="M432 510L433 511L432 510M694 510L695 511L694 510M433 511L434 512L433 511M692 511L693 512L692 511M926 511L926 514L927 514L926 511z"/>
<path style="fill:#7f7f7f; stroke:none;" d="M199 512L200 513L199 512z"/>
<path style="fill:#8da0ce; stroke:none;" d="M435 512L436 513L435 512M691 512L692 513L691 512M199 513L199 517L200 517L199 513M437 513L438 514L437 513M689 513L690 514L689 513M439 514L440 515L439 514M613.667 514.333L614.333 514.667L613.667 514.333M687 514L688 515L687 514z"/>
<path style="fill:#7f7f7f; stroke:none;" d="M352.333 515.667L352.667 516.333L352.333 515.667z"/>
<path style="fill:#8da0ce; stroke:none;" d="M441 515L442 516L441 515M509 515L510 516L509 515z"/>
<path style="fill:#7f7f7f; stroke:none;" d="M514 515L515 516L514 515z"/>
<path style="fill:#8da0ce; stroke:none;" d="M617 515L618 516L617 515M685 515L686 516L685 515M443 516L444 517L443 516M506 516L507 517L506 516M515 516L515 519L516 519L515 516M619 516L620 517L619 516M682 516L683 517L682 516z"/>
<path style="fill:#7f7f7f; stroke:none;" d="M683 516L684 517L683 516z"/>
<path style="fill:#8da0ce; stroke:none;" d="M352 517L352 522L353 522L352 517M446 517L447 518L446 517M503 517L504 518L503 517z"/>
<path style="fill:#7f7f7f; stroke:none;" d="M504 517L505 518L504 517z"/>
<path style="fill:#8da0ce; stroke:none;" d="M611 517L611 520L612 520L611 517M622 517L623 518L622 517M680 517L681 518L680 517M448.667 518.333L449.333 518.667L448.667 518.333M500.667 518.333L501.333 518.667L500.667 518.333z"/>
<path style="fill:#7f7f7f; stroke:none;" d="M624 518L625 519L624 518z"/>
<path style="fill:#8da0ce; stroke:none;" d="M625 518L626 519L625 518M677 518L678 519L677 518M927 518L927 522L928 522L927 518M451.667 519.333L452.333 519.667L451.667 519.333M497.667 519.333L498.333 519.667L497.667 519.333z"/>
<path style="fill:#7f7f7f; stroke:none;" d="M627 519L628 520L627 519z"/>
<path style="fill:#8da0ce; stroke:none;" d="M628 519L629 520L628 519M674 519L675 520L674 519M455.667 520.333L456.333 520.667L455.667 520.333M493.667 520.333L494.333 520.667L493.667 520.333M631.667 520.333L632.333 520.667L631.667 520.333M669.667 520.333L670.333 520.667L669.667 520.333z"/>
<path style="fill:#7f7f7f; stroke:none;" d="M671 520L672 521L671 520M459 521L460 522L459 521z"/>
<path style="fill:#8da0ce; stroke:none;" d="M460.667 521.333L461.333 521.667L460.667 521.333M488 521L488 522L491 522L488 521z"/>
<path style="fill:#7f7f7f; stroke:none;" d="M635 521L636 522L635 521z"/>
<path style="fill:#8da0ce; stroke:none;" d="M636.667 521.333L637.333 521.667L636.667 521.333M664 521L664 522L667 522L664 521M198 522L198 528L199 528L198 522z"/>
<path style="fill:#7f7f7f; stroke:none;" d="M465 522L466 523L465 522z"/>
<path style="fill:#8da0ce; stroke:none;" d="M466 522L466 523L473 523L466 522M477 522L477 523L484 523L477 522z"/>
<path style="fill:#7f7f7f; stroke:none;" d="M484 522L485 523L484 522M641 522L642 523L641 522z"/>
<path style="fill:#8da0ce; stroke:none;" d="M642 522L642 523L648 523L642 522M655 522L655 523L660 523L655 522z"/>
<path style="fill:#7f7f7f; stroke:none;" d="M660 522L661 523L660 522z"/>
<path style="fill:#8da0ce; stroke:none;" d="M514 523L514 526L515 526L514 523M773 524L773 527L774 527L773 524z"/>
<path style="fill:#7f7f7f; stroke:none;" d="M353 525L354 526L353 525z"/>
<path style="fill:#8da0ce; stroke:none;" d="M612 525L612 528L613 528L612 525M353.333 526.667L353.667 527.333L353.333 526.667M928 526L928 531L929 531L928 526M513.333 529.667L513.667 530.333L513.333 529.667z"/>
<path style="fill:#7f7f7f; stroke:none;" d="M772 529L773 530L772 529M354 530L355 531L354 530z"/>
<path style="fill:#8da0ce; stroke:none;" d="M613.333 530.667L613.667 531.333L613.333 530.667M772.333 530.667L772.667 531.333L772.333 530.667M354.333 531.667L354.667 532.333L354.333 531.667M512.333 533.667L512.667 534.333L512.333 533.667z"/>
<path style="fill:#7f7f7f; stroke:none;" d="M771 533L772 534L771 533z"/>
<path style="fill:#8da0ce; stroke:none;" d="M614.333 534.667L614.667 535.333L614.333 534.667M771 534L772 535L771 534z"/>
<path style="fill:#7f7f7f; stroke:none;" d="M197.333 535.667L197.667 536.333L197.333 535.667z"/>
<path style="fill:#8da0ce; stroke:none;" d="M355 535L356 536L355 535z"/>
<path style="fill:#7f7f7f; stroke:none;" d="M511 536L512 537L511 536M929 536L930 537L929 536z"/>
<path style="fill:#8da0ce; stroke:none;" d="M197 537L197 550L198 550L197 537M511 537L512 538L511 537z"/>
<path style="fill:#7f7f7f; stroke:none;" d="M615 537L616 538L615 537z"/>
<path style="fill:#8da0ce; stroke:none;" d="M770.333 537.667L770.667 538.333L770.333 537.667M929 537L929 543L930 543L929 537M356 538L357 539L356 538M615 538L616 539L615 538z"/>
<path style="fill:#7f7f7f; stroke:none;" d="M510 539L511 540L510 539z"/>
<path style="fill:#8da0ce; stroke:none;" d="M510 540L511 541L510 540z"/>
<path style="fill:#7f7f7f; stroke:none;" d="M616 540L617 541L616 540z"/>
<path style="fill:#8da0ce; stroke:none;" d="M769 540L770 541L769 540M357 541L358 542L357 541M616 541L617 542L616 541M509.333 542.667L509.667 543.333L509.333 542.667M358.333 543.667L358.667 544.333L358.333 543.667M617 543L618 544L617 543M768 543L769 544L768 543M508 545L509 546L508 545z"/>
<path style="fill:#7f7f7f; stroke:none;" d="M618 545L619 546L618 545z"/>
<path style="fill:#8da0ce; stroke:none;" d="M767 545L768 546L767 545M359 546L360 547L359 546M618 546L619 547L618 546M507 547L508 548L507 547M766 547L767 548L766 547M360 548L361 549L360 548M619 548L620 549L619 548M506 549L507 550L506 549M765 549L766 550L765 549M361 550L362 551L361 550M620 550L621 551L620 550M505 551L506 552L505 551M764 551L765 552L764 551M362 552L363 553L362 552M621 552L622 553L621 552z"/>
<path style="fill:#7f7f7f; stroke:none;" d="M363 553L364 554L363 553z"/>
<path style="fill:#8da0ce; stroke:none;" d="M504 553L505 554L504 553M622 553L623 554L622 553M763 553L764 554L763 553z"/>
<path style="fill:#7f7f7f; stroke:none;" d="M930.333 553.667L930.667 554.333L930.333 553.667M503 554L504 555L503 554z"/>
<path style="fill:#8da0ce; stroke:none;" d="M364 555L365 556L364 555M623 555L624 556L623 555M762 555L763 556L762 555M930 555L930 575L931 575L930 555M502 556L503 557L502 556M761 556L762 557L761 556M365 557L366 558L365 557M624 557L625 558L624 557M366 558L367 559L366 558M501 558L502 559L501 558M625 558L626 559L625 558M760 558L761 559L760 558M500 559L501 560L500 559M759 559L760 560L759 559M367 560L368 561L367 560M368 561L369 562L368 561M627 561L628 562L627 561M758 561L759 562L758 561M197 562L197 576L198 576L197 562z"/>
<path style="fill:#7f7f7f; stroke:none;" d="M369 562L370 563L369 562z"/>
<path style="fill:#8da0ce; stroke:none;" d="M498 562L499 563L498 562M628 562L629 563L628 562M757 562L758 563L757 562M497 563L498 564L497 563z"/>
<path style="fill:#7f7f7f; stroke:none;" d="M629 563L630 564L629 563z"/>
<path style="fill:#8da0ce; stroke:none;" d="M756 563L757 564L756 563z"/>
<path style="fill:#7f7f7f; stroke:none;" d="M496 564L497 565L496 564z"/>
<path style="fill:#8da0ce; stroke:none;" d="M371 565L372 566L371 565M372 566L373 567L372 566M631 566L632 567L631 566M373 567L374 568L373 567M632 567L633 568L632 567M753 567L754 568L753 567M374 568L375 569L374 568M493 568L494 569L493 568M633 568L634 569L633 568M752 568L753 569L752 568M375 569L376 570L375 569M492 569L493 570L492 569M634 569L635 570L634 569M751 569L752 570L751 569M376 570L377 571L376 570M491 570L492 571L491 570M635 570L636 571L635 570M750 570L751 571L750 570M377 571L378 572L377 571M490 571L491 572L490 571M636 571L637 572L636 571M749 571L750 572L749 571M378 572L379 573L378 572M489 572L490 573L489 572M637 572L638 573L637 572M748 572L749 573L748 572M379 573L380 574L379 573M638 573L639 574L638 573M747 573L748 574L747 573M380 574L381 575L380 574M381 575L382 576L381 575z"/>
<path style="fill:#7f7f7f; stroke:none;" d="M485 575L486 576L485 575M744 575L745 576L744 575M930 575L930 578L931 578L930 575M197.333 576.667L197.667 577.333L197.333 576.667M383 576L384 577L383 576z"/>
<path style="fill:#8da0ce; stroke:none;" d="M484 576L485 577L484 576M642 576L643 577L642 576M743 576L744 577L743 576M384 577L385 578L384 577M483 577L484 578L483 577M643 577L644 578L643 577M742 577L743 578L742 577M385 578L386 579L385 578z"/>
<path style="fill:#7f7f7f; stroke:none;" d="M481 578L482 579L481 578M387 579L388 580L387 579z"/>
<path style="fill:#8da0ce; stroke:none;" d="M480 579L481 580L480 579M646 579L647 580L646 579M739 579L740 580L739 579M388 580L389 581L388 580M647 580L648 581L647 580M390 581L391 582L390 581M477 581L478 582L477 581M649 581L650 582L649 581M736 581L737 582L736 581M391 582L392 583L391 582z"/>
<path style="fill:#7f7f7f; stroke:none;" d="M475 582L476 583L475 582M734 582L735 583L734 582z"/>
<path style="fill:#8da0ce; stroke:none;" d="M393 583L394 584L393 583M474 583L475 584L474 583M652 583L653 584L652 583M733 583L734 584L733 583M198 584L198 591L199 591L198 584M395 584L396 585L395 584M472 584L473 585L472 584M654 584L655 585L654 584M731 584L732 585L731 584M397 585L398 586L397 585M470 585L471 586L470 585M656 585L657 586L656 585M729 585L730 586L729 585M399 586L400 587L399 586M468 586L469 587L468 586M658 586L659 587L658 586M727 586L728 587L727 586M401 587L402 588L401 587M465.667 587.333L466.333 587.667L465.667 587.333M660 587L661 588L660 587z"/>
<path style="fill:#7f7f7f; stroke:none;" d="M661 587L662 588L661 587M724 587L725 588L724 587z"/>
<path style="fill:#8da0ce; stroke:none;" d="M725 587L726 588L725 587M929 587L929 593L930 593L929 587M404 588L405 589L404 588M463 588L464 589L463 588M663 588L664 589L663 588M722 588L723 589L722 588M406.667 589.333L407.333 589.667L406.667 589.333M460 589L461 590L460 589M665.667 589.333L666.333 589.667L665.667 589.333M719 589L720 590L719 589z"/>
<path style="fill:#8da0ce; stroke:none;" d="M409.667 590.333L410.333 590.667L409.667 590.333M457 590L458 591L457 590M668.667 590.333L669.333 590.667L668.667 590.333M716 590L717 591L716 590z"/>
<path style="fill:#7f7f7f; stroke:none;" d="M198 591L199 592L198 591z"/>
<path style="fill:#8da0ce; stroke:none;" d="M413 591L414 592L413 591z"/>
<path style="fill:#7f7f7f; stroke:none;" d="M414 591L415 592L414 591z"/>
<path style="fill:#8da0ce; stroke:none;" d="M453.667 591.333L454.333 591.667L453.667 591.333M672.667 591.333L673.333 591.667L672.667 591.333M712.667 591.333L713.333 591.667L712.667 591.333M417.667 592.333L418.333 592.667L417.667 592.333z"/>
<path style="fill:#7f7f7f; stroke:none;" d="M419 592L420 593L419 592z"/>
<path style="fill:#8da0ce; stroke:none;" d="M448 592L448 593L451 593L448 592M676.667 592.333L677.333 592.667L676.667 592.333z"/>
<path style="fill:#7f7f7f; stroke:none;" d="M678 592L679 593L678 592z"/>
<path style="fill:#8da0ce; stroke:none;" d="M707.667 592.333L708.333 592.667L707.667 592.333M423 593L423 594L427 594L423 593z"/>
<path style="fill:#7f7f7f; stroke:none;" d="M427.667 593.333L428.333 593.667L427.667 593.333M439 593L440 594L439 593z"/>
<path style="fill:#8da0ce; stroke:none;" d="M440 593L440 594L445 594L440 593M682 593L682 594L686 594L682 593z"/>
<path style="fill:#7f7f7f; stroke:none;" d="M686.667 593.333L687.333 593.667L686.667 593.333M698 593L699 594L698 593z"/>
<path style="fill:#8da0ce; stroke:none;" d="M699 593L699 594L703 594L699 593z"/>
<path style="fill:#7f7f7f; stroke:none;" d="M929 593L930 594L929 593z"/>
<path style="fill:#8da0ce; stroke:none;" d="M199 596L199 600L200 600L199 596M928 599L928 603L929 603L928 599z"/>
<path style="fill:#7f7f7f; stroke:none;" d="M199 600L200 601L199 600M928 603L929 604L928 603z"/>
<path style="fill:#8da0ce; stroke:none;" d="M200 605L200 609L201 609L200 605M927 607L927 611L928 611L927 607z"/>
<path style="fill:#7f7f7f; stroke:none;" d="M1144 610L1145 611L1144 610z"/>
<path style="fill:#8da0ce; stroke:none;" d="M201 613L201 616L202 616L201 613M926 615L926 618L927 618L926 615z"/>
<path style="fill:#7f7f7f; stroke:none;" d="M201 616L202 617L201 616z"/>
<path style="fill:#8da0ce; stroke:none;" d="M202 619L202 622L203 622L202 619M925 621L925 624L926 624L925 621z"/>
<path style="fill:#7f7f7f; stroke:none;" d="M202 622L203 623L202 622z"/>
<path style="fill:#8da0ce; stroke:none;" d="M203.333 626.667L203.667 627.333L203.333 626.667M924 626L924 629L925 629L924 626z"/>
<path style="fill:#7f7f7f; stroke:none;" d="M203 628L204 629L203 628z"/>
<path style="fill:#8da0ce; stroke:none;" d="M204 631L204 634L205 634L204 631M923 631L923 634L924 634L923 631M922.333 636.667L922.667 637.333L922.333 636.667M205.333 637.667L205.667 638.333L205.333 637.667z"/>
<path style="fill:#7f7f7f; stroke:none;" d="M922 638L923 639L922 638z"/>
<path style="fill:#8da0ce; stroke:none;" d="M921.333 640.667L921.667 641.333L921.333 640.667M206 642L207 643L206 642z"/>
<path style="fill:#7f7f7f; stroke:none;" d="M921 642L922 643L921 642M206 643L207 644L206 643z"/>
<path style="fill:#8da0ce; stroke:none;" d="M207.333 645.667L207.667 646.333L207.333 645.667M920.333 645.667L920.667 646.333L920.333 645.667M208.333 649.667L208.667 650.333L208.333 649.667M919 649L920 650L919 649z"/>
<path style="fill:#7f7f7f; stroke:none;" d="M919 650L920 651L919 650z"/>
<path style="fill:#8da0ce; stroke:none;" d="M918.333 652.667L918.667 653.333L918.333 652.667M209 653L210 654L209 653M210 656L211 657L210 656M917.333 656.667L917.667 657.333L917.333 656.667z"/>
<path style="fill:#7f7f7f; stroke:none;" d="M210 657L211 658L210 657z"/>
<path style="fill:#8da0ce; stroke:none;" d="M211.333 659.667L211.667 660.333L211.333 659.667M916.333 659.667L916.667 660.333L916.333 659.667M212.333 662.667L212.667 663.333L212.333 662.667M915.333 662.667L915.667 663.333L915.333 662.667M213 666L214 667L213 666M914 666L915 667L914 666M214 669L215 670L214 669M913 669L914 670L913 669z"/>
<path style="fill:#7f7f7f; stroke:none;" d="M1137 670L1138 671L1137 670z"/>
<path style="fill:#8da0ce; stroke:none;" d="M215 672L216 673L215 672M912 672L913 673L912 672M216 675L217 676L216 675M911 675L912 676L911 675M910.333 677.667L910.667 678.333L910.333 677.667M217 678L218 679L217 678M218 680L219 681L218 680M909 680L910 681L909 680z"/>
<path style="fill:#7f7f7f; stroke:none;" d="M218 681L219 682L218 681M909 681L910 682L909 681M1135 681L1136 682L1135 681z"/>
<path style="fill:#8da0ce; stroke:none;" d="M219 683L220 684L219 683M908 683L909 684L908 683M907.333 685.667L907.667 686.333L907.333 685.667M220 686L221 687L220 686M221 688L222 689L221 688M906 688L907 689L906 688z"/>
<path style="fill:#7f7f7f; stroke:none;" d="M221 689L222 690L221 689z"/>
<path style="fill:#8da0ce; stroke:none;" d="M905.333 690.667L905.667 691.333L905.333 690.667M222 691L223 692L222 691M223 693L224 694L223 693M904 693L905 694L904 693z"/>
<path style="fill:#7f7f7f; stroke:none;" d="M223 694L224 695L223 694z"/>
<path style="fill:#8da0ce; stroke:none;" d="M903 695L904 696L903 695M224 696L225 697L224 696z"/>
<path style="fill:#7f7f7f; stroke:none;" d="M903 696L904 697L903 696z"/>
<path style="fill:#8da0ce; stroke:none;" d="M225 698L226 699L225 698M902 698L903 699L902 698z"/>
<path style="fill:#7f7f7f; stroke:none;" d="M225 699L226 700L225 699z"/>
<path style="fill:#8da0ce; stroke:none;" d="M901 700L902 701L901 700M226 701L227 702L226 701M900 702L901 703L900 702M227 703L228 704L227 703M899 704L900 705L899 704M228 705L229 706L228 705M898 706L899 707L898 706M229 707L230 708L229 707z"/>
<path style="fill:#7f7f7f; stroke:none;" d="M898 707L899 708L898 707M229 708L230 709L229 708z"/>
<path style="fill:#8da0ce; stroke:none;" d="M897 709L898 710L897 709M230 710L231 711L230 710M896 711L897 712L896 711M231 712L232 713L231 712M895 713L896 714L895 713M232 714L233 715L232 714z"/>
<path style="fill:#7f7f7f; stroke:none;" d="M18 715L19 716L18 715z"/>
<path style="fill:#8da0ce; stroke:none;" d="M894 715L895 716L894 715M233 716L234 717L233 716M893 717L894 718L893 717M234 718L235 719L234 718M892 719L893 720L892 719M235 720L236 721L235 720M891 721L892 722L891 721M236 722L237 723L236 722z"/>
<path style="fill:#7f7f7f; stroke:none;" d="M890 723L891 724L890 723z"/>
<path style="fill:#8da0ce; stroke:none;" d="M237 724L238 725L237 724M889 724L890 725L889 724M238 726L239 727L238 726M888 726L889 727L888 726M239 728L240 729L239 728M887 728L888 729L887 728M240 730L241 731L240 730M886 730L887 731L886 730M241 732L242 733L241 732z"/>
<path style="fill:#7f7f7f; stroke:none;" d="M885 732L886 733L885 732z"/>
<path style="fill:#8da0ce; stroke:none;" d="M884 733L885 734L884 733z"/>
<path style="fill:#7f7f7f; stroke:none;" d="M242 734L243 735L242 734z"/>
<path style="fill:#8da0ce; stroke:none;" d="M243 735L244 736L243 735M883 735L884 736L883 735M244 737L245 738L244 737M882 737L883 738L882 737M245 739L246 740L245 739z"/>
<path style="fill:#7f7f7f; stroke:none;" d="M881 739L882 740L881 739z"/>
<path style="fill:#8da0ce; stroke:none;" d="M880 740L881 741L880 740M246 741L247 742L246 741M247 742L248 743L247 742M879 742L880 743L879 742M248 744L249 745L248 744M877 745L878 746L877 745M249 746L250 747L249 746M250 747L251 748L250 747z"/>
<path style="fill:#7f7f7f; stroke:none;" d="M876 747L877 748L876 747z"/>
<path style="fill:#8da0ce; stroke:none;" d="M875 748L876 749L875 748M251 749L252 750L251 749M874 750L875 751L874 750M252 751L253 752L252 751M253 752L254 753L253 752M872 753L873 754L872 753M254 754L255 755L254 754M255 755L256 756L255 755M870 756L871 757L870 756M256 757L257 758L256 757z"/>
<path style="fill:#7f7f7f; stroke:none;" d="M1115 757L1116 758L1115 757z"/>
<path style="fill:#8da0ce; stroke:none;" d="M868 759L869 760L868 759M258 760L259 761L258 760M866 762L867 763L866 762M260 763L261 764L260 763M865 763L866 764L865 763M261 764L262 765L261 764M864 765L865 766L864 765M262 766L263 767L262 766M863 766L864 767L863 766M263 767L264 768L263 767z"/>
<path style="fill:#7f7f7f; stroke:none;" d="M862 768L863 769L862 768M264 769L265 770L264 769z"/>
<path style="fill:#8da0ce; stroke:none;" d="M861 769L862 770L861 769M265 770L266 771L265 770M266 771L267 772L266 771M859 772L860 773L859 772z"/>
<path style="fill:#7f7f7f; stroke:none;" d="M267 773L268 774L267 773z"/>
<path style="fill:#8da0ce; stroke:none;" d="M858 773L859 774L858 773M268 774L269 775L268 774M856 776L857 777L856 776M270 777L271 778L270 777M855 777L856 778L855 777M271 778L272 779L271 778M272 779L273 780L272 779z"/>
<path style="fill:#7f7f7f; stroke:none;" d="M1107 779L1108 780L1107 779z"/>
<path style="fill:#8da0ce; stroke:none;" d="M853 780L854 781L853 780M852 781L853 782L852 781M274 782L275 783L274 782M851 782L852 783L851 782z"/>
<path style="fill:#7f7f7f; stroke:none;" d="M40 783L41 784L40 783z"/>
<path style="fill:#8da0ce; stroke:none;" d="M275 783L276 784L275 783M276 784L277 785L276 784z"/>
<path style="fill:#7f7f7f; stroke:none;" d="M850 784L851 785L850 784z"/>
<path style="fill:#8da0ce; stroke:none;" d="M849 785L850 786L849 785M848 786L849 787L848 786M278 787L279 788L278 787M279 788L280 789L279 788M280 789L281 790L280 789z"/>
<path style="fill:#7f7f7f; stroke:none;" d="M846 789L847 790L846 789z"/>
<path style="fill:#8da0ce; stroke:none;" d="M281 790L282 791L281 790M845 790L846 791L845 790M844 791L845 792L844 791M843 792L844 793L843 792z"/>
<path style="fill:#7f7f7f; stroke:none;" d="M283 793L284 794L283 793z"/>
<path style="fill:#8da0ce; stroke:none;" d="M284 794L285 795L284 794M285 795L286 796L285 795z"/>
<path style="fill:#7f7f7f; stroke:none;" d="M841 795L842 796L841 795z"/>
<path style="fill:#8da0ce; stroke:none;" d="M286 796L287 797L286 796M840 796L841 797L840 796M287 797L288 798L287 797M839 797L840 798L839 797M288 798L289 799L288 798M838 798L839 799L838 798z"/>
<path style="fill:#7f7f7f; stroke:none;" d="M836 801L837 802L836 801z"/>
<path style="fill:#8da0ce; stroke:none;" d="M835 802L836 803L835 802z"/>
<path style="fill:#7f7f7f; stroke:none;" d="M292 803L293 804L292 803z"/>
<path style="fill:#8da0ce; stroke:none;" d="M834 803L835 804L834 803z"/>
<path style="fill:#7f7f7f; stroke:none;" d="M293 804L294 805L293 804z"/>
<path style="fill:#8da0ce; stroke:none;" d="M833 804L834 805L833 804z"/>
<path style="fill:#7f7f7f; stroke:none;" d="M294 805L295 806L294 805z"/>
<path style="fill:#8da0ce; stroke:none;" d="M832 805L833 806L832 805M295 806L296 807L295 806M296 807L297 808L296 807M297 808L298 809L297 808z"/>
<path style="fill:#7f7f7f; stroke:none;" d="M830 808L831 809L830 808z"/>
<path style="fill:#8da0ce; stroke:none;" d="M298 809L299 810L298 809M829 809L830 810L829 809M299 810L300 811L299 810z"/>
<path style="fill:#7f7f7f; stroke:none;" d="M1094 810L1095 811L1094 810z"/>
<path style="fill:#8da0ce; stroke:none;" d="M300 811L301 812L300 811z"/>
<path style="fill:#7f7f7f; stroke:none;" d="M828 811L829 812L828 811z"/>
<path style="fill:#8da0ce; stroke:none;" d="M301 812L302 813L301 812M827 812L828 813L827 812M302 813L303 814L302 813z"/>
<path style="fill:#7f7f7f; stroke:none;" d="M827 813L828 814L827 813z"/>
<path style="fill:#8da0ce; stroke:none;" d="M303 814L304 815L303 814M304 815L305 816L304 815M826 815L827 816L826 815z"/>
<path style="fill:#7f7f7f; stroke:none;" d="M305 816L306 817L305 816M306 817L307 818L306 817z"/>
<path style="fill:#8da0ce; stroke:none;" d="M825 817L826 818L825 817z"/>
<path style="fill:#7f7f7f; stroke:none;" d="M307 818L308 819L307 818z"/>
<path style="fill:#8da0ce; stroke:none;" d="M824 820L825 821L824 820M312 822L313 823L312 822M313 823L314 824L313 823M823 823L823 826L824 826L823 823M314 824L315 825L314 824M315 825L316 826L315 825M316 826L317 827L316 826z"/>
<path style="fill:#7f7f7f; stroke:none;" d="M317 827L318 828L317 827z"/>
<path style="fill:#8da0ce; stroke:none;" d="M321 830L322 831L321 830M822 830L822 834L823 834L822 830M322 831L323 832L322 831M323 832L324 833L323 832z"/>
<path style="fill:#7f7f7f; stroke:none;" d="M324 833L325 834L324 833z"/>
<path style="fill:#8da0ce; stroke:none;" d="M327 835L328 836L327 835M328 836L329 837L328 836z"/>
<path style="fill:#7f7f7f; stroke:none;" d="M329 837L330 838L329 837z"/>
<path style="fill:#8da0ce; stroke:none;" d="M823 838L823 841L824 841L823 838M332 839L333 840L332 839M333 840L334 841L333 840z"/>
<path style="fill:#7f7f7f; stroke:none;" d="M334 841L335 842L334 841z"/>
<path style="fill:#8da0ce; stroke:none;" d="M336 842L337 843L336 842z"/>
<path style="fill:#7f7f7f; stroke:none;" d="M824 842L825 843L824 842z"/>
<path style="fill:#8da0ce; stroke:none;" d="M337 843L338 844L337 843M824 843L825 844L824 843z"/>
<path style="fill:#7f7f7f; stroke:none;" d="M338 844L339 845L338 844z"/>
<path style="fill:#8da0ce; stroke:none;" d="M340 845L341 846L340 845M825.333 845.667L825.667 846.333L825.333 845.667M341 846L342 847L341 846z"/>
<path style="fill:#7f7f7f; stroke:none;" d="M342 847L343 848L342 847z"/>
<path style="fill:#8da0ce; stroke:none;" d="M344 848L345 849L344 848M826 848L827 849L826 848M345 849L346 850L345 849M827 850L828 851L827 850M348 851L349 852L348 851z"/>
<path style="fill:#7f7f7f; stroke:none;" d="M828 851L829 852L828 851M349 852L350 853L349 852z"/>
<path style="fill:#8da0ce; stroke:none;" d="M351 853L352 854L351 853M829 853L830 854L829 853M352 854L353 855L352 854M354 855L355 856L354 855z"/>
<path style="fill:#7f7f7f; stroke:none;" d="M1071 855L1072 856L1071 855M75 856L76 857L75 856z"/>
<path style="fill:#8da0ce; stroke:none;" d="M355 856L356 857L355 856M831 856L832 857L831 856M357 857L358 858L357 857M832 857L833 858L832 857M358 858L359 859L358 858z"/>
<path style="fill:#7f7f7f; stroke:none;" d="M833 858L834 859L833 858z"/>
<path style="fill:#8da0ce; stroke:none;" d="M360 859L361 860L360 859M361 860L362 861L361 860M363 861L364 862L363 861M835 861L836 862L835 861z"/>
<path style="fill:#7f7f7f; stroke:none;" d="M364 862L365 863L364 862z"/>
<path style="fill:#8da0ce; stroke:none;" d="M836 862L837 863L836 862M366 863L367 864L366 863M837 863L838 864L837 863M838 864L839 865L838 864M369 865L370 866L369 865M839 865L840 866L839 865M371 866L372 867L371 866M840 866L841 867L840 866z"/>
<path style="fill:#7f7f7f; stroke:none;" d="M372 867L373 868L372 867z"/>
<path style="fill:#8da0ce; stroke:none;" d="M841 867L842 868L841 867z"/>
<path style="fill:#7f7f7f; stroke:none;" d="M1064 867L1065 868L1064 867z"/>
<path style="fill:#8da0ce; stroke:none;" d="M374 868L375 869L374 868M842 868L843 869L842 868M376 869L377 870L376 869M843 869L844 870L843 869z"/>
<path style="fill:#7f7f7f; stroke:none;" d="M377 870L378 871L377 870z"/>
<path style="fill:#8da0ce; stroke:none;" d="M844 870L845 871L844 870M379 871L380 872L379 871M845 871L846 872L845 871M381 872L382 873L381 872M846 872L847 873L846 872z"/>
<path style="fill:#7f7f7f; stroke:none;" d="M382 873L383 874L382 873z"/>
<path style="fill:#8da0ce; stroke:none;" d="M383 873L384 874L383 873M847 873L848 874L847 873z"/>
<path style="fill:#7f7f7f; stroke:none;" d="M384 874L385 875L384 874z"/>
<path style="fill:#8da0ce; stroke:none;" d="M386 875L387 876L386 875z"/>
<path style="fill:#7f7f7f; stroke:none;" d="M850 875L851 876L850 875M87 876L88 877L87 876z"/>
<path style="fill:#8da0ce; stroke:none;" d="M388 876L389 877L388 876M851 876L852 877L851 876M390 877L391 878L390 877M852 877L853 878L852 877z"/>
<path style="fill:#7f7f7f; stroke:none;" d="M391 878L392 879L391 878M393 879L394 880L393 879z"/>
<path style="fill:#8da0ce; stroke:none;" d="M855 879L856 880L855 879M395 880L396 881L395 880M397 881L398 882L397 881M858 881L859 882L858 881M399 882L400 883L399 882z"/>
<path style="fill:#7f7f7f; stroke:none;" d="M860 882L861 883L860 882z"/>
<path style="fill:#8da0ce; stroke:none;" d="M401 883L402 884L401 883M861 883L862 884L861 883M403 884L404 885L403 884M863 884L864 885L863 884M405 885L406 886L405 885M865 885L866 886L865 885M407 886L408 887L407 886z"/>
<path style="fill:#7f7f7f; stroke:none;" d="M867 886L868 887L867 886z"/>
<path style="fill:#8da0ce; stroke:none;" d="M409 887L410 888L409 887M868 887L869 888L868 887M411 888L412 889L411 888M870 888L871 889L870 888M413 889L414 890L413 889M872 889L873 890L872 889z"/>
<path style="fill:#7f7f7f; stroke:none;" d="M96 890L97 891L96 890z"/>
<path style="fill:#8da0ce; stroke:none;" d="M415 890L416 891L415 890z"/>
<path style="fill:#7f7f7f; stroke:none;" d="M874 890L875 891L874 890z"/>
<path style="fill:#8da0ce; stroke:none;" d="M417 891L418 892L417 891M875 891L876 892L875 891M419 892L420 893L419 892M877 892L878 893L877 892M421 893L422 894L421 893M879 893L880 894L879 893z"/>
<path style="fill:#7f7f7f; stroke:none;" d="M423 894L424 895L423 894z"/>
<path style="fill:#8da0ce; stroke:none;" d="M424 894L425 895L424 894M880 894L881 895L880 894M426 895L427 896L426 895M881.333 895.667L881.667 896.333L881.333 895.667M428 896L429 897L428 896M430 897L431 898L430 897z"/>
<path style="fill:#7f7f7f; stroke:none;" d="M880 897L881 898L880 897z"/>
<path style="fill:#8da0ce; stroke:none;" d="M432.667 898.333L433.333 898.667L432.667 898.333M877 898L878 899L877 898z"/>
<path style="fill:#7f7f7f; stroke:none;" d="M878 898L879 899L878 898M434 899L435 900L434 899z"/>
<path style="fill:#8da0ce; stroke:none;" d="M435 899L436 900L435 899M875 899L876 900L875 899M437 900L438 901L437 900M873 900L874 901L873 900M439.667 901.333L440.333 901.667L439.667 901.333M870 901L871 902L870 901z"/>
<path style="fill:#7f7f7f; stroke:none;" d="M871 901L872 902L871 901z"/>
<path style="fill:#8da0ce; stroke:none;" d="M442 902L443 903L442 902M868 902L869 903L868 902M444 903L445 904L444 903M866 903L867 904L866 903z"/>
<path style="fill:#7f7f7f; stroke:none;" d="M446 904L447 905L446 904z"/>
<path style="fill:#8da0ce; stroke:none;" d="M447 904L448 905L447 904M863 904L864 905L863 904z"/>
<path style="fill:#7f7f7f; stroke:none;" d="M449 905L450 906L449 905z"/>
<path style="fill:#8da0ce; stroke:none;" d="M450 905L451 906L450 905M861 905L862 906L861 905z"/>
<path style="fill:#7f7f7f; stroke:none;" d="M452 906L453 907L452 906z"/>
<path style="fill:#8da0ce; stroke:none;" d="M453 906L454 907L453 906M858 906L859 907L858 906z"/>
<path style="fill:#7f7f7f; stroke:none;" d="M859 906L860 907L859 906M455 907L456 908L455 907z"/>
<path style="fill:#8da0ce; stroke:none;" d="M456 907L457 908L456 907M856 907L857 908L856 907z"/>
<path style="fill:#7f7f7f; stroke:none;" d="M458 908L459 909L458 908z"/>
<path style="fill:#8da0ce; stroke:none;" d="M459 908L460 909L459 908M853 908L854 909L853 908M462.667 909.333L463.333 909.667L462.667 909.333M850.667 909.333L851.333 909.667L850.667 909.333z"/>
<path style="fill:#7f7f7f; stroke:none;" d="M110 910L111 911L110 910z"/>
<path style="fill:#8da0ce; stroke:none;" d="M465.667 910.333L466.333 910.667L465.667 910.333M848 910L849 911L848 910z"/>
<path style="fill:#7f7f7f; stroke:none;" d="M468 911L469 912L468 911z"/>
<path style="fill:#8da0ce; stroke:none;" d="M469 911L470 912L469 911M845 911L846 912L845 911M472 912L473 913L472 912M842.667 912.333L843.333 912.667L842.667 912.333z"/>
<path style="fill:#7f7f7f; stroke:none;" d="M475 913L476 914L475 913z"/>
<path style="fill:#8da0ce; stroke:none;" d="M476 913L477 914L476 913M840 913L841 914L840 913M479.667 914.333L480.333 914.667L479.667 914.333M837 914L838 915L837 914M483 915L484 916L483 915M834 915L835 916L834 915M486.667 916.333L487.333 916.667L486.667 916.333M831 916L832 917L831 916M490.667 917.333L491.333 917.667L490.667 917.333M828 917L829 918L828 917M494.667 918.333L495.333 918.667L494.667 918.333M824.667 918.333L825.333 918.667L824.667 918.333M498.667 919.333L499.333 919.667L498.667 919.333M821.667 919.333L822.333 919.667L821.667 919.333M502.667 920.333L503.333 920.667L502.667 920.333M818 920L819 921L818 920z"/>
<path style="fill:#7f7f7f; stroke:none;" d="M819 920L820 921L819 920z"/>
<path style="fill:#8da0ce; stroke:none;" d="M506.667 921.333L507.333 921.667L506.667 921.333M814.667 921.333L815.333 921.667L814.667 921.333z"/>
<path style="fill:#7f7f7f; stroke:none;" d="M119 922L120 923L119 922M510 922L511 923L510 922z"/>
<path style="fill:#8da0ce; stroke:none;" d="M511.667 922.333L512.333 922.667L511.667 922.333M811 922L812 923L811 922z"/>
<path style="fill:#7f7f7f; stroke:none;" d="M812 922L813 923L812 922z"/>
<path style="fill:#8da0ce; stroke:none;" d="M515.667 923.333L516.333 923.667L515.667 923.333M807.667 923.333L808.333 923.667L807.667 923.333M519 924L519 925L522 925L519 924M803.667 924.333L804.333 924.667L803.667 924.333M524.667 925.333L525.333 925.667L524.667 925.333M799.667 925.333L800.333 925.667L799.667 925.333M529.667 926.333L530.333 926.667L529.667 926.333M795.667 926.333L796.333 926.667L795.667 926.333M534.667 927.333L535.333 927.667L534.667 927.333M791.667 927.333L792.333 927.667L791.667 927.333M539 928L539 929L542 929L539 928M786.667 928.333L787.333 928.667L786.667 928.333M544 929L544 930L547 930L544 929M781.667 929.333L782.333 929.667L781.667 929.333z"/>
<path style="fill:#7f7f7f; stroke:none;" d="M783 929L784 930L783 929z"/>
<path style="fill:#8da0ce; stroke:none;" d="M550 930L550 931L553 931L550 930M776.667 930.333L777.333 930.667L776.667 930.333z"/>
<path style="fill:#7f7f7f; stroke:none;" d="M778 930L779 931L778 930M555 931L556 932L555 931z"/>
<path style="fill:#8da0ce; stroke:none;" d="M556 931L556 932L559 932L556 931M769 931L769 932L772 932L769 931z"/>
<path style="fill:#7f7f7f; stroke:none;" d="M772 931L773 932L772 931z"/>
<path style="fill:#8da0ce; stroke:none;" d="M562 932L562 933L565 933L562 932M763 932L763 933L766 933L763 932z"/>
<path style="fill:#7f7f7f; stroke:none;" d="M568 933L569 934L568 933z"/>
<path style="fill:#8da0ce; stroke:none;" d="M569 933L569 934L573 934L569 933M755 933L755 934L759 934L755 933z"/>
<path style="fill:#7f7f7f; stroke:none;" d="M576 934L577 935L576 934z"/>
<path style="fill:#8da0ce; stroke:none;" d="M577 934L577 935L581 935L577 934M746 934L746 935L750 935L746 934z"/>
<path style="fill:#7f7f7f; stroke:none;" d="M750 934L751 935L750 934M1017 934L1018 935L1017 934M585 935L586 936L585 935z"/>
<path style="fill:#8da0ce; stroke:none;" d="M586 935L586 936L591 936L586 935M734 935L734 936L740 936L734 935z"/>
<path style="fill:#7f7f7f; stroke:none;" d="M597 936L598 937L597 936z"/>
<path style="fill:#8da0ce; stroke:none;" d="M598 936L598 937L606 937L598 936M721 936L721 937L727 937L721 936z"/>
<path style="fill:#7f7f7f; stroke:none;" d="M727.667 936.333L728.333 936.667L727.667 936.333M617 937L617 938L620 938L617 937z"/>
<path style="fill:#8da0ce; stroke:none;" d="M620 937L620 938L708 938L681 937L620 937z"/>
<path style="fill:#7f7f7f; stroke:none;" d="M708.667 937.333L709.333 937.667L708.667 937.333M142 950L143 951L142 950M967 988L968 989L967 988M934 1017L935 1018L934 1017M929 1021L930 1022L929 1021M880 1056L881 1057L880 1056M872 1061L873 1062L872 1061M307 1080L308 1081L307 1080M327 1090L328 1091L327 1090M340 1096L341 1097L340 1096M354 1102L355 1103L354 1102M380 1112L381 1113L380 1112M757 1115L758 1116L757 1115M404 1120L405 1121L404 1120M425 1126L426 1127L425 1126M670 1137L671 1138L670 1137M557 1145L558 1146L557 1145z"/>
</svg>
