<?xml version="1.0" standalone="yes"?>
<svg xmlns="http://www.w3.org/2000/svg" width="1146" height="1146">
<path style="fill:#39bf4b; stroke:none;" d="M543 1.42444C508.746 5.92151 474.88 7.85242 441 15.8843C341.227 39.5376 249.088 90.1954 175 161.039C124.51 209.319 82.7571 268.521 53.6914 332C-38.2123 532.714 -7.39124 775.195 136.427 944C172.438 986.267 214.497 1023.3 261 1053.66C314.76 1088.75 374.71 1114.25 437 1129.63C506.401 1146.75 579.3 1150.02 650 1140.72C830.235 1117.02 991.297 1004.72 1077.69 845C1120.9 765.108 1143.77 674.584 1145.99 584C1152.44 320.529 966.84 81.3365 712 17.6266C669.568 7.01868 625.713 1 582 1C569.211 1 555.686 -0.240967 543 1.42444z"/>
<path style="fill:#22dc24; stroke:none;" d="M684 11L685 12L684 11z"/>
<path style="fill:#017f7f; stroke:none;" d="M689 12L690 13L689 12z"/>
<path style="fill:#22dc24; stroke:none;" d="M707 16L708 17L707 16M711 17L712 18L711 17z"/>
<path style="fill:#017f7f; stroke:none;" d="M715 18L716 19L715 18M740 25L741 26L740 25M396 28L397 29L396 28M373 36L374 37L373 36z"/>
<path style="fill:#22dc24; stroke:none;" d="M365 39L366 40L365 39z"/>
<path style="fill:#017f7f; stroke:none;" d="M360 41L361 42L360 41z"/>
<path style="fill:#22dc24; stroke:none;" d="M788 42L789 43L788 42M800 47L801 48L800 47z"/>
<path style="fill:#017f7f; stroke:none;" d="M341 49L342 50L341 49M809 51L810 52L809 51z"/>
<path style="fill:#22dc24; stroke:none;" d="M330 54L331 55L330 54M304 67L305 68L304 67M293 73L294 74L293 73z"/>
<path style="fill:#017f7f; stroke:none;" d="M286 77L287 78L286 77z"/>
<path style="fill:#22dc24; stroke:none;" d="M868 82L869 83L868 82M271 86L272 87L271 86M263 91L264 92L263 91M884 92L885 93L884 92M260 93L261 94L260 93z"/>
<path style="fill:#017f7f; stroke:none;" d="M887 94L888 95L887 94M257 95L258 96L257 95M890 96L891 97L890 96z"/>
<path style="fill:#22dc24; stroke:none;" d="M251 99L252 100L251 99M906 107L907 108L906 107M234 111L235 112L234 111M226 117L227 118L226 117z"/>
<path style="fill:#017f7f; stroke:none;" d="M926 122L927 123L926 122z"/>
<path style="fill:#22dc24; stroke:none;" d="M217 124L218 125L217 124M931 126L932 127L931 126M212 128L213 129L212 128M200 138L201 139L200 138M192 145L193 146L192 145z"/>
<path style="fill:#017f7f; stroke:none;" d="M959 150L960 151L959 150z"/>
<path style="fill:#22dc24; stroke:none;" d="M180 156L181 157L180 156M156 180L157 181L156 180M996 187L997 188L996 187M145 192L146 193L145 192M1004 196L1005 197L1004 196M138 200L139 201L138 200M1010 203L1011 204L1010 203z"/>
<path style="fill:#fefffe; stroke:none;" d="M421 671C432.179 667.199 442.368 651.623 450.17 643C468.597 622.634 487.838 602.659 507.015 583C515.584 574.215 529.561 564.59 532.471 552C534.271 544.211 532.209 535.742 531.13 528C529.039 512.99 526.798 497.992 524.579 483C520.633 456.348 516.657 429.694 513 403C511.882 394.842 509.188 379.593 521 377.539C533.109 375.432 538.676 396.909 541.811 405C554.02 436.513 564.022 472.802 581 502C596.936 494.568 611.465 472.936 623.17 460C648.743 431.737 675.93 404.891 701.911 377C710.788 367.47 719.297 355.832 730 348.305C735.505 344.433 742.971 343.272 746.86 350.044C750.108 355.702 747.427 361.759 744.741 367C738.885 378.423 731.208 389.107 724.424 400C702.802 434.716 681.126 469.401 659.319 504C653.45 513.312 647.606 522.644 641.808 532C640.033 534.864 635.97 539.277 636.252 542.856C636.739 549.033 660.14 548.907 665 549.576C694.261 553.607 723.804 555.756 753 560.275C761.1 561.528 777.494 568.126 769.346 578.895C761.164 589.711 735.27 587.852 723 589.166C697.977 591.846 673.022 595.155 648 597.834C633.941 599.339 617.566 598.863 604 602.789C593.1 605.944 587.81 618.034 582.399 627C570.041 647.477 557.173 667.669 544.576 688C536.913 700.367 529.115 712.651 521.424 725C519.039 728.829 513.277 735.099 513.593 739.852C513.892 744.362 522.041 743 525 743L561 743L691 743C701.505 743 729.608 739.59 728.717 757C728.301 765.121 719.767 768.736 713 770.346C694.156 774.828 674.183 777.172 655 779.87C612.902 785.79 571.058 793.533 529 799.728C512.119 802.215 485.794 801.444 471.004 810.228C463.62 814.613 459.935 823.965 455.576 831C445.44 847.358 435.261 863.688 425.05 880C422.148 884.636 411.277 897.212 414.083 902.787C416.116 906.828 423.131 908.766 427 910.421C439.094 915.597 451.394 920.483 464 924.28C501.35 935.529 540.101 940.756 579 938.089C614.137 935.681 647.912 928.563 681 916.319C703.563 907.969 725.343 896.574 745 882.706C880.407 787.177 899.515 606.234 889.089 454C884.824 391.709 879.683 330.436 867.199 269C864.199 254.233 860.527 239.615 856.873 225C855.728 220.419 855.097 211.769 850.722 209.028C847.234 206.842 840.947 208 837 208L805 208C759.152 208 713.257 214.557 668 221.576C639.78 225.952 611.826 231.963 584 238.349C444.787 270.296 292.36 329.529 232.421 470C223.659 490.534 216.753 512.036 212.611 534C198.865 606.886 210.13 685.331 244.781 751C253.578 767.672 264.49 783.433 276.424 798C279.611 801.89 285.912 812.651 292 809.338C298.779 805.648 303.794 797.485 309.039 792C321.74 778.718 334.188 765.149 347.015 752C353.191 745.668 364.148 737.892 366.566 729C370.566 714.29 364.622 693.008 363.17 678C359.945 644.679 357.162 611.312 353.831 578C351.068 550.369 347.941 522.696 345.911 495C345.227 485.664 341.328 471.629 352.015 466.18C358.122 463.066 363.905 468.164 367.147 473.001C373.587 482.611 375.093 497.878 377.873 509C386.811 544.752 396.226 580.427 405.849 616C410.705 633.951 413.651 653.918 421 671z"/>
<path style="fill:#017f7f; stroke:none;" d="M1015 209L1016 210L1015 209z"/>
<path style="fill:#22dc24; stroke:none;" d="M128 212L129 213L128 212z"/>
<path style="fill:#017f7f; stroke:none;" d="M124 217L125 218L124 217z"/>
<path style="fill:#22dc24; stroke:none;" d="M117 226L118 227L117 226M1030 228L1031 229L1030 228M1033 232L1034 233L1033 232M111 234L112 235L111 234z"/>
<path style="fill:#017f7f; stroke:none;" d="M99 251L100 252L99 251M95 257L96 258L95 257M93 260L94 261L93 260z"/>
<path style="fill:#22dc24; stroke:none;" d="M91 263L92 264L91 263M1057 267L1058 268L1057 267z"/>
<path style="fill:#017f7f; stroke:none;" d="M86 271L87 272L86 271M77 286L78 287L77 286z"/>
<path style="fill:#22dc24; stroke:none;" d="M73 293L74 294L73 293z"/>
<path style="fill:#017f7f; stroke:none;" d="M1073 294L1074 295L1073 294z"/>
<path style="fill:#22dc24; stroke:none;" d="M67 304L68 305L67 304M1079 305L1080 306L1079 305M1091 329L1092 330L1091 329M54 330L55 331L54 330M49 341L50 342L49 341M1100 349L1101 350L1100 349z"/>
<path style="fill:#017f7f; stroke:none;" d="M41 360L42 361L41 360z"/>
<path style="fill:#22dc24; stroke:none;" d="M39 365L40 366L39 365M1108 369L1109 370L1108 369M1111 377L1112 378L1111 377M32 384L33 385L32 384z"/>
<path style="fill:#017f7f; stroke:none;" d="M28 396L29 397L28 396z"/>
<path style="fill:#22dc24; stroke:none;" d="M27 399L28 400L27 399M1123 414L1124 415L1123 414z"/>
<path style="fill:#017f7f; stroke:none;" d="M1126 425L1127 426L1126 425z"/>
<path style="fill:#22dc24; stroke:none;" d="M1140 495L1141 496L1140 495M3 516L4 517L3 516M1143 522L1144 523L1143 522M1145 589L1146 590L1145 589z"/>
<path style="fill:#017f7f; stroke:none;" d="M1144 610L1145 611L1144 610z"/>
<path style="fill:#22dc24; stroke:none;" d="M1142 634L1143 635L1142 634M1138 664L1139 665L1138 664z"/>
<path style="fill:#017f7f; stroke:none;" d="M1137 670L1138 671L1137 670M1135 681L1136 682L1135 681z"/>
<path style="fill:#22dc24; stroke:none;" d="M12 689L13 690L12 689M17 711L18 712L17 711z"/>
<path style="fill:#017f7f; stroke:none;" d="M18 715L19 716L18 715z"/>
<path style="fill:#22dc24; stroke:none;" d="M25 740L26 741L25 740M1116 754L1117 755L1116 754z"/>
<path style="fill:#017f7f; stroke:none;" d="M1115 757L1116 758L1115 757M1107 779L1108 780L1107 779M40 783L41 784L40 783z"/>
<path style="fill:#22dc24; stroke:none;" d="M1101 794L1102 795L1101 794M1098 801L1099 802L1098 801M51 809L52 810L51 809z"/>
<path style="fill:#017f7f; stroke:none;" d="M1094 810L1095 811L1094 810M1071 855L1072 856L1071 855M75 856L76 857L75 856z"/>
<path style="fill:#22dc24; stroke:none;" d="M1067 862L1068 863L1067 862z"/>
<path style="fill:#017f7f; stroke:none;" d="M1064 867L1065 868L1064 867z"/>
<path style="fill:#22dc24; stroke:none;" d="M1061 872L1062 873L1061 872z"/>
<path style="fill:#017f7f; stroke:none;" d="M87 876L88 877L87 876z"/>
<path style="fill:#22dc24; stroke:none;" d="M1056 880L1057 881L1056 880M94 887L95 888L94 887z"/>
<path style="fill:#017f7f; stroke:none;" d="M96 890L97 891L96 890M110 910L111 911L110 910M119 922L120 923L119 922z"/>
<path style="fill:#22dc24; stroke:none;" d="M122 926L123 927L122 926z"/>
<path style="fill:#017f7f; stroke:none;" d="M1017 934L1018 935L1017 934z"/>
<path style="fill:#22dc24; stroke:none;" d="M1007 946L1008 947L1007 946z"/>
<path style="fill:#017f7f; stroke:none;" d="M142 950L143 951L142 950z"/>
<path style="fill:#22dc24; stroke:none;" d="M150 959L151 960L150 959M988 967L989 968L988 967z"/>
<path style="fill:#017f7f; stroke:none;" d="M967 988L968 989L967 988z"/>
<path style="fill:#22dc24; stroke:none;" d="M186 995L187 996L186 995M187 996L188 997L187 996M196 1004L197 1005L196 1004M946 1007L947 1008L946 1007M203 1010L204 1011L203 1010M209 1015L210 1016L209 1015z"/>
<path style="fill:#017f7f; stroke:none;" d="M934 1017L935 1018L934 1017M929 1021L930 1022L929 1021z"/>
<path style="fill:#22dc24; stroke:none;" d="M924 1025L925 1026L924 1025M228 1030L229 1031L228 1030M232 1033L233 1034L232 1033M246 1043L247 1044L246 1043z"/>
<path style="fill:#017f7f; stroke:none;" d="M880 1056L881 1057L880 1056M872 1061L873 1062L872 1061z"/>
<path style="fill:#22dc24; stroke:none;" d="M862 1067L863 1068L862 1067M294 1073L295 1074L294 1073z"/>
<path style="fill:#017f7f; stroke:none;" d="M307 1080L308 1081L307 1080M327 1090L328 1091L327 1090z"/>
<path style="fill:#22dc24; stroke:none;" d="M810 1094L811 1095L810 1094z"/>
<path style="fill:#017f7f; stroke:none;" d="M340 1096L341 1097L340 1096z"/>
<path style="fill:#22dc24; stroke:none;" d="M801 1098L802 1099L801 1098M794 1101L795 1102L794 1101z"/>
<path style="fill:#017f7f; stroke:none;" d="M354 1102L355 1103L354 1102M380 1112L381 1113L380 1112M757 1115L758 1116L757 1115z"/>
<path style="fill:#22dc24; stroke:none;" d="M754 1116L755 1117L754 1116M751 1117L752 1118L751 1117z"/>
<path style="fill:#017f7f; stroke:none;" d="M404 1120L405 1121L404 1120z"/>
<path style="fill:#22dc24; stroke:none;" d="M414 1123L415 1124L414 1123M728 1124L729 1125L728 1124z"/>
<path style="fill:#017f7f; stroke:none;" d="M425 1126L426 1127L425 1126M670 1137L671 1138L670 1137z"/>
<path style="fill:#22dc24; stroke:none;" d="M664 1138L665 1139L664 1138z"/>
<path style="fill:#017f7f; stroke:none;" d="M557 1145L558 1146L557 1145z"/>
</svg>
